<?xml version="1.0" standalone="no"?>
<!DOCTYPE svg PUBLIC "-//W3C//DTD SVG 1.1//EN" "http://www.w3.org/Graphics/SVG/1.1/DTD/svg11.dtd" >
<svg>
<metadata>
Created by FontForge 20090622 at Tue Oct  6 22:28:22 2015
 By deploy user
Copyright (c) 2013 by Miguel &#38; Daniel Hern&#195;&#131;&#194;&#161;ndez. All rights reserved.
</metadata>
<defs>
<font id="ArquitectaHeavy" horiz-adv-x="550" >
  <font-face 
    font-family="Arquitecta Heavy"
    font-weight="900"
    font-stretch="normal"
    units-per-em="1000"
    panose-1="0 0 0 0 0 0 0 0 0 0"
    ascent="750"
    descent="-250"
    x-height="346"
    cap-height="600"
    bbox="-174 -250 1055 923"
    underline-thickness="50"
    underline-position="-50"
    unicode-range="U+000D-U+FB04"
  />
<missing-glyph horiz-adv-x="500" 
 />
    <glyph glyph-name=".notdef" horiz-adv-x="500" 
 />
    <glyph glyph-name=".null" horiz-adv-x="0" 
 />
    <glyph glyph-name="nonmarkingreturn" horiz-adv-x="333" 
 />
    <glyph glyph-name="NUL" horiz-adv-x="0" 
 />
    <glyph glyph-name="NUL" horiz-adv-x="0" 
 />
    <glyph glyph-name="CR" unicode="&#xd;" horiz-adv-x="226" 
 />
    <glyph glyph-name="space" unicode=" " horiz-adv-x="171" 
 />
    <glyph glyph-name="exclam" unicode="!" horiz-adv-x="252" 
d="M195 600v-42l-30 -359h-79l-30 359v42h139zM53 65q0 31 21 52.5t52 21.5t52.5 -21.5t21.5 -52.5t-21.5 -52t-52.5 -21t-52 21t-21 52z" />
    <glyph glyph-name="quotedbl" unicode="&#x22;" horiz-adv-x="346" 
d="M158 653l-44 -190h-76v19l20 190h100v-19zM320 653l-44 -190h-76v19l20 190h100v-19z" />
    <glyph glyph-name="numbersign" unicode="#" horiz-adv-x="661" 
d="M543 583l-34 -149h122l-16 -70h-122l-32 -145h121l-16 -70h-121l-33 -149h-75l33 149h-145l-33 -149h-75l33 149h-120l16 70h119l33 145h-119l16 70h118l34 149h75l-34 -149h146l34 149h75zM273 364l-33 -145h146l32 145h-145z" />
    <glyph glyph-name="dollar" unicode="$" horiz-adv-x="551" 
d="M34 64l66 92l25 -16t62 -26t90 -16q102 0 102 67q0 30 -26.5 48.5t-103.5 39.5q-107 30 -157 71.5t-50 110.5q0 74 50 121t144 55v71h83v-71q58 -4 104 -19t63 -28l17 -13l-65 -99q-7 6 -20.5 14t-55.5 22t-86 14q-98 0 -98 -60q0 -26 26 -42t99 -36q112 -30 163 -73.5
t51 -114.5q0 -76 -50 -127t-148 -60v-71h-83v71q-60 5 -110.5 23.5t-71.5 35.5z" />
    <glyph glyph-name="percent" unicode="%" horiz-adv-x="674" 
d="M171 613q64 0 101 -43t37 -105t-37.5 -105.5t-100.5 -43.5t-101 44t-38 105q0 62 37.5 105t101.5 43zM171 543q-55 0 -55 -78t55 -78q54 0 54 78t-54 78zM540 610l63 -50l-470 -564l-61 50zM504 289q64 0 101.5 -43.5t37.5 -105.5q0 -61 -38 -104.5t-101 -43.5t-101 43.5
t-38 104.5q0 62 37.5 105.5t101.5 43.5zM504 219q-55 0 -55 -79q0 -77 55 -77q54 0 54 77q0 79 -54 79z" />
    <glyph glyph-name="ampersand" unicode="&#x26;" horiz-adv-x="649" 
d="M49 169q0 57 32.5 93.5t89.5 63.5l-13 13q-54 52 -54 122q0 66 49 109t133 43q85 0 136 -44t51 -108q0 -60 -33 -97t-91 -67l110 -104q25 48 25 102v23h116v-21q0 -97 -59 -182l112 -106v-9h-143l-43 42q-78 -55 -176 -55q-120 0 -181 49.5t-61 132.5zM291 92q53 0 97 26
l-139 133q-67 -34 -67 -79q0 -34 28.5 -57t80.5 -23zM218 450q0 -37 54 -84q43 18 66 37.5t23 47.5q0 27 -18.5 44t-53.5 17q-33 0 -52 -16.5t-19 -45.5z" />
    <glyph glyph-name="quotesingle" unicode="'" horiz-adv-x="184" 
d="M158 653l-44 -190h-76v19l20 190h100v-19z" />
    <glyph glyph-name="parenleft" unicode="(" horiz-adv-x="353" 
d="M346 595q-198 -119 -198 -337q0 -219 198 -338l-61 -84q-27 13 -57.5 34t-68 59.5t-67 83.5t-49.5 109.5t-20 135.5t20 135.5t49.5 109.5t67 83t68 59t57.5 34z" />
    <glyph glyph-name="parenright" unicode=")" horiz-adv-x="353" 
d="M7 595l61 84q27 -13 57.5 -34t68 -59t67 -83t49.5 -109.5t20 -135.5t-20 -135.5t-49.5 -109.5t-67 -83.5t-68 -59.5t-57.5 -34l-61 84q198 119 198 338q0 218 -198 337z" />
    <glyph glyph-name="asterisk" unicode="*" horiz-adv-x="395" 
d="M237 700l-14 -77h-50l-14 77v29h78v-29zM331 575l-78 -10l-16 48l71 38l26 8l24 -75zM143 565l-78 10l-28 9l25 75l25 -9l72 -38zM90 495l58 55l40 -28l-35 -74l-16 -22l-63 45zM247 549l59 -54l17 -24l-65 -45l-16 22l-35 74z" />
    <glyph glyph-name="plus" unicode="+" horiz-adv-x="485" 
d="M293 500v-153h154v-98h-154v-146h-99v146h-156v98h156v153h99z" />
    <glyph glyph-name="comma" unicode="," horiz-adv-x="194" 
d="M26 61q0 30 20 50.5t50 20.5q29 0 49.5 -20.5t20.5 -50.5q0 -46 -28 -96l-35 -61h-77l34 59q4 8 9 14t7 9l3 2v6q-24 5 -38.5 23.5t-14.5 43.5z" />
    <glyph glyph-name="hyphen" unicode="-" horiz-adv-x="377" 
d="M43 240v98h291v-98h-291z" />
    <glyph glyph-name="period" unicode="." horiz-adv-x="192" 
d="M26 62q0 29 20.5 49.5t49.5 20.5t49.5 -20.5t20.5 -49.5t-20.5 -49.5t-49.5 -20.5t-49.5 20.5t-20.5 49.5z" />
    <glyph glyph-name="slash" unicode="/" horiz-adv-x="386" 
d="M363 703l-221 -879h-118l221 879h118z" />
    <glyph glyph-name="zero" unicode="0" horiz-adv-x="624" 
d="M312 -13q-130 0 -202 90t-72 223t72 223t202 90q131 0 202.5 -90t71.5 -223t-71.5 -223t-202.5 -90zM312 103q72 0 110.5 54t38.5 143t-38.5 143t-110.5 54q-71 0 -110 -54.5t-39 -142.5t39 -142.5t110 -54.5z" />
    <glyph glyph-name="one" unicode="1" horiz-adv-x="342" 
d="M20 494v106h240v-600h-121v494h-119z" />
    <glyph glyph-name="two" unicode="2" horiz-adv-x="522" 
d="M38 1v21l240 283q30 35 40.5 54.5t10.5 43.5q0 39 -28.5 65.5t-74.5 26.5q-76 0 -136 -60l-64 97q3 3 9 8.5t27 19.5t44 24.5t59 19.5t74 9q112 0 169.5 -52.5t57.5 -134.5q0 -80 -65 -152l-141 -168h223v-106h-441l1 2z" />
    <glyph glyph-name="three" unicode="3" horiz-adv-x="527" 
d="M254 278h-81v27l115 189h-228v106h410v-22l-132 -216q74 -12 112 -59t38 -122q0 -84 -62.5 -139t-179.5 -55q-61 0 -117.5 21t-76.5 35.5t-29 23.5l31.5 48l29.5 46q8 -7 21.5 -17t55 -27t81.5 -17q58 0 87.5 24.5t29.5 63.5q0 40 -26.5 64.5t-78.5 25.5z" />
    <glyph glyph-name="four" unicode="4" horiz-adv-x="569" 
d="M21 130v84l352 386h87l-1 -365h75v-105h-75v-130h-121v130h-317zM181 248v-13h157v182l-135 -152z" />
    <glyph glyph-name="five" unicode="5" horiz-adv-x="520" 
d="M451 494h-255l-4 -120q38 4 58 4q238 0 238 -194q0 -87 -62.5 -142t-179.5 -55q-61 0 -116.5 20t-81.5 40l-25 20l61 94q8 -7 22 -17t55.5 -27t81.5 -17q57 0 86.5 25t29.5 66t-34 64.5t-105 23.5q-90 0 -132 -21l-13 9l10 333h366v-106z" />
    <glyph glyph-name="six" unicode="6" horiz-adv-x="529" 
d="M37 201q0 83 58 182l128 217h148l-110 -182q-5 -9 -11.5 -17.5t-10.5 -12.5l-4 -3v-8q24 9 51 9q101 0 161 -51t60 -139q0 -96 -66 -152.5t-165 -56.5q-107 0 -173 58.5t-66 155.5zM272 286q-43 0 -73 -25.5t-32 -64.5v-5q0 -44 29 -71.5t76 -27.5q49 0 77 27.5t28 70.5
q0 41 -27.5 68.5t-77.5 27.5z" />
    <glyph glyph-name="seven" unicode="7" horiz-adv-x="476" 
d="M31 494v106h442v-27l-266 -573h-143l240 494h-273z" />
    <glyph glyph-name="eight" unicode="8" horiz-adv-x="546" 
d="M273 -13q-108 0 -171 52t-63 129q0 98 90 149q-66 48 -66 127q0 73 57 121t153 48t153 -48t57 -121q0 -79 -67 -127q91 -51 91 -149q0 -77 -63 -129t-171 -52zM273 92q47 0 76.5 25t29.5 61q0 39 -29.5 64.5t-76.5 25.5q-46 0 -75.5 -25.5t-29.5 -64.5q0 -36 29.5 -61
t75.5 -25zM273 354q40 0 63.5 22t23.5 56q0 32 -24 53.5t-63 21.5t-62.5 -21.5t-23.5 -53.5q0 -34 23.5 -56t62.5 -22z" />
    <glyph glyph-name="nine" unicode="9" horiz-adv-x="532" 
d="M494 399q0 -82 -57 -183l-127 -216h-153l110 182q5 9 12 17t11 12l4 4v5q-26 -8 -49 -8q-101 0 -161 51.5t-60 139.5q0 96 65.5 153t164.5 57q106 0 173 -58.5t67 -155.5zM259 316q46 0 74 26t28 67t-28.5 67.5t-74.5 26.5t-73 -26.5t-27 -67.5q0 -40 27 -66.5t74 -26.5z
" />
    <glyph glyph-name="colon" unicode=":" horiz-adv-x="214" 
d="M37 277q0 29 20 50t49 21q30 0 50.5 -21t20.5 -50t-20.5 -49.5t-50.5 -20.5q-29 0 -49 20.5t-20 49.5zM37 62q0 29 20 49.5t49 20.5q30 0 50.5 -20.5t20.5 -49.5t-20.5 -49.5t-50.5 -20.5q-29 0 -49 20.5t-20 49.5z" />
    <glyph glyph-name="semicolon" unicode=";" horiz-adv-x="221" 
d="M41 61q0 30 20 50.5t50 20.5q29 0 49.5 -20.5t20.5 -50.5q0 -48 -28 -96l-35 -61h-77l34 59q4 8 9 14t8 9l2 2v6q-24 5 -38.5 23.5t-14.5 43.5zM41 277q0 29 20.5 50t49.5 21t49.5 -21t20.5 -50t-20.5 -49.5t-49.5 -20.5t-49.5 20.5t-20.5 49.5z" />
    <glyph glyph-name="less" unicode="&#x3c;" horiz-adv-x="387" 
d="M271 44l-240 232v24l240 232l69 -73l-181 -172l181 -171z" />
    <glyph glyph-name="equal" unicode="=" horiz-adv-x="567" 
d="M87 341v97h394v-97h-394zM87 150v98h394v-98h-394z" />
    <glyph glyph-name="greater" unicode="&#x3e;" horiz-adv-x="387" 
d="M356 276l-240 -232l-70 72l181 171l-181 172l70 73l240 -232v-24z" />
    <glyph glyph-name="question" unicode="?" horiz-adv-x="394" 
d="M71 489l-41 92q57 31 153 31q80 0 126.5 -41.5t46.5 -104.5q0 -38 -12.5 -68.5t-31.5 -50.5t-38.5 -38t-36 -41.5t-21.5 -50.5l-2 -24h-80v33q0 36 16 67t34.5 50t34.5 45.5t16 53.5q0 33 -22 52t-57 19q-23 0 -44 -6t-31 -12zM106 62q0 29 20.5 49.5t50.5 20.5
q29 0 49 -20.5t20 -49.5t-20 -50t-49 -21q-30 0 -50.5 21t-20.5 50z" />
    <glyph glyph-name="at" unicode="@" horiz-adv-x="906" 
d="M455 -244q-104 0 -186.5 34.5t-133 94.5t-76.5 135.5t-26 160.5q0 86 26 161.5t76.5 135t133 94.5t187.5 35t187 -33.5t129 -87.5t70.5 -115t23.5 -124q0 -123 -50.5 -191.5t-139.5 -68.5q-29 0 -53 7t-37 16.5t-22 19.5t-12 17l-3 7h-8q-6 -12 -16.5 -24t-39 -24.5
t-66.5 -12.5q-73 0 -121 49t-48 131q0 85 47.5 133.5t121.5 48.5q77 0 113 -48l15 39h74v-196q0 -65 62 -65q40 0 63 36.5t23 108.5q0 126 -80.5 205t-232.5 79q-149 0 -237.5 -91.5t-88.5 -240.5t88 -241t237 -92q48 0 89.5 8.5t59.5 16.5l17 8l39 -82q-7 -5 -21 -12.5
t-67 -19.5t-117 -12zM521 175q0 39 -21.5 61.5t-58.5 22.5q-36 0 -58 -23t-22 -61t22.5 -62.5t57.5 -24.5q37 0 58.5 24t21.5 63z" />
    <glyph glyph-name="A" unicode="A" horiz-adv-x="618" 
d="M-10 0l308 600h21l309 -600h-137l-39 82h-287l-38 -82h-137zM403 185l-91 196h-8l-91 -196l-7 -13h204z" />
    <glyph glyph-name="B" unicode="B" horiz-adv-x="636" 
d="M596 175q0 -84 -60.5 -129.5t-167.5 -45.5h-296v600h288q106 0 162 -42.5t56 -120.5q0 -41 -20 -72.5t-56 -47.5v-13q44 -14 69 -48.5t25 -80.5zM370 259h-177v-153h179q42 0 68.5 21.5t26.5 55.5q0 33 -27 54.5t-70 21.5zM450 421q0 35 -23.5 54t-68.5 19h-165v-146h164
q44 0 68.5 20.5t24.5 52.5z" />
    <glyph glyph-name="C" unicode="C" horiz-adv-x="582" 
d="M496 154l69 -93l-8 -8t-24.5 -18t-42 -22.5t-59.5 -17.5t-78 -8q-144 0 -231.5 90t-87.5 223t87.5 223t231.5 90q41 0 78 -7.5t60 -18.5t41 -22t26 -19l7 -7l-69 -93q-7 6 -19.5 14.5t-49.5 22.5t-72 14q-86 0 -141 -55.5t-55 -141.5t55 -142t141 -56q40 0 75.5 13
t50.5 26z" />
    <glyph glyph-name="D" unicode="D" horiz-adv-x="662" 
d="M627 300q0 -134 -86.5 -217t-232.5 -83h-236v600h236q146 0 232.5 -83t86.5 -217zM300 494h-107v-388h107q90 0 146 51t56 143t-56 143t-146 51z" />
    <glyph glyph-name="E" unicode="E" horiz-adv-x="573" 
d="M477 348v-99h-284v-143h345v-106h-466v600h466v-106h-345v-146h284z" />
    <glyph glyph-name="F" unicode="F" horiz-adv-x="561" 
d="M72 0v600h466v-106h-345v-146h296v-99h-296v-249h-121z" />
    <glyph glyph-name="G" unicode="G" horiz-adv-x="666" 
d="M336 249v99h300v-59q0 -137 -74 -219.5t-211 -82.5q-144 0 -230.5 89.5t-86.5 223.5t87 223.5t232 89.5q44 0 83 -8t64 -19t43 -22t26 -19l8 -8l-71 -92q-7 6 -19.5 14.5t-53 23t-82.5 14.5q-85 0 -138.5 -55.5t-53.5 -141.5t53 -142t138 -56q71 0 113.5 39.5t44.5 99.5
v8h-172z" />
    <glyph glyph-name="H" unicode="H" horiz-adv-x="682" 
d="M610 600v-600h-121v244h-296v-244h-121v600h121v-258h296v258h121z" />
    <glyph glyph-name="I" unicode="I" horiz-adv-x="266" 
d="M193 600v-600h-121v600h121z" />
    <glyph glyph-name="J" unicode="J" horiz-adv-x="475" 
d="M15 36l55 102q50 -33 105 -33q58 0 85 29t28 94v372h121v-396q-1 -97 -56.5 -157t-168.5 -60q-47 0 -89.5 12.5t-57 21t-22.5 15.5z" />
    <glyph glyph-name="K" unicode="K" horiz-adv-x="624" 
d="M193 600v-283l274 283h148v-13l-234 -243l234 -331v-13h-146l-173 256l-103 -107v-149h-121v600h121z" />
    <glyph glyph-name="L" unicode="L" horiz-adv-x="525" 
d="M513 0h-441v600h121v-494h320v-106z" />
    <glyph glyph-name="M" unicode="M" horiz-adv-x="758" 
d="M566 0v354l-174 -176h-24l-175 176v-354h-121v600h33l273 -269l276 269h32v-600h-120z" />
    <glyph glyph-name="N" unicode="N" horiz-adv-x="697" 
d="M624 599v-599h-29l-402 366v-366h-121v600h30l402 -358v357h120z" />
    <glyph glyph-name="O" unicode="O" horiz-adv-x="704" 
d="M351 -13q-143 0 -230 90t-87 223t87 223t230 90q144 0 231 -89.5t87 -223.5t-87 -223.5t-231 -89.5zM351 103q85 0 139.5 55.5t54.5 141.5t-54.5 141.5t-139.5 55.5q-84 0 -138 -55.5t-54 -141.5t54 -141.5t138 -55.5z" />
    <glyph glyph-name="P" unicode="P" horiz-adv-x="611" 
d="M344 600q114 0 179.5 -54t65.5 -152q0 -103 -69 -158.5t-184 -55.5h-143v-180h-121v600h272zM465 389q0 51 -33.5 78t-92.5 27h-146v-211h147q125 0 125 106z" />
    <glyph glyph-name="Q" unicode="Q" horiz-adv-x="704" 
d="M351 -13q-143 0 -230 90t-87 223t87 223t230 90q144 0 231 -89.5t87 -223.5q0 -76 -30 -140.5t-85 -107.5l63 -92v-13h-129l-36 54q-48 -14 -101 -14zM304 224v14h123l58 -85q60 57 60 147q0 86 -54.5 141.5t-139.5 55.5q-84 0 -138 -55.5t-54 -141.5t54 -141.5
t138 -55.5q10 0 32 2z" />
    <glyph glyph-name="R" unicode="R" horiz-adv-x="642" 
d="M72 0v600h271q115 0 180.5 -54t65.5 -152q0 -129 -113 -183v-9l143 -190v-12h-137l-133 183h-156v-183h-121zM464 389q0 51 -33 78t-92 27h-146v-209h149q58 0 90 26t32 78z" />
    <glyph glyph-name="S" unicode="S" horiz-adv-x="546" 
d="M31 64l66 92l25 -16t62 -26t90 -16q102 0 102 67q0 30 -26.5 48.5t-103.5 39.5q-107 30 -157 71.5t-50 110.5q0 82 60.5 130t173.5 48q72 0 128.5 -15.5t77.5 -31.5l21 -15l-65 -99q-7 6 -20.5 14t-55.5 22t-86 14q-98 0 -98 -60q0 -26 26 -42t99 -36q112 -30 163 -73.5
t51 -114.5q0 -84 -60 -136.5t-177 -52.5q-73 0 -134.5 19.5t-86.5 38.5z" />
    <glyph glyph-name="T" unicode="T" horiz-adv-x="538" 
d="M13 494v106h512v-106h-195v-494h-121v494h-196z" />
    <glyph glyph-name="U" unicode="U" horiz-adv-x="663" 
d="M332 -13q-123 0 -196 75.5t-73 193.5v344h121v-344q0 -66 38.5 -109.5t109.5 -43.5q72 0 109 43t37 110v344h121v-344q0 -119 -71.5 -194t-195.5 -75z" />
    <glyph glyph-name="V" unicode="V" horiz-adv-x="618" 
d="M255 331l49 -114h10l49 114l128 269h137l-309 -600h-22l-307 600h136z" />
    <glyph glyph-name="W" unicode="W" horiz-adv-x="827" 
d="M290 322l107 278h34l106 -278l22 -73h15l23 80l100 271h132l-245 -600h-38l-108 280l-18 57h-13l-18 -57l-110 -280h-36l-245 600h131l101 -271l22 -80h15z" />
    <glyph glyph-name="X" unicode="X" horiz-adv-x="587" 
d="M573 600l-189 -293l194 -307h-146l-114 192l-24 50l-25 -50l-113 -192h-145l191 307l-187 293h146l110 -182l23 -51q4 8 24 51q9 17 53.5 89.5t55.5 92.5h146z" />
    <glyph glyph-name="Y" unicode="Y" horiz-adv-x="563" 
d="M306 391l123 209h140l-227 -371v-229h-121v230l-225 370h140l124 -209l17 -38h11z" />
    <glyph glyph-name="Z" unicode="Z" horiz-adv-x="554" 
d="M26 0v32l306 462h-295v106h488v-33l-295 -461h292v-106h-496z" />
    <glyph glyph-name="bracketleft" unicode="[" horiz-adv-x="340" 
d="M64 -158v832h256v-98h-142v-636h142v-98h-256z" />
    <glyph glyph-name="backslash" unicode="\" horiz-adv-x="386" 
d="M244 -176l-221 879h118l221 -879h-118z" />
    <glyph glyph-name="bracketright" unicode="]" horiz-adv-x="340" 
d="M21 -158v98h141v636h-141v98h255v-832h-255z" />
    <glyph glyph-name="asciicircum" unicode="^" horiz-adv-x="394" 
d="M259 490l-62 94l-62 -94h-88v19l118 159h64l119 -159v-19h-89z" />
    <glyph glyph-name="underscore" unicode="_" horiz-adv-x="502" 
d="M38 -118v98h425v-98h-425z" />
    <glyph glyph-name="grave" unicode="`" horiz-adv-x="254" 
d="M131 419l-94 139v19h138l33 -139v-19h-77z" />
    <glyph glyph-name="a" unicode="a" horiz-adv-x="425" 
d="M24 99q0 49 38.5 77.5t106.5 28.5q71 0 95 -24h4v15q0 63 -90 63q-24 0 -47.5 -6t-34.5 -12l-12 -6l-36 87q61 32 152 32q93 0 138 -43.5t45 -120.5v-190h-87l-12 36h-6q-26 -44 -115 -44q-63 0 -101 30t-38 77zM138 108q0 -18 15.5 -29.5t44.5 -11.5q31 0 49.5 13
t18.5 29q0 17 -18.5 28t-49.5 11q-29 0 -44.5 -11t-15.5 -29z" />
    <glyph glyph-name="b" unicode="b" horiz-adv-x="467" 
d="M48 0v668h120v-354h5q2 4 8 11t31 18t58 11q73 0 121 -51t48 -131q0 -82 -48.5 -131t-124.5 -49q-24 0 -45 5.5t-33.5 13t-21 15.5t-12.5 14l-3 5h-5l-19 -45h-79zM162 174q0 -38 21.5 -60.5t56.5 -22.5t56.5 23.5t21.5 59.5t-21.5 58.5t-56.5 22.5t-56.5 -22t-21.5 -59z
" />
    <glyph glyph-name="c" unicode="c" horiz-adv-x="359" 
d="M226 -8q-89 0 -144.5 51.5t-55.5 129.5t55.5 129.5t144.5 51.5q34 0 62.5 -7t39.5 -15l12 -7l-34 -88q-27 18 -69 18q-40 0 -65 -22.5t-25 -59.5t25 -59.5t65 -22.5q19 0 36 4.5t25 8.5l8 5l32 -88q-35 -29 -112 -29z" />
    <glyph glyph-name="d" unicode="d" horiz-adv-x="467" 
d="M294 315h5v353h120v-668h-79l-19 44h-5q-3 -6 -10.5 -14.5t-37 -23t-68.5 -14.5q-75 0 -123.5 49t-48.5 131q0 80 47.5 131t120.5 51q33 0 57.5 -10t32.5 -20zM305 174q0 37 -21.5 59t-57.5 22q-34 0 -55.5 -22.5t-21.5 -58.5t21.5 -59.5t55.5 -23.5q36 0 57.5 22.5
t21.5 60.5z" />
    <glyph glyph-name="e" unicode="e" horiz-adv-x="415" 
d="M325 105l38 -75q-5 -4 -14.5 -11t-43.5 -18t-74 -11q-94 0 -149 52t-55 131t52.5 130t135.5 51q82 0 129.5 -49t47.5 -129l-1 -25h-248q13 -69 93 -69q25 0 47.5 6t32.5 12zM214 267q-57 0 -70 -57h135q-3 25 -20.5 41t-44.5 16z" />
    <glyph glyph-name="f" unicode="f" horiz-adv-x="335" 
d="M321 253h-108v-253h-120v253h-74v93h74v135q0 92 44 138.5t119 46.5q56 0 88 -19l-30 -103q-23 11 -40 11q-61 0 -61 -74v-135h108v-93z" />
    <glyph glyph-name="g" unicode="g" horiz-adv-x="415" 
d="M213 -238q-96 0 -147 36t-51 90q0 63 62 90v7q-54 24 -54 74q0 53 59 83q-27 33 -27 76q0 59 43 97.5t107 38.5l191 -11v-82h-54v-5q14 -12 14 -45q0 -51 -41 -86.5t-109 -35.5q-31 0 -58 9q-22 -10 -22 -26q0 -30 87 -30q202 0 202 -135q0 -63 -52 -104t-150 -41z
M213 -47q-43 0 -63.5 -16t-20.5 -38t20 -37t64 -15t64.5 15t20.5 37q0 23 -20.5 38.5t-64.5 15.5zM206 269q-25 0 -39.5 -14t-14.5 -36q0 -21 14.5 -35t39.5 -14t40 14t15 35q0 22 -14.5 36t-40.5 14z" />
    <glyph glyph-name="h" unicode="h" horiz-adv-x="463" 
d="M47 0v668h122v-353h2l1 1q39 39 100 39q67 0 107.5 -40.5t40.5 -110.5v-203h-120v186q0 31 -17 50t-47 19q-29 0 -47 -17t-20 -42v-197h-122z" />
    <glyph glyph-name="i" unicode="i" horiz-adv-x="215" 
d="M108 459q-29 0 -48.5 20t-19.5 49t20 49.5t48 20.5q29 0 49.5 -20.5t20.5 -49.5t-20.5 -49t-49.5 -20zM48 0v346h120v-346h-120z" />
    <glyph glyph-name="j" unicode="j" horiz-adv-x="215" 
d="M-23 -185l17 89q11 -5 24 -5q29 0 29 33v414h121v-420q0 -127 -119 -127q-21 0 -39 4t-26 8zM107 459q-29 0 -49 20t-20 49t20 49.5t49 20.5t49 -20.5t20 -49.5t-20 -49t-49 -20z" />
    <glyph glyph-name="k" unicode="k" horiz-adv-x="427" 
d="M274 346h133l-125 -168l141 -178h-145l-108 140h-3v-140h-120v668h120v-469h3z" />
    <glyph glyph-name="l" unicode="l" horiz-adv-x="215" 
d="M48 0v668h120v-668h-120z" />
    <glyph glyph-name="m" unicode="m" horiz-adv-x="713" 
d="M168 191v-191h-120v346h74l18 -47h6q39 55 118 55q86 0 129 -57h2q14 25 46 41t75 16q71 0 112.5 -40t41.5 -110v-204h-120v187q0 31 -16.5 49.5t-46.5 18.5t-48 -17t-20 -42v-196h-120v190q0 30 -17 47.5t-47 17.5q-31 0 -49 -18.5t-18 -45.5z" />
    <glyph glyph-name="n" unicode="n" horiz-adv-x="461" 
d="M48 0v346h74l18 -47h6q38 55 118 55q71 0 113 -40t42 -110v-204h-120v187q0 31 -17 49.5t-47 18.5t-47.5 -17t-19.5 -42v-196h-120z" />
    <glyph glyph-name="o" unicode="o" horiz-adv-x="445" 
d="M419 171q0 -80 -57 -129.5t-140 -49.5t-139.5 49.5t-56.5 129.5q0 81 56.5 132t139.5 51t140 -51t57 -132zM222 87q36 0 58 23.5t22 62.5q0 38 -22 62t-58 24q-35 0 -57 -24t-22 -62q0 -39 22 -62.5t57 -23.5z" />
    <glyph glyph-name="p" unicode="p" horiz-adv-x="467" 
d="M173 31h-5v-223h-120v538h76l19 -47h5q3 6 10.5 15t38 24.5t69.5 15.5q76 0 124.5 -49t48.5 -131q0 -80 -48 -131t-121 -51q-33 0 -57.5 10t-32.5 20zM162 172q0 -37 21.5 -59t56.5 -22t56.5 22.5t21.5 58.5t-21.5 59.5t-56.5 23.5t-56.5 -22.5t-21.5 -60.5z" />
    <glyph glyph-name="q" unicode="q" horiz-adv-x="467" 
d="M419 346v-538h-120v224h-5q-2 -4 -8 -11t-31 -18t-59 -11q-73 0 -120.5 51t-47.5 131q0 82 48.5 131t123.5 49q25 0 46.5 -6t34.5 -14t22 -16.5t13 -14.5l3 -6h4l19 49h77zM305 172q0 38 -21.5 60.5t-57.5 22.5q-34 0 -55.5 -23.5t-21.5 -59.5t21.5 -58.5t55.5 -22.5
q36 0 57.5 22t21.5 59z" />
    <glyph glyph-name="r" unicode="r" horiz-adv-x="323" 
d="M323 325l-43 -96q-18 14 -47 14q-27 0 -45 -17.5t-20 -45.5v-180h-120v346h74l18 -47h5q35 52 99 52q25 0 44.5 -6.5t27.5 -12.5z" />
    <glyph glyph-name="s" unicode="s" horiz-adv-x="382" 
d="M28 28l31 82q57 -33 115 -33q48 0 48 28q0 16 -30 26t-65.5 16.5t-65.5 31t-30 65.5q0 50 38.5 80t117.5 30q48 0 88 -7t56 -15l16 -7l-34 -86q-41 29 -110 29q-44 0 -44 -25q0 -15 30.5 -25t67.5 -17t67.5 -32t30.5 -66q0 -50 -42 -80.5t-125 -30.5q-48 0 -88 9t-56 18z
" />
    <glyph glyph-name="t" unicode="t" horiz-adv-x="340" 
d="M17 346h62v103h120v-103h110v-95h-110v-108q0 -50 45 -50q11 0 21.5 3t15.5 6l5 3l39 -81q-33 -32 -101 -32t-106.5 39t-38.5 108v112h-62v95z" />
    <glyph glyph-name="u" unicode="u" horiz-adv-x="460" 
d="M413 346v-346h-82l-20 46h-5q-30 -54 -110 -54q-71 0 -112.5 40t-41.5 110v204h121v-187q0 -31 16 -49.5t46 -18.5t48 17t20 42v196h120z" />
    <glyph glyph-name="v" unicode="v" horiz-adv-x="420" 
d="M418 346l-165 -346h-86l-166 346h132l67 -172q7 -17 7 -31h6q0 13 7 31l67 172h131z" />
    <glyph glyph-name="w" unicode="w" horiz-adv-x="603" 
d="M153 0l-149 346h130l56 -172q7 -23 7 -31h7q0 8 7 31l50 172h83l50 -172q6 -22 6 -31h7q0 12 7 31l56 172h129l-149 -346h-78l-60 159q-8 21 -8 38h-5q0 -17 -8 -38l-60 -159h-78z" />
    <glyph glyph-name="x" unicode="x" horiz-adv-x="423" 
d="M7 0l134 174l-131 172h134l67 -97h2l66 97h134l-130 -172l133 -174h-134l-69 102h-2l-70 -102h-134z" />
    <glyph glyph-name="y" unicode="y" horiz-adv-x="414" 
d="M411 346l-244 -538l-127 -1l112 227l-149 312h132l67 -172q7 -17 7 -31h6q0 13 7 31l67 172h122z" />
    <glyph glyph-name="z" unicode="z" horiz-adv-x="395" 
d="M362 0h-331v51l162 198h-160v97h329v-44l-161 -205h161v-97z" />
    <glyph glyph-name="braceleft" unicode="{" horiz-adv-x="296" 
d="M9 303h21q56 0 56 71v182q0 68 42 106t125 42l17 -100q-33 -5 -45 -15t-12 -40v-192q0 -77 -61 -96v-8q29 -8 45 -33t16 -61v-193q0 -29 12.5 -39.5t44.5 -15.5l-17 -100q-83 4 -125 42.5t-42 105.5v183q0 70 -56 70h-21v91z" />
    <glyph glyph-name="bar" unicode="|" horiz-adv-x="236" 
d="M173 673v-825h-110v825h110z" />
    <glyph glyph-name="braceright" unicode="}" horiz-adv-x="296" 
d="M287 212h-21q-56 0 -56 -70v-183q0 -67 -42 -105.5t-126 -42.5l-16 100q32 5 44 15.5t12 39.5v193q0 35 16.5 60.5t45.5 33.5v8q-62 19 -62 96v192q0 30 -12 40t-44 15l16 100q84 -4 126 -42t42 -106v-182q0 -71 56 -71h21v-91z" />
    <glyph glyph-name="asciitilde" unicode="~" horiz-adv-x="458" 
d="M300 328q21 0 40 6t28 12l8 5l36 -74q-4 -4 -12 -11t-36.5 -18t-60.5 -11q-28 0 -73 12.5t-74 12.5q-21 0 -40 -5.5t-28 -11.5l-8 -6l-35 74q4 4 12 11t36 18t60 11q28 0 73 -12.5t74 -12.5z" />
    <glyph glyph-name="uni00A0" unicode="&#xa0;" horiz-adv-x="171" 
 />
    <glyph glyph-name="exclamdown" unicode="&#xa1;" horiz-adv-x="252" 
d="M195 42v-42h-139v42l30 359h79zM53 535q0 31 21 52.5t52 21.5q30 0 52 -21.5t22 -52.5q0 -30 -22 -51.5t-52 -21.5q-31 0 -52 21t-21 52z" />
    <glyph glyph-name="cent" unicode="&#xa2;" horiz-adv-x="405" 
d="M189 -103v100q-69 13 -110.5 61.5t-41.5 114.5t41 114.5t110 61.5v101h81v-98q27 -3 51.5 -10.5t35.5 -13.5l11 -6l-41 -92q-36 25 -78 25q-40 0 -65 -22.5t-25 -59.5t25 -59.5t65 -22.5q19 0 38.5 5.5t29.5 11.5l10 6l41 -92q-37 -22 -97 -28v-97h-81z" />
    <glyph glyph-name="sterling" unicode="&#xa3;" horiz-adv-x="523" 
d="M472 106v-105h-409v105q2 1 6 2.5t13.5 9t17 17t13.5 27.5t6 40q0 11 -3 23h-76v83h47q-18 50 -18 95q0 83 63 145.5t177 62.5q36 0 68 -7t51.5 -17.5t33.5 -21t20 -17.5l6 -7l-67 -90q-4 5 -11.5 12t-34.5 19t-59 12q-55 0 -84 -29.5t-29 -71.5q0 -40 18 -85h178v-83
h-153q0 -3 0.5 -10t0.5 -10q0 -59 -35 -99h260z" />
    <glyph glyph-name="currency" unicode="&#xa4;" horiz-adv-x="578" 
d="M130 60l-78 76l58 58q-28 47 -28 104q0 56 28 104l-58 58l78 76l53 -61q48 28 105 28t106 -30l55 63l77 -76l-60 -60q27 -48 27 -102t-27 -102l60 -60l-77 -76l-55 62q-47 -29 -106 -29q-57 0 -105 28zM193 298q0 -40 27.5 -68t67.5 -28q39 0 67 28t28 68t-28 67.5
t-67 27.5q-40 0 -67.5 -27.5t-27.5 -67.5z" />
    <glyph glyph-name="yen" unicode="&#xa5;" horiz-adv-x="628" 
d="M338 391l123 209h140l-178 -290h113v-84h-162v-54h162v-83h-162v-89h-121v89h-163v83h163v54h-163v84h114l-176 290h140l124 -209l17 -38h11z" />
    <glyph glyph-name="brokenbar" unicode="&#xa6;" horiz-adv-x="237" 
d="M173 -152h-110v825h110v-825z" />
    <glyph glyph-name="section" unicode="&#xa7;" horiz-adv-x="544" 
d="M32 -122l66 93q9 -7 24.5 -17t60 -27t84.5 -17q50 0 73.5 19t23.5 48q0 30 -26.5 48.5t-87.5 41.5q-42 15 -67.5 26t-55.5 31t-44.5 48.5t-14.5 65.5q0 56 36 92q-50 40 -50 103q0 82 56.5 131t167.5 49q43 0 80.5 -6.5t61 -15.5t41 -18.5t25.5 -16.5l7 -6l-65 -99
q-7 6 -19 14.5t-51.5 23t-79.5 14.5q-85 0 -85 -62q0 -50 91 -80q37 -12 59 -20t54 -24t49.5 -32.5t31 -42.5t13.5 -57q0 -67 -36 -106q51 -44 51 -102q0 -77 -60 -127.5t-176 -50.5q-45 0 -85.5 8t-67 19.5t-47 23.5t-29.5 20zM243 267q-28 8 -42 13q-14 -8 -14 -34
q0 -48 104 -84q33 -10 66 -24q13 17 13 38q0 31 -30.5 50t-96.5 41z" />
    <glyph glyph-name="dieresis" unicode="&#xa8;" horiz-adv-x="403" 
d="M51 483q0 24 18 42t41 18q24 0 42 -18t18 -42q0 -23 -18 -41t-42 -18q-23 0 -41 18t-18 41zM237 483q0 24 18.5 42t41.5 18q24 0 42 -18t18 -42q0 -23 -18 -41t-42 -18q-23 0 -41.5 18t-18.5 41z" />
    <glyph glyph-name="copyright" unicode="&#xa9;" horiz-adv-x="712" 
d="M355 610q146 0 233 -89t87 -221t-87 -221.5t-233 -89.5q-144 0 -231 89.5t-87 221.5q0 131 87 220.5t231 89.5zM355 545q-113 0 -181.5 -70.5t-68.5 -174.5t68.5 -174.5t181.5 -70.5q115 0 184 70.5t69 174.5t-69 174.5t-184 70.5zM466 420l-40 -55q-22 18 -61 18
q-38 0 -60.5 -23t-22.5 -60t22.5 -60t60.5 -23q17 0 32.5 4.5t22.5 8.5l6 5l40 -55q-4 -4 -11.5 -10t-35 -16t-59.5 -10q-73 0 -116.5 44.5t-43.5 111.5t43.5 111.5t116.5 44.5q33 0 59.5 -9t36.5 -18z" />
    <glyph glyph-name="ordfeminine" unicode="&#xaa;" horiz-adv-x="394" 
d="M26 366q0 47 37 74t98 27q62 0 93 -24v19q0 37 -21.5 53.5t-67.5 16.5q-45 0 -87 -21l-29 76q69 26 136 26q166 0 166 -156v-183h-73l-14 34h-4q-30 -42 -109 -42q-54 0 -89.5 27.5t-35.5 72.5zM121 372q0 -43 62 -43q30 0 50.5 12t20.5 31t-20 31t-49 12q-64 0 -64 -43z
" />
    <glyph glyph-name="guillemotleft" unicode="&#xab;" horiz-adv-x="456" 
d="M27 161v21l106 154h100v-9l-102 -151v-7l102 -153v-9h-100zM224 161v21l106 154h100v-9l-102 -151v-7l102 -153v-9h-100z" />
    <glyph glyph-name="logicalnot" unicode="&#xac;" horiz-adv-x="563" 
d="M30 249v97h460v-346h-99v249h-361z" />
    <glyph glyph-name="registered" unicode="&#xae;" horiz-adv-x="564" 
d="M521 379q0 -99 -65.5 -167t-174.5 -68q-108 0 -173 68t-65 167q0 100 65 168t173 68q109 0 174.5 -68t65.5 -168zM451 379q0 75 -47.5 122.5t-122.5 47.5q-74 0 -121 -45t-47 -125q0 -74 48 -121.5t120 -47.5q75 0 122.5 47t47.5 122zM192 485h98q40 0 64.5 -20.5
t24.5 -54.5q0 -41 -35 -63l39 -53v-11h-56l-36 51h-46v-51h-53v202zM288 437h-43v-57h43q35 0 35 28q0 29 -35 29z" />
    <glyph glyph-name="macron" unicode="&#xaf;" horiz-adv-x="402" 
d="M68 440v72h279v-72h-279z" />
    <glyph glyph-name="degree" unicode="&#xb0;" horiz-adv-x="287" 
d="M143 672q52 0 85 -31t33 -77t-33 -77t-85 -31t-84.5 31t-32.5 77t32.5 77t84.5 31zM143 613q-23 0 -36.5 -14t-13.5 -35q0 -20 13.5 -33.5t36.5 -13.5t37 13.5t14 33.5q0 22 -14 35.5t-37 13.5z" />
    <glyph glyph-name="plusminus" unicode="&#xb1;" horiz-adv-x="527" 
d="M315 185h-99v151h-162v97h162v158h99v-158h158v-97h-158v-151zM473 122v-98h-419v98h419z" />
    <glyph glyph-name="twosuperior" unicode="&#xb2;" horiz-adv-x="307" 
d="M24 342v20l130 143q27 29 27 52q0 19 -12.5 31t-35.5 12q-31 0 -75 -33l-42 63q5 5 15.5 13t43 21t66.5 13q65 0 96 -30.5t31 -77.5q0 -43 -40 -90l-62 -68h119v-69h-261z" />
    <glyph glyph-name="threesuperior" unicode="&#xb3;" horiz-adv-x="311" 
d="M32 598v70h241v-19l-61 -107q76 -15 76 -96q0 -48 -36 -80t-105 -32q-34 0 -65.5 11t-44.5 19.5t-20 15.5l41 60q38 -31 87 -31q59 0 59 40q0 35 -49 38h-49v21l52 90h-126z" />
    <glyph glyph-name="acute" unicode="&#xb4;" horiz-adv-x="247" 
d="M210 558l-95 -139h-76v19l33 139h138v-19z" />
    <glyph glyph-name="mu" unicode="&#xb5;" horiz-adv-x="510" 
d="M186 -192h-120v538h121v-187q0 -31 16 -49.5t46 -18.5t48 17t20 42v196h120v-346h-82l-20 46h-5q-30 -54 -110 -54q-19 0 -34 3v-187z" />
    <glyph glyph-name="paragraph" unicode="&#xb6;" horiz-adv-x="504" 
d="M297 -144v251h-29q-109 0 -174.5 52.5t-65.5 149.5q0 93 62 144.5t171 51.5h157v-649h-121z" />
    <glyph glyph-name="periodcentered" unicode="&#xb7;" horiz-adv-x="199" 
d="M26 358q0 31 21 52t52 21t52.5 -21t21.5 -52t-21.5 -52t-52.5 -21t-52 21t-21 52z" />
    <glyph glyph-name="cedilla" unicode="&#xb8;" horiz-adv-x="216" 
d="M79 -74l-21 24l26 53h57l-14 -33q29 0 47 -17t18 -47q0 -35 -23 -55.5t-65 -20.5q-27 0 -48.5 9t-29.5 17l-9 9l24 42q23 -23 60 -23q34 0 34 25q0 23 -31 23q-7 0 -13.5 -1.5t-8.5 -2.5z" />
    <glyph glyph-name="onesuperior" unicode="&#xb9;" horiz-adv-x="209" 
d="M16 598v70h147v-326h-80v256h-67z" />
    <glyph glyph-name="ordmasculine" unicode="&#xba;" horiz-adv-x="403" 
d="M201 613q76 0 126 -48t50 -127q0 -76 -50 -123.5t-126 -47.5t-125.5 47.5t-49.5 123.5q0 79 49.5 127t125.5 48zM201 530q-36 0 -57.5 -25t-21.5 -66q0 -39 21.5 -63.5t57.5 -24.5q37 0 58 24t21 64q0 41 -21 66t-58 25z" />
    <glyph glyph-name="guillemotright" unicode="&#xbb;" horiz-adv-x="456" 
d="M233 182v-21l-106 -154h-101v9l102 153v7l-102 151v9h101zM430 182v-21l-106 -154h-101v9l102 153v7l-102 151v9h101z" />
    <glyph glyph-name="onequarter" unicode="&#xbc;" horiz-adv-x="645" 
d="M101 -3l-58 48l469 564l59 -48zM316 74v50l187 202h60v-187h51v-65h-51v-74h-76v74h-171zM32 530v70h148v-326h-80v256h-68zM411 137v-1l34 3h42v83h-1l-53 -62z" />
    <glyph glyph-name="onehalf" unicode="&#xbd;" horiz-adv-x="720" 
d="M106 -3l-57 48l469 564l58 -48zM428 20v-20h261v69h-119l62 68q41 46 41 90q0 47 -31.5 77.5t-96.5 30.5q-34 0 -65 -11.5t-45 -23.5l-14 -12l41 -63q44 33 75 33q23 0 36 -12t13 -31q0 -23 -27 -52zM35 530v70h148v-326h-80v256h-68z" />
    <glyph glyph-name="threequarters" unicode="&#xbe;" horiz-adv-x="733" 
d="M196 -3l-58 48l469 564l59 -48zM48 530v70h241v-19l-62 -107q76 -15 76 -96q0 -48 -36 -80t-104 -32q-34 0 -65.5 11t-44.5 19.5t-20 15.5l41 60q38 -31 86 -31q60 0 60 40q0 38 -54 38h-44v21l52 90h-126zM402 69v51l187 201h60v-187h51v-65h-51v-69h-76v69h-171z
M497 132v-1l34 3h42v83h-1l-53 -62z" />
    <glyph glyph-name="questiondown" unicode="&#xbf;" horiz-adv-x="393" 
d="M323 116l41 -93q-57 -31 -154 -31q-80 0 -126.5 42t-46.5 104q0 39 12.5 69t31.5 50.5t38.5 38t36 41t21.5 50.5l3 24h79v-33q0 -36 -16 -67t-34.5 -50t-34.5 -45.5t-16 -53.5q0 -32 22 -51.5t57 -19.5q23 0 44.5 6.5t31.5 12.5zM288 543q0 -30 -20.5 -50t-50.5 -20
q-29 0 -49.5 20t-20.5 50q0 29 20.5 49.5t49.5 20.5t50 -20.5t21 -49.5z" />
    <glyph glyph-name="Agrave" unicode="&#xc0;" horiz-adv-x="618" 
d="M-10 0l308 600h21l309 -600h-137l-39 82h-287l-38 -82h-137zM403 185l-91 196h-8l-91 -196l-7 -13h204zM267 638l-94 139v19h138l33 -139v-19h-77z" />
    <glyph glyph-name="Aacute" unicode="&#xc1;" horiz-adv-x="618" 
d="M-10 0l308 600h21l309 -600h-137l-39 82h-287l-38 -82h-137zM403 185l-91 196h-8l-91 -196l-7 -13h204zM442 777l-95 -139h-76v19l33 139h138v-19z" />
    <glyph glyph-name="Acircumflex" unicode="&#xc2;" horiz-adv-x="618" 
d="M382 638l-72 82l-73 -82h-77v19l87 139h126l86 -139v-19h-77zM-10 0l308 600h21l309 -600h-137l-39 82h-287l-38 -82h-137zM403 185l-91 196h-8l-91 -196l-7 -13h204z" />
    <glyph glyph-name="Atilde" unicode="&#xc3;" horiz-adv-x="618" 
d="M-10 0l308 600h21l309 -600h-137l-39 82h-287l-38 -82h-137zM403 185l-91 196h-8l-91 -196l-7 -13h204zM379 634q-33 0 -72 20t-53 20q-23 0 -32 -28l-4 -15l-84 7l6 33q15 93 99 93q32 0 70.5 -20t53.5 -20q25 0 32 29l4 15l84 -8l-5 -33q-7 -43 -32 -68t-67 -25z" />
    <glyph glyph-name="Adieresis" unicode="&#xc4;" horiz-adv-x="618" 
d="M156 731q0 24 18 42t41 18q24 0 42 -18t18 -42q0 -23 -18 -41t-42 -18q-23 0 -41 18t-18 41zM342 731q0 24 18.5 42t41.5 18q24 0 42 -18t18 -42q0 -23 -18 -41t-42 -18q-23 0 -41.5 18t-18.5 41zM-10 0l308 600h21l309 -600h-137l-39 82h-287l-38 -82h-137zM403 185
l-91 196h-8l-91 -196l-7 -13h204z" />
    <glyph glyph-name="Aring" unicode="&#xc5;" horiz-adv-x="620" 
d="M-9 0l282 550q-32 11 -51.5 37t-19.5 60q0 44 31 73.5t77 29.5q45 0 76 -30t31 -73q0 -34 -20 -60.5t-51 -37.5l283 -549h-137l-39 82h-287l-38 -82h-137zM404 185l-91 196h-8l-91 -196l-7 -13h204zM343 647q0 15 -9 24.5t-24 9.5t-24 -9.5t-9 -24.5q0 -14 9 -23.5
t24 -9.5t24 9.5t9 23.5z" />
    <glyph glyph-name="AE" unicode="&#xc6;" horiz-adv-x="923" 
d="M-19 0l423 600h483v-106h-344v-148h284v-99h-284v-141h344v-106h-465v82h-237l-53 -82h-151zM412 418l-168 -246h178v246h-10z" />
    <glyph glyph-name="Ccedilla" unicode="&#xc7;" horiz-adv-x="582" 
d="M319 -74l-21 24l19 39q-129 11 -206 99t-77 212q0 133 87.5 223t231.5 90q41 0 78 -7.5t60 -18.5t41 -22t26 -19l7 -7l-69 -93q-7 6 -19.5 14.5t-49.5 22.5t-72 14q-86 0 -141 -55.5t-55 -141.5t55 -142t141 -56q40 0 75.5 13t50.5 26l15 13l69 -93q-7 -7 -20.5 -18.5
t-63 -31.5t-107.5 -23l-7 -18q29 0 47 -17t18 -47q0 -35 -23 -55.5t-65 -20.5q-27 0 -48.5 9t-29.5 17l-9 9l24 42q23 -23 60 -23q34 0 34 25q0 23 -31 23q-7 0 -13.5 -1.5t-8.5 -2.5z" />
    <glyph glyph-name="Egrave" unicode="&#xc8;" horiz-adv-x="573" 
d="M477 348v-99h-284v-143h345v-106h-466v600h466v-106h-345v-146h284zM277 637l-94 139v19h138l33 -139v-19h-77z" />
    <glyph glyph-name="Eacute" unicode="&#xc9;" horiz-adv-x="573" 
d="M428 777l-95 -139h-76v19l33 139h138v-19zM477 348v-99h-284v-143h345v-106h-466v600h466v-106h-345v-146h284z" />
    <glyph glyph-name="Ecircumflex" unicode="&#xca;" horiz-adv-x="573" 
d="M379 638l-72 82l-73 -82h-77v19l87 139h126l86 -139v-19h-77zM477 348v-99h-284v-143h345v-106h-466v600h466v-106h-345v-146h284z" />
    <glyph glyph-name="Edieresis" unicode="&#xcb;" horiz-adv-x="573" 
d="M163 705q0 24 18 42t41 18q24 0 42 -18t18 -42q0 -23 -18 -41t-42 -18q-23 0 -41 18t-18 41zM349 705q0 24 18.5 42t41.5 18q24 0 42 -18t18 -42q0 -23 -18 -41t-42 -18q-23 0 -41.5 18t-18.5 41zM477 348v-99h-284v-143h345v-106h-466v600h466v-106h-345v-146h284z" />
    <glyph glyph-name="Igrave" unicode="&#xcc;" horiz-adv-x="266" 
d="M193 600v-600h-121v600h121zM92 637l-94 139v19h138l33 -139v-19h-77z" />
    <glyph glyph-name="Iacute" unicode="&#xcd;" horiz-adv-x="266" 
d="M193 600v-600h-121v600h121zM267 777l-95 -139h-76v19l33 139h138v-19z" />
    <glyph glyph-name="Icircumflex" unicode="&#xce;" horiz-adv-x="266" 
d="M206 638l-72 82l-73 -82h-77v19l87 139h126l86 -139v-19h-77zM193 600v-600h-121v600h121z" />
    <glyph glyph-name="Idieresis" unicode="&#xcf;" horiz-adv-x="266" 
d="M-19 705q0 24 18 42t41 18q24 0 42 -18t18 -42q0 -23 -18 -41t-42 -18q-23 0 -41 18t-18 41zM167 705q0 24 18.5 42t41.5 18q24 0 42 -18t18 -42q0 -23 -18 -41t-42 -18q-23 0 -41.5 18t-18.5 41zM193 600v-600h-121v600h121z" />
    <glyph glyph-name="Eth" unicode="&#xd0;" horiz-adv-x="670" 
d="M9 266v67h70v267h236q146 0 232.5 -83t86.5 -217t-86.5 -217t-232.5 -83h-236v266h-70zM307 494h-107v-161h101v-67h-101v-160h107q90 0 146 51t56 143t-56 143t-146 51z" />
    <glyph glyph-name="Ntilde" unicode="&#xd1;" horiz-adv-x="697" 
d="M624 599v-599h-29l-402 366v-366h-121v600h30l402 -358v357h120zM412 649q-33 0 -72 20t-53 20q-23 0 -32 -28l-4 -15l-84 7l6 33q15 93 99 93q32 0 70.5 -20t53.5 -20q25 0 32 29l4 15l84 -8l-5 -33q-7 -43 -32 -68t-67 -25z" />
    <glyph glyph-name="Ograve" unicode="&#xd2;" horiz-adv-x="704" 
d="M311 638l-94 139v19h138l33 -139v-19h-77zM351 -13q-143 0 -230 90t-87 223t87 223t230 90q144 0 231 -89.5t87 -223.5t-87 -223.5t-231 -89.5zM351 103q85 0 139.5 55.5t54.5 141.5t-54.5 141.5t-139.5 55.5q-84 0 -138 -55.5t-54 -141.5t54 -141.5t138 -55.5z" />
    <glyph glyph-name="Oacute" unicode="&#xd3;" horiz-adv-x="704" 
d="M480 777l-95 -139h-76v19l33 139h138v-19zM351 -13q-143 0 -230 90t-87 223t87 223t230 90q144 0 231 -89.5t87 -223.5t-87 -223.5t-231 -89.5zM351 103q85 0 139.5 55.5t54.5 141.5t-54.5 141.5t-139.5 55.5q-84 0 -138 -55.5t-54 -141.5t54 -141.5t138 -55.5z" />
    <glyph glyph-name="Ocircumflex" unicode="&#xd4;" horiz-adv-x="704" 
d="M424 638l-72 82l-73 -82h-77v19l87 139h126l86 -139v-19h-77zM351 -13q-143 0 -230 90t-87 223t87 223t230 90q144 0 231 -89.5t87 -223.5t-87 -223.5t-231 -89.5zM351 103q85 0 139.5 55.5t54.5 141.5t-54.5 141.5t-139.5 55.5q-84 0 -138 -55.5t-54 -141.5t54 -141.5
t138 -55.5z" />
    <glyph glyph-name="Otilde" unicode="&#xd5;" horiz-adv-x="704" 
d="M351 -13q-143 0 -230 90t-87 223t87 223t230 90q144 0 231 -89.5t87 -223.5t-87 -223.5t-231 -89.5zM351 103q85 0 139.5 55.5t54.5 141.5t-54.5 141.5t-139.5 55.5q-84 0 -138 -55.5t-54 -141.5t54 -141.5t138 -55.5zM423 648q-33 0 -72 20t-53 20q-23 0 -32 -28l-4 -15
l-84 7l6 33q15 93 99 93q32 0 70.5 -20t53.5 -20q25 0 32 29l4 15l84 -8l-5 -33q-7 -43 -32 -68t-67 -25z" />
    <glyph glyph-name="Odieresis" unicode="&#xd6;" horiz-adv-x="704" 
d="M198 704q0 24 18 42t41 18q24 0 42 -18t18 -42q0 -23 -18 -41t-42 -18q-23 0 -41 18t-18 41zM384 704q0 24 18.5 42t41.5 18q24 0 42 -18t18 -42q0 -23 -18 -41t-42 -18q-23 0 -41.5 18t-18.5 41zM351 -13q-143 0 -230 90t-87 223t87 223t230 90q144 0 231 -89.5
t87 -223.5t-87 -223.5t-231 -89.5zM351 103q85 0 139.5 55.5t54.5 141.5t-54.5 141.5t-139.5 55.5q-84 0 -138 -55.5t-54 -141.5t54 -141.5t138 -55.5z" />
    <glyph glyph-name="multiply" unicode="&#xd7;" horiz-adv-x="513" 
d="M113 92l-68 68l143 143l-143 144l68 68l143 -144l144 144l68 -68l-144 -144l144 -143l-68 -68l-144 143z" />
    <glyph glyph-name="Oslash" unicode="&#xd8;" horiz-adv-x="702" 
d="M350 -13q-120 0 -204 66l-61 -59l-46 47l60 59q-66 83 -66 200q0 133 87 223t230 90q122 0 205 -67l53 52l46 -47l-52 -51q66 -83 66 -200q0 -134 -87 -223.5t-231 -89.5zM158 300q0 -63 31 -113l278 273q-51 37 -117 37q-84 0 -138 -55.5t-54 -141.5zM350 103
q85 0 139.5 55.5t54.5 141.5q0 62 -32 112l-278 -273q49 -36 116 -36z" />
    <glyph glyph-name="Ugrave" unicode="&#xd9;" horiz-adv-x="663" 
d="M332 -13q-123 0 -196 75.5t-73 193.5v344h121v-344q0 -66 38.5 -109.5t109.5 -43.5q72 0 109 43t37 110v344h121v-344q0 -119 -71.5 -194t-195.5 -75zM293 638l-94 139v19h138l33 -139v-19h-77z" />
    <glyph glyph-name="Uacute" unicode="&#xda;" horiz-adv-x="663" 
d="M465 777l-95 -139h-76v19l33 139h138v-19zM332 -13q-123 0 -196 75.5t-73 193.5v344h121v-344q0 -66 38.5 -109.5t109.5 -43.5q72 0 109 43t37 110v344h121v-344q0 -119 -71.5 -194t-195.5 -75z" />
    <glyph glyph-name="Ucircumflex" unicode="&#xdb;" horiz-adv-x="663" 
d="M404 638l-72 82l-73 -82h-77v19l87 139h126l86 -139v-19h-77zM332 -13q-123 0 -196 75.5t-73 193.5v344h121v-344q0 -66 38.5 -109.5t109.5 -43.5q72 0 109 43t37 110v344h121v-344q0 -119 -71.5 -194t-195.5 -75z" />
    <glyph glyph-name="Udieresis" unicode="&#xdc;" horiz-adv-x="663" 
d="M177 706q0 24 18 42t41 18q24 0 42 -18t18 -42q0 -23 -18 -41t-42 -18q-23 0 -41 18t-18 41zM363 706q0 24 18.5 42t41.5 18q24 0 42 -18t18 -42q0 -23 -18 -41t-42 -18q-23 0 -41.5 18t-18.5 41zM332 -13q-123 0 -196 75.5t-73 193.5v344h121v-344q0 -66 38.5 -109.5
t109.5 -43.5q72 0 109 43t37 110v344h121v-344q0 -119 -71.5 -194t-195.5 -75z" />
    <glyph glyph-name="Yacute" unicode="&#xdd;" horiz-adv-x="563" 
d="M306 391l123 209h140l-227 -371v-229h-121v230l-225 370h140l124 -209l17 -38h11zM418 777l-95 -139h-76v19l33 139h138v-19z" />
    <glyph glyph-name="Thorn" unicode="&#xde;" horiz-adv-x="611" 
d="M193 600v-91h151q114 0 179.5 -54.5t65.5 -151.5q0 -103 -69 -158.5t-184 -55.5h-143v-89h-121v600h121zM464 298q0 51 -33 78t-92 27h-146v-211h147q124 0 124 106z" />
    <glyph glyph-name="germandbls" unicode="&#xdf;" horiz-adv-x="506" 
d="M276 105h-53v32l70 116h-124v-253h-121v438q0 194 185 194q20 0 40 -3.5t29 -6.5l10 -4l-31 -103q-17 7 -37 7q-37 0 -56 -17.5t-19 -57.5v-101h294v-20l-92 -150q108 -22 108 -132q0 -71 -51 -110.5t-136 -39.5q-31 0 -58.5 4.5t-39.5 9.5l-12 4l26 85q35 -13 69 -13
t53 17t19 45q0 59 -73 59z" />
    <glyph glyph-name="agrave" unicode="&#xe0;" horiz-adv-x="425" 
d="M24 99q0 49 38.5 77.5t106.5 28.5q71 0 95 -24h4v15q0 63 -90 63q-24 0 -47.5 -6t-34.5 -12l-12 -6l-36 87q61 32 152 32q93 0 138 -43.5t45 -120.5v-190h-87l-12 36h-6q-26 -44 -115 -44q-63 0 -101 30t-38 77zM138 108q0 -18 15.5 -29.5t44.5 -11.5q31 0 49.5 13
t18.5 29q0 17 -18.5 28t-49.5 11q-29 0 -44.5 -11t-15.5 -29zM169 419l-94 139v19h138l33 -139v-19h-77z" />
    <glyph glyph-name="aacute" unicode="&#xe1;" horiz-adv-x="425" 
d="M24 99q0 49 38.5 77.5t106.5 28.5q71 0 95 -24h4v15q0 63 -90 63q-24 0 -47.5 -6t-34.5 -12l-12 -6l-36 87q61 32 152 32q93 0 138 -43.5t45 -120.5v-190h-87l-12 36h-6q-26 -44 -115 -44q-63 0 -101 30t-38 77zM138 108q0 -18 15.5 -29.5t44.5 -11.5q31 0 49.5 13
t18.5 29q0 17 -18.5 28t-49.5 11q-29 0 -44.5 -11t-15.5 -29zM332 558l-95 -139h-76v19l33 139h138v-19z" />
    <glyph glyph-name="acircumflex" unicode="&#xe2;" horiz-adv-x="425" 
d="M24 99q0 49 38.5 77.5t106.5 28.5q71 0 95 -24h4v15q0 63 -90 63q-24 0 -47.5 -6t-34.5 -12l-12 -6l-36 87q61 32 152 32q93 0 138 -43.5t45 -120.5v-190h-87l-12 36h-6q-26 -44 -115 -44q-63 0 -101 30t-38 77zM138 108q0 -18 15.5 -29.5t44.5 -11.5q31 0 49.5 13
t18.5 29q0 17 -18.5 28t-49.5 11q-29 0 -44.5 -11t-15.5 -29zM279 419l-72 82l-73 -82h-77v19l87 139h126l86 -139v-19h-77z" />
    <glyph glyph-name="atilde" unicode="&#xe3;" horiz-adv-x="425" 
d="M24 99q0 49 38.5 77.5t106.5 28.5q71 0 95 -24h4v15q0 63 -90 63q-24 0 -47.5 -6t-34.5 -12l-12 -6l-36 87q61 32 152 32q93 0 138 -43.5t45 -120.5v-190h-87l-12 36h-6q-26 -44 -115 -44q-63 0 -101 30t-38 77zM138 108q0 -18 15.5 -29.5t44.5 -11.5q31 0 49.5 13
t18.5 29q0 17 -18.5 28t-49.5 11q-29 0 -44.5 -11t-15.5 -29zM279 428q-33 0 -72 20t-53 20q-23 0 -32 -28l-4 -15l-84 7l6 33q15 93 99 93q32 0 70.5 -20t53.5 -20q25 0 32 29l4 15l84 -8l-5 -33q-7 -43 -32 -68t-67 -25z" />
    <glyph glyph-name="adieresis" unicode="&#xe4;" horiz-adv-x="425" 
d="M24 99q0 49 38.5 77.5t106.5 28.5q71 0 95 -24h4v15q0 63 -90 63q-24 0 -47.5 -6t-34.5 -12l-12 -6l-36 87q61 32 152 32q93 0 138 -43.5t45 -120.5v-190h-87l-12 36h-6q-26 -44 -115 -44q-63 0 -101 30t-38 77zM138 108q0 -18 15.5 -29.5t44.5 -11.5q31 0 49.5 13
t18.5 29q0 17 -18.5 28t-49.5 11q-29 0 -44.5 -11t-15.5 -29zM60 483q0 24 18 42t41 18q24 0 42 -18t18 -42q0 -23 -18 -41t-42 -18q-23 0 -41 18t-18 41zM246 483q0 24 18.5 42t41.5 18q24 0 42 -18t18 -42q0 -23 -18 -41t-42 -18q-23 0 -41.5 18t-18.5 41z" />
    <glyph glyph-name="aring" unicode="&#xe5;" horiz-adv-x="425" 
d="M24 99q0 49 38.5 77.5t106.5 28.5q71 0 95 -24h4v15q0 63 -90 63q-24 0 -47.5 -6t-34.5 -12l-12 -6l-36 87q61 32 152 32q93 0 138 -43.5t45 -120.5v-190h-87l-12 36h-6q-26 -44 -115 -44q-63 0 -101 30t-38 77zM138 108q0 -18 15.5 -29.5t44.5 -11.5q31 0 49.5 13
t18.5 29q0 17 -18.5 28t-49.5 11q-29 0 -44.5 -11t-15.5 -29zM205 418q-46 0 -77 29.5t-31 73.5t31 73.5t77 29.5q45 0 76 -30t31 -73t-31 -73t-76 -30zM238 521q0 15 -9 24.5t-24 9.5t-24 -9.5t-9 -24.5q0 -14 9 -23.5t24 -9.5t24 9.5t9 23.5z" />
    <glyph glyph-name="ae" unicode="&#xe6;" horiz-adv-x="662" 
d="M265 180h2v14q0 65 -89 65q-24 0 -47.5 -5.5t-35.5 -11.5l-12 -6l-35 87q65 31 152 31q89 0 136 -42q53 42 125 42q81 0 129 -48.5t48 -129.5l-1 -28h-249q14 -66 91 -66q26 0 49 6t34 12l10 6l37 -78q-6 -4 -17 -10.5t-49.5 -17t-82.5 -10.5q-80 0 -131 45
q-51 -43 -140 -43q-84 0 -124.5 30.5t-40.5 79.5q0 47 38 75t104 28q34 0 58.5 -6.5t32.5 -12.5zM137 107q0 -42 62 -42q32 0 51.5 12.5t19.5 30.5q0 17 -20 28.5t-51 11.5q-62 0 -62 -41zM460 271q-59 0 -72 -65h140q-2 29 -20 47t-48 18z" />
    <glyph glyph-name="ccedilla" unicode="&#xe7;" horiz-adv-x="359" 
d="M191 -74l-21 24l22 45q-76 10 -121 59t-45 119q0 78 55.5 129.5t144.5 51.5q34 0 62.5 -7t39.5 -15l12 -7l-34 -88q-27 18 -69 18q-40 0 -65 -22.5t-25 -59.5t25 -59.5t65 -22.5q19 0 36 4.5t25 8.5l8 5l32 -88q-29 -23 -90 -28l-9 -23q29 0 47 -17t18 -47
q0 -35 -23 -55.5t-65 -20.5q-27 0 -48.5 9t-29.5 17l-9 9l24 42q23 -23 60 -23q34 0 34 25q0 23 -31 23q-7 0 -13.5 -1.5t-8.5 -2.5z" />
    <glyph glyph-name="egrave" unicode="&#xe8;" horiz-adv-x="415" 
d="M325 105l38 -75q-5 -4 -14.5 -11t-43.5 -18t-74 -11q-94 0 -149 52t-55 131t52.5 130t135.5 51q82 0 129.5 -49t47.5 -129l-1 -25h-248q13 -69 93 -69q25 0 47.5 6t32.5 12zM214 267q-57 0 -70 -57h135q-3 25 -20.5 41t-44.5 16zM177 419l-94 139v19h138l33 -139v-19h-77
z" />
    <glyph glyph-name="eacute" unicode="&#xe9;" horiz-adv-x="415" 
d="M345 558l-95 -139h-76v19l33 139h138v-19zM325 105l38 -75q-5 -4 -14.5 -11t-43.5 -18t-74 -11q-94 0 -149 52t-55 131t52.5 130t135.5 51q82 0 129.5 -49t47.5 -129l-1 -25h-248q13 -69 93 -69q25 0 47.5 6t32.5 12zM214 267q-57 0 -70 -57h135q-3 25 -20.5 41t-44.5 16
z" />
    <glyph glyph-name="ecircumflex" unicode="&#xea;" horiz-adv-x="415" 
d="M288 419l-72 82l-73 -82h-77v19l87 139h126l86 -139v-19h-77zM325 105l38 -75q-5 -4 -14.5 -11t-43.5 -18t-74 -11q-94 0 -149 52t-55 131t52.5 130t135.5 51q82 0 129.5 -49t47.5 -129l-1 -25h-248q13 -69 93 -69q25 0 47.5 6t32.5 12zM214 267q-57 0 -70 -57h135
q-3 25 -20.5 41t-44.5 16z" />
    <glyph glyph-name="edieresis" unicode="&#xeb;" horiz-adv-x="415" 
d="M64 483q0 24 18 42t41 18q24 0 42 -18t18 -42q0 -23 -18 -41t-42 -18q-23 0 -41 18t-18 41zM250 483q0 24 18.5 42t41.5 18q24 0 42 -18t18 -42q0 -23 -18 -41t-42 -18q-23 0 -41.5 18t-18.5 41zM325 105l38 -75q-5 -4 -14.5 -11t-43.5 -18t-74 -11q-94 0 -149 52
t-55 131t52.5 130t135.5 51q82 0 129.5 -49t47.5 -129l-1 -25h-248q13 -69 93 -69q25 0 47.5 6t32.5 12zM214 267q-57 0 -70 -57h135q-3 25 -20.5 41t-44.5 16z" />
    <glyph glyph-name="igrave" unicode="&#xec;" horiz-adv-x="215" 
d="M48 0v346h120v-346h-120zM67 419l-94 139v19h138l33 -139v-19h-77z" />
    <glyph glyph-name="iacute" unicode="&#xed;" horiz-adv-x="215" 
d="M240 558l-95 -139h-76v19l33 139h138v-19zM48 0v346h120v-346h-120z" />
    <glyph glyph-name="icircumflex" unicode="&#xee;" horiz-adv-x="215" 
d="M181 419l-72 82l-73 -82h-77v19l87 139h126l86 -139v-19h-77zM48 0v346h120v-346h-120z" />
    <glyph glyph-name="idieresis" unicode="&#xef;" horiz-adv-x="215" 
d="M-44 483q0 24 18 42t41 18q24 0 42 -18t18 -42q0 -23 -18 -41t-42 -18q-23 0 -41 18t-18 41zM142 483q0 24 18.5 42t41.5 18q24 0 42 -18t18 -42q0 -23 -18 -41t-42 -18q-23 0 -41.5 18t-18.5 41zM48 0v346h120v-346h-120z" />
    <glyph glyph-name="eth" unicode="&#xf0;" horiz-adv-x="461" 
d="M107 374l-37 65l90 51l-56 97v13h112l35 -58l90 51l37 -65l-88 -50l88 -143q54 -86 54 -163q0 -83 -55.5 -132t-146.5 -49q-90 0 -146.5 49t-56.5 132q0 80 56.5 130.5t146.5 50.5h11v6q-14 16 -31 45l-13 21zM230 90q37 0 59 23t22 60q0 36 -22 58.5t-59 22.5
t-59.5 -22.5t-22.5 -58.5t22.5 -59.5t59.5 -23.5z" />
    <glyph glyph-name="ntilde" unicode="&#xf1;" horiz-adv-x="461" 
d="M48 0v346h74l18 -47h6q38 55 118 55q71 0 113 -40t42 -110v-204h-120v187q0 31 -17 49.5t-47 18.5t-47.5 -17t-19.5 -42v-196h-120zM302 428q-33 0 -72 20t-53 20q-23 0 -32 -28l-4 -15l-84 7l6 33q15 93 99 93q32 0 70.5 -20t53.5 -20q25 0 32 29l4 15l84 -8l-5 -33
q-7 -43 -32 -68t-67 -25z" />
    <glyph glyph-name="ograve" unicode="&#xf2;" horiz-adv-x="445" 
d="M419 171q0 -80 -57 -129.5t-140 -49.5t-139.5 49.5t-56.5 129.5q0 81 56.5 132t139.5 51t140 -51t57 -132zM222 87q36 0 58 23.5t22 62.5q0 38 -22 62t-58 24q-35 0 -57 -24t-22 -62q0 -39 22 -62.5t57 -23.5zM188 419l-94 139v19h138l33 -139v-19h-77z" />
    <glyph glyph-name="oacute" unicode="&#xf3;" horiz-adv-x="445" 
d="M359 558l-95 -139h-76v19l33 139h138v-19zM419 171q0 -80 -57 -129.5t-140 -49.5t-139.5 49.5t-56.5 129.5q0 81 56.5 132t139.5 51t140 -51t57 -132zM222 87q36 0 58 23.5t22 62.5q0 38 -22 62t-58 24q-35 0 -57 -24t-22 -62q0 -39 22 -62.5t57 -23.5z" />
    <glyph glyph-name="ocircumflex" unicode="&#xf4;" horiz-adv-x="445" 
d="M294 419l-72 82l-73 -82h-77v19l87 139h126l86 -139v-19h-77zM419 171q0 -80 -57 -129.5t-140 -49.5t-139.5 49.5t-56.5 129.5q0 81 56.5 132t139.5 51t140 -51t57 -132zM222 87q36 0 58 23.5t22 62.5q0 38 -22 62t-58 24q-35 0 -57 -24t-22 -62q0 -39 22 -62.5t57 -23.5
z" />
    <glyph glyph-name="otilde" unicode="&#xf5;" horiz-adv-x="445" 
d="M419 171q0 -80 -57 -129.5t-140 -49.5t-139.5 49.5t-56.5 129.5q0 81 56.5 132t139.5 51t140 -51t57 -132zM222 87q36 0 58 23.5t22 62.5q0 38 -22 62t-58 24q-35 0 -57 -24t-22 -62q0 -39 22 -62.5t57 -23.5zM293 428q-33 0 -72 20t-53 20q-23 0 -32 -28l-4 -15l-84 7
l6 33q15 93 99 93q32 0 70.5 -20t53.5 -20q25 0 32 29l4 15l84 -8l-5 -33q-7 -43 -32 -68t-67 -25z" />
    <glyph glyph-name="odieresis" unicode="&#xf6;" horiz-adv-x="445" 
d="M70 483q0 24 18 42t41 18q24 0 42 -18t18 -42q0 -23 -18 -41t-42 -18q-23 0 -41 18t-18 41zM256 483q0 24 18.5 42t41.5 18q24 0 42 -18t18 -42q0 -23 -18 -41t-42 -18q-23 0 -41.5 18t-18.5 41zM419 171q0 -80 -57 -129.5t-140 -49.5t-139.5 49.5t-56.5 129.5
q0 81 56.5 132t139.5 51t140 -51t57 -132zM222 87q36 0 58 23.5t22 62.5q0 38 -22 62t-58 24q-35 0 -57 -24t-22 -62q0 -39 22 -62.5t57 -23.5z" />
    <glyph glyph-name="divide" unicode="&#xf7;" horiz-adv-x="489" 
d="M171 120q0 31 21 52.5t52 21.5t52.5 -21.5t21.5 -52.5t-21.5 -52t-52.5 -21t-52 21t-21 52zM171 474q0 31 21 52.5t52 21.5t52.5 -21.5t21.5 -52.5t-21.5 -52t-52.5 -21t-52 21t-21 52zM40 248v97h409v-97h-409z" />
    <glyph glyph-name="oslash" unicode="&#xf8;" horiz-adv-x="445" 
d="M419 171q0 -80 -57 -129.5t-140 -49.5q-65 0 -113 30l-37 -37l-39 39l33 33q-40 48 -40 114q0 81 56.5 132t139.5 51q63 0 110 -29l43 43l39 -39l-39 -39q44 -51 44 -119zM222 87q36 0 58 23.5t22 62.5q0 21 -8 39l-114 -115q17 -10 42 -10zM143 173q0 -18 5 -36l113 113
q-16 9 -39 9q-35 0 -57 -24t-22 -62z" />
    <glyph glyph-name="ugrave" unicode="&#xf9;" horiz-adv-x="460" 
d="M413 346v-346h-82l-20 46h-5q-30 -54 -110 -54q-71 0 -112.5 40t-41.5 110v204h121v-187q0 -31 16 -49.5t46 -18.5t48 17t20 42v196h120zM187 419l-94 139v19h138l33 -139v-19h-77z" />
    <glyph glyph-name="uacute" unicode="&#xfa;" horiz-adv-x="460" 
d="M363 558l-95 -139h-76v19l33 139h138v-19zM413 346v-346h-82l-20 46h-5q-30 -54 -110 -54q-71 0 -112.5 40t-41.5 110v204h121v-187q0 -31 16 -49.5t46 -18.5t48 17t20 42v196h120z" />
    <glyph glyph-name="ucircumflex" unicode="&#xfb;" horiz-adv-x="460" 
d="M301 419l-72 82l-73 -82h-77v19l87 139h126l86 -139v-19h-77zM413 346v-346h-82l-20 46h-5q-30 -54 -110 -54q-71 0 -112.5 40t-41.5 110v204h121v-187q0 -31 16 -49.5t46 -18.5t48 17t20 42v196h120z" />
    <glyph glyph-name="udieresis" unicode="&#xfc;" horiz-adv-x="460" 
d="M81 483q0 24 18 42t41 18q24 0 42 -18t18 -42q0 -23 -18 -41t-42 -18q-23 0 -41 18t-18 41zM267 483q0 24 18.5 42t41.5 18q24 0 42 -18t18 -42q0 -23 -18 -41t-42 -18q-23 0 -41.5 18t-18.5 41zM413 346v-346h-82l-20 46h-5q-30 -54 -110 -54q-71 0 -112.5 40t-41.5 110
v204h121v-187q0 -31 16 -49.5t46 -18.5t48 17t20 42v196h120z" />
    <glyph glyph-name="yacute" unicode="&#xfd;" horiz-adv-x="415" 
d="M412 346l-244 -538l-127 -1l112 227l-149 312h132l67 -172q7 -17 7 -31h6q0 13 7 31l67 172h122zM345 558l-95 -139h-76v19l33 139h138v-19z" />
    <glyph glyph-name="thorn" unicode="&#xfe;" horiz-adv-x="467" 
d="M172 37h-5v-229h-120v792h120v-287h4q3 5 9.5 11.5t31.5 18t57 11.5q75 0 122 -49t47 -131q0 -80 -48 -131t-121 -51q-33 0 -57.5 11.5t-31.5 22.5zM161 172q0 -37 21.5 -59t57.5 -22q34 0 55.5 22.5t21.5 58.5t-21.5 59.5t-55.5 23.5q-36 0 -57.5 -22.5t-21.5 -60.5z
" />
    <glyph glyph-name="ydieresis" unicode="&#xff;" horiz-adv-x="415" 
d="M412 346l-244 -538l-127 -1l112 227l-149 312h132l67 -172q7 -17 7 -31h6q0 13 7 31l67 172h122zM60 483q0 24 18 42t41 18q24 0 42 -18t18 -42q0 -23 -18 -41t-42 -18q-23 0 -41 18t-18 41zM246 483q0 24 18.5 42t41.5 18q24 0 42 -18t18 -42q0 -23 -18 -41t-42 -18
q-23 0 -41.5 18t-18.5 41z" />
    <glyph glyph-name="Amacron" unicode="&#x100;" horiz-adv-x="618" 
d="M-10 0l308 600h21l309 -600h-137l-39 82h-287l-38 -82h-137zM403 185l-91 196h-8l-91 -196l-7 -13h204zM169 641v72h279v-72h-279z" />
    <glyph glyph-name="amacron" unicode="&#x101;" horiz-adv-x="425" 
d="M24 99q0 49 38.5 77.5t106.5 28.5q71 0 95 -24h4v15q0 63 -90 63q-24 0 -47.5 -6t-34.5 -12l-12 -6l-36 87q61 32 152 32q93 0 138 -43.5t45 -120.5v-190h-87l-12 36h-6q-26 -44 -115 -44q-63 0 -101 30t-38 77zM138 108q0 -18 15.5 -29.5t44.5 -11.5q31 0 49.5 13
t18.5 29q0 17 -18.5 28t-49.5 11q-29 0 -44.5 -11t-15.5 -29zM75 440v72h279v-72h-279z" />
    <glyph glyph-name="Abreve" unicode="&#x102;" horiz-adv-x="618" 
d="M-10 0l308 600h21l309 -600h-137l-39 82h-287l-38 -82h-137zM403 185l-91 196h-8l-91 -196l-7 -13h204zM366 803h94q0 -62 -39.5 -106t-112.5 -44q-74 0 -114 44t-40 106h93q0 -33 16 -50t44 -17q27 0 43 17.5t16 49.5z" />
    <glyph glyph-name="abreve" unicode="&#x103;" horiz-adv-x="425" 
d="M24 99q0 49 38.5 77.5t106.5 28.5q71 0 95 -24h4v15q0 63 -90 63q-24 0 -47.5 -6t-34.5 -12l-12 -6l-36 87q61 32 152 32q93 0 138 -43.5t45 -120.5v-190h-87l-12 36h-6q-26 -44 -115 -44q-63 0 -101 30t-38 77zM138 108q0 -18 15.5 -29.5t44.5 -11.5q31 0 49.5 13
t18.5 29q0 17 -18.5 28t-49.5 11q-29 0 -44.5 -11t-15.5 -29zM273 578h94q0 -62 -39.5 -106t-112.5 -44q-74 0 -114 44t-40 106h93q0 -33 16 -50t44 -17q27 0 43 17.5t16 49.5z" />
    <glyph glyph-name="Aogonek" unicode="&#x104;" horiz-adv-x="616" 
d="M613 -64l34 -43q-25 -33 -77 -33q-41 0 -63.5 21t-22.5 55q0 38 31 64h-25l-39 82h-287l-38 -82h-137l308 600h21l309 -600h-36q-5 -1 -12.5 -5t-17.5 -16t-10 -27q0 -31 32 -31q8 0 15.5 3.5t11.5 7.5zM402 185l-91 196h-8l-91 -196l-7 -13h204z" />
    <glyph glyph-name="aogonek" unicode="&#x105;" horiz-adv-x="425" 
d="M404 -64l34 -43q-25 -33 -77 -33q-41 0 -63.5 21t-22.5 55q0 38 31 64h-10l-12 36h-6q-26 -44 -115 -44q-63 0 -101 30t-38 77q0 49 38.5 77.5t106.5 28.5q71 0 95 -24h4v15q0 63 -90 63q-24 0 -47.5 -6t-34.5 -12l-12 -6l-36 87q61 32 152 32q93 0 138 -43.5t45 -120.5
v-190q-5 -1 -13 -5.5t-18 -16t-10 -26.5q0 -31 32 -31q8 0 15.5 3.5t10.5 7.5zM138 108q0 -18 15.5 -29.5t44.5 -11.5q31 0 49.5 13t18.5 29q0 17 -18.5 28t-49.5 11q-29 0 -44.5 -11t-15.5 -29z" />
    <glyph glyph-name="Cacute" unicode="&#x106;" horiz-adv-x="582" 
d="M462 784l-95 -139h-76v19l33 139h138v-19zM496 154l69 -93l-8 -8t-24.5 -18t-42 -22.5t-59.5 -17.5t-78 -8q-144 0 -231.5 90t-87.5 223t87.5 223t231.5 90q41 0 78 -7.5t60 -18.5t41 -22t26 -19l7 -7l-69 -93q-7 6 -19.5 14.5t-49.5 22.5t-72 14q-86 0 -141 -55.5
t-55 -141.5t55 -142t141 -56q40 0 75.5 13t50.5 26z" />
    <glyph glyph-name="cacute" unicode="&#x107;" horiz-adv-x="359" 
d="M359 558l-95 -139h-76v19l33 139h138v-19zM226 -8q-89 0 -144.5 51.5t-55.5 129.5t55.5 129.5t144.5 51.5q34 0 62.5 -7t39.5 -15l12 -7l-34 -88q-27 18 -69 18q-40 0 -65 -22.5t-25 -59.5t25 -59.5t65 -22.5q19 0 36 4.5t25 8.5l8 5l32 -88q-35 -29 -112 -29z" />
    <glyph glyph-name="Ccircumflex" unicode="&#x108;" horiz-adv-x="582" 
d="M403 638l-72 82l-73 -82h-77v19l87 139h126l86 -139v-19h-77zM496 154l69 -93l-8 -8t-24.5 -18t-42 -22.5t-59.5 -17.5t-78 -8q-144 0 -231.5 90t-87.5 223t87.5 223t231.5 90q41 0 78 -7.5t60 -18.5t41 -22t26 -19l7 -7l-69 -93q-7 6 -19.5 14.5t-49.5 22.5t-72 14
q-86 0 -141 -55.5t-55 -141.5t55 -142t141 -56q40 0 75.5 13t50.5 26z" />
    <glyph glyph-name="ccircumflex" unicode="&#x109;" horiz-adv-x="359" 
d="M287 419l-72 82l-73 -82h-77v19l87 139h126l86 -139v-19h-77zM226 -8q-89 0 -144.5 51.5t-55.5 129.5t55.5 129.5t144.5 51.5q34 0 62.5 -7t39.5 -15l12 -7l-34 -88q-27 18 -69 18q-40 0 -65 -22.5t-25 -59.5t25 -59.5t65 -22.5q19 0 36 4.5t25 8.5l8 5l32 -88
q-35 -29 -112 -29z" />
    <glyph glyph-name="Cdotaccent" unicode="&#x10a;" horiz-adv-x="582" 
d="M496 154l69 -93l-8 -8t-24.5 -18t-42 -22.5t-59.5 -17.5t-78 -8q-144 0 -231.5 90t-87.5 223t87.5 223t231.5 90q41 0 78 -7.5t60 -18.5t41 -22t26 -19l7 -7l-69 -93q-7 6 -19.5 14.5t-49.5 22.5t-72 14q-86 0 -141 -55.5t-55 -141.5t55 -142t141 -56q40 0 75.5 13
t50.5 26zM272 740q0 30 20.5 51t50.5 21t51 -21t21 -51q0 -31 -21 -51.5t-51 -20.5t-50.5 20.5t-20.5 51.5z" />
    <glyph glyph-name="cdotaccent" unicode="&#x10b;" horiz-adv-x="359" 
d="M226 -8q-89 0 -144.5 51.5t-55.5 129.5t55.5 129.5t144.5 51.5q34 0 62.5 -7t39.5 -15l12 -7l-34 -88q-27 18 -69 18q-40 0 -65 -22.5t-25 -59.5t25 -59.5t65 -22.5q19 0 36 4.5t25 8.5l8 5l32 -88q-35 -29 -112 -29zM133 500q0 30 20.5 51t50.5 21t51 -21t21 -51
q0 -31 -21 -51.5t-51 -20.5t-50.5 20.5t-20.5 51.5z" />
    <glyph glyph-name="Ccaron" unicode="&#x10c;" horiz-adv-x="582" 
d="M337 729l72 82h77v-19l-86 -139h-126l-87 139v19h77zM496 154l69 -93l-8 -8t-24.5 -18t-42 -22.5t-59.5 -17.5t-78 -8q-144 0 -231.5 90t-87.5 223t87.5 223t231.5 90q41 0 78 -7.5t60 -18.5t41 -22t26 -19l7 -7l-69 -93q-7 6 -19.5 14.5t-49.5 22.5t-72 14
q-86 0 -141 -55.5t-55 -141.5t55 -142t141 -56q40 0 75.5 13t50.5 26z" />
    <glyph glyph-name="ccaron" unicode="&#x10d;" horiz-adv-x="359" 
d="M208 495l72 82h77v-19l-86 -139h-126l-87 139v19h77zM226 -8q-89 0 -144.5 51.5t-55.5 129.5t55.5 129.5t144.5 51.5q34 0 62.5 -7t39.5 -15l12 -7l-34 -88q-27 18 -69 18q-40 0 -65 -22.5t-25 -59.5t25 -59.5t65 -22.5q19 0 36 4.5t25 8.5l8 5l32 -88q-35 -29 -112 -29z
" />
    <glyph glyph-name="Dcaron" unicode="&#x10e;" horiz-adv-x="662" 
d="M312 729l72 82h77v-19l-86 -139h-126l-87 139v19h77zM627 300q0 -134 -86.5 -217t-232.5 -83h-236v600h236q146 0 232.5 -83t86.5 -217zM300 494h-107v-388h107q90 0 146 51t56 143t-56 143t-146 51z" />
    <glyph glyph-name="dcaron" unicode="&#x10f;" horiz-adv-x="467" 
d="M454 599q0 30 21 50t57 20t58 -22.5t22 -57.5v-2q-1 -32 -29 -81l-28 -50h-79l27 45l20 25v4q-32 3 -50.5 22t-18.5 47zM294 315h5v353h120v-668h-79l-19 44h-5q-3 -6 -10.5 -14.5t-37 -23t-68.5 -14.5q-75 0 -123.5 49t-48.5 131q0 80 47.5 131t120.5 51q33 0 57.5 -10
t32.5 -20zM305 174q0 37 -21.5 59t-57.5 22q-34 0 -55.5 -22.5t-21.5 -58.5t21.5 -59.5t55.5 -23.5q36 0 57.5 22.5t21.5 60.5z" />
    <glyph glyph-name="Dcroat" unicode="&#x110;" horiz-adv-x="670" 
d="M9 266v67h70v267h236q146 0 232.5 -83t86.5 -217t-86.5 -217t-232.5 -83h-236v266h-70zM307 494h-107v-161h101v-67h-101v-160h107q90 0 146 51t56 143t-56 143t-146 51z" />
    <glyph glyph-name="dcroat" unicode="&#x111;" horiz-adv-x="467" 
d="M189 454v58h110v156h120v-156h57v-58h-57v-454h-79l-19 44h-5q-3 -6 -10.5 -14.5t-37 -23t-68.5 -14.5q-75 0 -123.5 49t-48.5 131q0 80 47.5 131t120.5 51q33 0 57.5 -10t32.5 -20l8 -9h5v139h-110zM305 174q0 37 -21.5 59t-57.5 22q-34 0 -55.5 -22.5t-21.5 -58.5
t21.5 -59.5t55.5 -23.5q36 0 57.5 22.5t21.5 60.5z" />
    <glyph glyph-name="Emacron" unicode="&#x112;" horiz-adv-x="573" 
d="M477 348v-99h-284v-143h345v-106h-466v600h466v-106h-345v-146h284zM164 684v72h279v-72h-279z" />
    <glyph glyph-name="emacron" unicode="&#x113;" horiz-adv-x="415" 
d="M325 105l38 -75q-5 -4 -14.5 -11t-43.5 -18t-74 -11q-94 0 -149 52t-55 131t52.5 130t135.5 51q82 0 129.5 -49t47.5 -129l-1 -25h-248q13 -69 93 -69q25 0 47.5 6t32.5 12zM214 267q-57 0 -70 -57h135q-3 25 -20.5 41t-44.5 16zM73 440v72h279v-72h-279z" />
    <glyph glyph-name="Ebreve" unicode="&#x114;" horiz-adv-x="573" 
d="M477 348v-99h-284v-143h345v-106h-466v600h466v-106h-345v-146h284zM367 803h94q0 -62 -39.5 -106t-112.5 -44q-74 0 -114 44t-40 106h93q0 -33 16 -50t44 -17q27 0 43 17.5t16 49.5z" />
    <glyph glyph-name="ebreve" unicode="&#x115;" horiz-adv-x="415" 
d="M325 105l38 -75q-5 -4 -14.5 -11t-43.5 -18t-74 -11q-94 0 -149 52t-55 131t52.5 130t135.5 51q82 0 129.5 -49t47.5 -129l-1 -25h-248q13 -69 93 -69q25 0 47.5 6t32.5 12zM214 267q-57 0 -70 -57h135q-3 25 -20.5 41t-44.5 16zM272 578h94q0 -62 -39.5 -106t-112.5 -44
q-74 0 -114 44t-40 106h93q0 -33 16 -50t44 -17q27 0 43 17.5t16 49.5z" />
    <glyph glyph-name="Edotaccent" unicode="&#x116;" horiz-adv-x="573" 
d="M477 348v-99h-284v-143h345v-106h-466v600h466v-106h-345v-146h284zM245 725q0 30 20.5 51t50.5 21t51 -21t21 -51q0 -31 -21 -51.5t-51 -20.5t-50.5 20.5t-20.5 51.5z" />
    <glyph glyph-name="edotaccent" unicode="&#x117;" horiz-adv-x="415" 
d="M325 105l38 -75q-5 -4 -14.5 -11t-43.5 -18t-74 -11q-94 0 -149 52t-55 131t52.5 130t135.5 51q82 0 129.5 -49t47.5 -129l-1 -25h-248q13 -69 93 -69q25 0 47.5 6t32.5 12zM214 267q-57 0 -70 -57h135q-3 25 -20.5 41t-44.5 16zM143 500q0 30 20.5 51t50.5 21t51 -21
t21 -51q0 -31 -21 -51.5t-51 -20.5t-50.5 20.5t-20.5 51.5z" />
    <glyph glyph-name="Eogonek" unicode="&#x118;" horiz-adv-x="573" 
d="M477 348v-99h-284v-143h345v-106h-49q-5 -2 -11.5 -5t-18 -15.5t-11.5 -27.5q0 -31 32 -31q8 0 15.5 3.5t10.5 7.5l4 4l34 -43q-25 -33 -77 -33q-41 0 -63.5 21t-22.5 55q0 38 31 64h-340v600h466v-106h-345v-146h284z" />
    <glyph glyph-name="eogonek" unicode="&#x119;" horiz-adv-x="415" 
d="M325 105l38 -75q-24 -22 -70 -33q-30 -15 -30 -43q0 -31 32 -31q8 0 15.5 3.5t11.5 7.5l3 4l34 -43q-25 -33 -77 -33q-41 0 -63.5 21t-22.5 55q0 29 19 53q-87 4 -137.5 55t-50.5 127q0 79 52.5 130t135.5 51q82 0 129.5 -49t47.5 -129l-1 -25h-248q13 -69 93 -69
q25 0 47.5 6t32.5 12zM214 267q-57 0 -70 -57h135q-3 25 -20.5 41t-44.5 16z" />
    <glyph glyph-name="Ecaron" unicode="&#x11a;" horiz-adv-x="573" 
d="M306 717l72 82h77v-19l-86 -139h-126l-87 139v19h77zM477 348v-99h-284v-143h345v-106h-466v600h466v-106h-345v-146h284z" />
    <glyph glyph-name="ecaron" unicode="&#x11b;" horiz-adv-x="415" 
d="M216 495l72 82h77v-19l-86 -139h-126l-87 139v19h77zM325 105l38 -75q-5 -4 -14.5 -11t-43.5 -18t-74 -11q-94 0 -149 52t-55 131t52.5 130t135.5 51q82 0 129.5 -49t47.5 -129l-1 -25h-248q13 -69 93 -69q25 0 47.5 6t32.5 12zM214 267q-57 0 -70 -57h135
q-3 25 -20.5 41t-44.5 16z" />
    <glyph glyph-name="Gcircumflex" unicode="&#x11c;" horiz-adv-x="663" 
d="M416 637l-72 82l-73 -82h-77v19l87 139h126l86 -139v-19h-77zM336 249v99h300v-59q0 -137 -74 -219.5t-211 -82.5q-144 0 -230.5 89.5t-86.5 223.5t87 223.5t232 89.5q44 0 83 -8t64 -19t43 -22t26 -19l8 -8l-71 -92q-7 6 -19.5 14.5t-53 23t-82.5 14.5
q-85 0 -138.5 -55.5t-53.5 -141.5t53 -142t138 -56q71 0 113.5 39.5t44.5 99.5v8h-172z" />
    <glyph glyph-name="gcircumflex" unicode="&#x11d;" horiz-adv-x="418" 
d="M289 419l-72 82l-73 -82h-77v19l87 139h126l86 -139v-19h-77zM216 -238q-96 0 -147 36t-51 90q0 63 62 90v7q-54 24 -54 74q0 53 59 83q-27 33 -27 76q0 59 43 97.5t107 38.5l191 -11v-82h-54v-5q14 -12 14 -45q0 -51 -41 -86.5t-109 -35.5q-31 0 -58 9q-22 -10 -22 -26
q0 -30 87 -30q202 0 202 -135q0 -63 -52 -104t-150 -41zM216 -47q-43 0 -63.5 -16t-20.5 -38t20 -37t64 -15t64.5 15t20.5 37q0 23 -20.5 38.5t-64.5 15.5zM209 269q-25 0 -39.5 -14t-14.5 -36q0 -21 14.5 -35t39.5 -14t40 14t15 35q0 22 -14.5 36t-40.5 14z" />
    <glyph glyph-name="Gbreve" unicode="&#x11e;" horiz-adv-x="663" 
d="M336 249v99h300v-59q0 -137 -74 -219.5t-211 -82.5q-144 0 -230.5 89.5t-86.5 223.5t87 223.5t232 89.5q44 0 83 -8t64 -19t43 -22t26 -19l8 -8l-71 -92q-7 6 -19.5 14.5t-53 23t-82.5 14.5q-85 0 -138.5 -55.5t-53.5 -141.5t53 -142t138 -56q71 0 113.5 39.5t44.5 99.5
v8h-172zM404 803h94q0 -62 -39.5 -106t-112.5 -44q-74 0 -114 44t-40 106h93q0 -33 16 -50t44 -17q27 0 43 17.5t16 49.5z" />
    <glyph glyph-name="gbreve" unicode="&#x11f;" horiz-adv-x="418" 
d="M216 -238q-96 0 -147 36t-51 90q0 63 62 90v7q-54 24 -54 74q0 53 59 83q-27 33 -27 76q0 59 43 97.5t107 38.5l191 -11v-82h-54v-5q14 -12 14 -45q0 -51 -41 -86.5t-109 -35.5q-31 0 -58 9q-22 -10 -22 -26q0 -30 87 -30q202 0 202 -135q0 -63 -52 -104t-150 -41z
M216 -47q-43 0 -63.5 -16t-20.5 -38t20 -37t64 -15t64.5 15t20.5 37q0 23 -20.5 38.5t-64.5 15.5zM209 269q-25 0 -39.5 -14t-14.5 -36q0 -21 14.5 -35t39.5 -14t40 14t15 35q0 22 -14.5 36t-40.5 14zM275 578h94q0 -62 -39.5 -106t-112.5 -44q-74 0 -114 44t-40 106h93
q0 -33 16 -50t44 -17q27 0 43 17.5t16 49.5z" />
    <glyph glyph-name="Gdotaccent" unicode="&#x120;" horiz-adv-x="663" 
d="M336 249v99h300v-59q0 -137 -74 -219.5t-211 -82.5q-144 0 -230.5 89.5t-86.5 223.5t87 223.5t232 89.5q44 0 83 -8t64 -19t43 -22t26 -19l8 -8l-71 -92q-7 6 -19.5 14.5t-53 23t-82.5 14.5q-85 0 -138.5 -55.5t-53.5 -141.5t53 -142t138 -56q71 0 113.5 39.5t44.5 99.5
v8h-172zM269 725q0 30 20.5 51t50.5 21t51 -21t21 -51q0 -31 -21 -51.5t-51 -20.5t-50.5 20.5t-20.5 51.5z" />
    <glyph glyph-name="gdotaccent" unicode="&#x121;" horiz-adv-x="418" 
d="M216 -238q-96 0 -147 36t-51 90q0 63 62 90v7q-54 24 -54 74q0 53 59 83q-27 33 -27 76q0 59 43 97.5t107 38.5l191 -11v-82h-54v-5q14 -12 14 -45q0 -51 -41 -86.5t-109 -35.5q-31 0 -58 9q-22 -10 -22 -26q0 -30 87 -30q202 0 202 -135q0 -63 -52 -104t-150 -41z
M216 -47q-43 0 -63.5 -16t-20.5 -38t20 -37t64 -15t64.5 15t20.5 37q0 23 -20.5 38.5t-64.5 15.5zM209 269q-25 0 -39.5 -14t-14.5 -36q0 -21 14.5 -35t39.5 -14t40 14t15 35q0 22 -14.5 36t-40.5 14zM150 500q0 30 20.5 51t50.5 21t51 -21t21 -51q0 -31 -21 -51.5
t-51 -20.5t-50.5 20.5t-20.5 51.5z" />
    <glyph glyph-name="Gcommaaccent" unicode="&#x122;" horiz-adv-x="663" 
d="M271 -107q0 30 21 50t57 20t58 -22.5t22 -57.5v-2q-1 -32 -29 -81l-28 -50h-79l27 45l20 25v4q-32 3 -50.5 22t-18.5 47zM336 249v99h300v-59q0 -137 -74 -219.5t-211 -82.5q-144 0 -230.5 89.5t-86.5 223.5t87 223.5t232 89.5q44 0 83 -8t64 -19t43 -22t26 -19l8 -8
l-71 -92q-7 6 -19.5 14.5t-53 23t-82.5 14.5q-85 0 -138.5 -55.5t-53.5 -141.5t53 -142t138 -56q71 0 113.5 39.5t44.5 99.5v8h-172z" />
    <glyph glyph-name="gcommaaccent" unicode="&#x123;" horiz-adv-x="418" 
d="M289 492q0 -30 -21 -50t-57 -20t-58 22.5t-22 57.5v2q1 32 29 81l28 50h79l-27 -45l-20 -25v-4q32 -3 50.5 -22t18.5 -47zM216 -238q-96 0 -147 36t-51 90q0 63 62 90v7q-54 24 -54 74q0 53 59 83q-27 33 -27 76q0 59 43 97.5t107 38.5l191 -11v-82h-54v-5q14 -12 14 -45
q0 -51 -41 -86.5t-109 -35.5q-31 0 -58 9q-22 -10 -22 -26q0 -30 87 -30q202 0 202 -135q0 -63 -52 -104t-150 -41zM216 -47q-43 0 -63.5 -16t-20.5 -38t20 -37t64 -15t64.5 15t20.5 37q0 23 -20.5 38.5t-64.5 15.5zM209 269q-25 0 -39.5 -14t-14.5 -36q0 -21 14.5 -35
t39.5 -14t40 14t15 35q0 22 -14.5 36t-40.5 14z" />
    <glyph glyph-name="Hcircumflex" unicode="&#x124;" horiz-adv-x="682" 
d="M408 638l-72 82l-73 -82h-77v19l87 139h126l86 -139v-19h-77zM610 600v-600h-121v244h-296v-244h-121v600h121v-258h296v258h121z" />
    <glyph glyph-name="hcircumflex" unicode="&#x125;" horiz-adv-x="463" 
d="M300 717l-72 82l-73 -82h-77v19l87 139h126l86 -139v-19h-77zM47 0v668h122v-353h2l1 1q39 39 100 39q67 0 107.5 -40.5t40.5 -110.5v-203h-120v186q0 31 -17 50t-47 19q-29 0 -47 -17t-20 -42v-197h-122z" />
    <glyph glyph-name="Hbar" unicode="&#x126;" horiz-adv-x="687" 
d="M613 600v-92h28v-61h-28v-447h-121v244h-296v-244h-121v447h-28v61h28v92h121v-92h296v92h121zM196 342h296v105h-296v-105z" />
    <glyph glyph-name="hbar" unicode="&#x127;" horiz-adv-x="463" 
d="M-4 454v58h51v156h122v-156h114v-58h-114v-139h2l1 1q39 39 100 39q67 0 107.5 -40.5t40.5 -110.5v-203h-120v186q0 31 -17 50t-47 19q-29 0 -47 -17t-20 -42v-197h-122v454h-51z" />
    <glyph glyph-name="Itilde" unicode="&#x128;" horiz-adv-x="266" 
d="M193 600v-600h-121v600h121zM201 649q-33 0 -72 20t-53 20q-23 0 -32 -28l-4 -15l-84 7l6 33q15 93 99 93q32 0 70.5 -20t53.5 -20q25 0 32 29l4 15l84 -8l-5 -33q-7 -43 -32 -68t-67 -25z" />
    <glyph glyph-name="itilde" unicode="&#x129;" horiz-adv-x="215" 
d="M48 0v346h120v-346h-120zM177 428q-33 0 -72 20t-53 20q-23 0 -32 -28l-4 -15l-84 7l6 33q15 93 99 93q32 0 70.5 -20t53.5 -20q25 0 32 29l4 15l84 -8l-5 -33q-7 -43 -32 -68t-67 -25z" />
    <glyph glyph-name="Imacron" unicode="&#x12a;" horiz-adv-x="266" 
d="M193 600v-600h-121v600h121zM-9 648v72h279v-72h-279z" />
    <glyph glyph-name="imacron" unicode="&#x12b;" horiz-adv-x="215" 
d="M48 0v346h120v-346h-120zM-31 440v72h279v-72h-279z" />
    <glyph glyph-name="Ibreve" unicode="&#x12c;" horiz-adv-x="266" 
d="M193 600v-600h-121v600h121zM192 803h94q0 -62 -39.5 -106t-112.5 -44q-74 0 -114 44t-40 106h93q0 -33 16 -50t44 -17q27 0 43 17.5t16 49.5z" />
    <glyph glyph-name="ibreve" unicode="&#x12d;" horiz-adv-x="215" 
d="M48 0v346h120v-346h-120zM162 578h94q0 -62 -39.5 -106t-112.5 -44q-74 0 -114 44t-40 106h93q0 -33 16 -50t44 -17q27 0 43 17.5t16 49.5z" />
    <glyph glyph-name="Iogonek" unicode="&#x12e;" horiz-adv-x="265" 
d="M213 -64l34 -43q-25 -33 -77 -33q-41 0 -63.5 21t-22.5 55q0 38 31 64h-44v600h121v-600h-1q-5 -1 -12.5 -5t-17.5 -16t-10 -27q0 -31 32 -31q8 0 15.5 3.5t11.5 7.5z" />
    <glyph glyph-name="iogonek" unicode="&#x12f;" horiz-adv-x="215" 
d="M48 0v346h120v-346q-5 -1 -13 -5.5t-18 -16t-10 -26.5q0 -31 32 -31q8 0 15.5 3.5t11.5 7.5l3 4l34 -43q-25 -33 -77 -33q-41 0 -63.5 21t-22.5 55q0 38 31 64h-43zM108 459q-29 0 -48.5 20t-19.5 49t20 49.5t48 20.5q29 0 49.5 -20.5t20.5 -49.5t-20.5 -49t-49.5 -20z
" />
    <glyph glyph-name="Idotaccent" unicode="&#x130;" horiz-adv-x="266" 
d="M193 600v-600h-121v600h121zM61 724q0 30 20.5 51t50.5 21t51 -21t21 -51q0 -31 -21 -51.5t-51 -20.5t-50.5 20.5t-20.5 51.5z" />
    <glyph glyph-name="dotlessi" unicode="&#x131;" horiz-adv-x="216" 
d="M48 0v346h120v-346h-120z" />
    <glyph glyph-name="IJ" unicode="&#x132;" horiz-adv-x="783" 
d="M193 600v-600h-121v600h121zM323 36l55 102q50 -33 105 -33q58 0 85 29t28 94v372h121v-396q-1 -97 -56.5 -157t-168.5 -60q-47 0 -89.5 12.5t-57 21t-22.5 15.5z" />
    <glyph glyph-name="ij" unicode="&#x133;" horiz-adv-x="496" 
d="M109 459q-29 0 -48.5 20t-19.5 49t20 49.5t48 20.5q29 0 49.5 -20.5t20.5 -49.5t-20.5 -49t-49.5 -20zM49 0v346h120v-346h-120zM258 -185l17 89q11 -5 24 -5q29 0 29 33v414h121v-420q0 -127 -119 -127q-21 0 -39 4t-25 8zM388 459q-29 0 -49 20t-20 49t20 49.5t49 20.5
t49 -20.5t20 -49.5t-20 -49t-49 -20z" />
    <glyph glyph-name="Jcircumflex" unicode="&#x134;" horiz-adv-x="475" 
d="M419 637l-72 82l-73 -82h-77v19l87 139h126l86 -139v-19h-77zM15 36l55 102q50 -33 105 -33q58 0 85 29t28 94v372h121v-396q-1 -97 -56.5 -157t-168.5 -60q-47 0 -89.5 12.5t-57 21t-22.5 15.5z" />
    <glyph glyph-name="jcircumflex" unicode="&#x135;" horiz-adv-x="215" 
d="M-46 -178l31 89q15 -7 32 -7q30 0 30 41v401h121v-415q0 -61 -31.5 -96.5t-94.5 -35.5q-24 0 -46 5.5t-32 11.5zM182 419l-72 82l-73 -82h-77v19l87 139h126l86 -139v-19h-77z" />
    <glyph glyph-name="Kcommaaccent" unicode="&#x136;" horiz-adv-x="624" 
d="M243 -107q0 30 21 50t57 20t58 -22.5t22 -57.5v-2q-1 -32 -29 -81l-28 -50h-79l27 45l20 25v4q-32 3 -50.5 22t-18.5 47zM193 600v-283l274 283h148v-13l-234 -243l234 -331v-13h-146l-173 256l-103 -107v-149h-121v600h121z" />
    <glyph glyph-name="kcommaaccent" unicode="&#x137;" horiz-adv-x="427" 
d="M139 -107q0 30 21 50t57 20t58 -22.5t22 -57.5v-2q-1 -32 -29 -81l-28 -50h-79l27 45l20 25v4q-32 3 -50.5 22t-18.5 47zM274 346h133l-125 -168l141 -178h-145l-108 140h-3v-140h-120v668h120v-469h3z" />
    <glyph glyph-name="kgreenlandic" unicode="&#x138;" horiz-adv-x="428" 
d="M275 346h133l-126 -168l142 -178h-146l-107 140h-3v-140h-121v346h121v-147h2z" />
    <glyph glyph-name="Lacute" unicode="&#x139;" horiz-adv-x="525" 
d="M264 777l-95 -139h-76v19l33 139h138v-19zM513 0h-441v600h121v-494h320v-106z" />
    <glyph glyph-name="lacute" unicode="&#x13a;" horiz-adv-x="215" 
d="M240 856l-95 -139h-76v19l33 139h138v-19zM48 0v668h120v-668h-120z" />
    <glyph glyph-name="Lcommaaccent" unicode="&#x13b;" horiz-adv-x="525" 
d="M209 -107q0 30 21 50t57 20t58 -22.5t22 -57.5v-2q-1 -32 -29 -81l-28 -50h-79l27 45l20 25v4q-32 3 -50.5 22t-18.5 47zM513 0h-441v600h121v-494h320v-106z" />
    <glyph glyph-name="lcommaaccent" unicode="&#x13c;" horiz-adv-x="215" 
d="M32 -107q0 30 21 50t57 20t58 -22.5t22 -57.5v-2q-1 -32 -29 -81l-28 -50h-79l27 45l20 25v4q-32 3 -50.5 22t-18.5 47zM48 0v668h120v-668h-120z" />
    <glyph glyph-name="Lcaron" unicode="&#x13d;" horiz-adv-x="526" 
d="M305 530q0 30 21 50t57 20t58 -22.5t22 -57.5v-2q-1 -32 -29 -81l-28 -50h-79l27 45l20 25v4q-32 3 -50.5 22t-18.5 47zM513 0h-441v600h121v-494h320v-106z" />
    <glyph glyph-name="lcaron" unicode="&#x13e;" horiz-adv-x="215" 
d="M201 599q0 30 21 50t57 20t58 -22.5t22 -57.5v-2q-1 -32 -29 -81l-28 -50h-79l27 45l20 25v4q-32 3 -50.5 22t-18.5 47zM48 0v668h120v-668h-120z" />
    <glyph glyph-name="Ldot" unicode="&#x13f;" horiz-adv-x="526" 
d="M513 0h-441v600h121v-494h320v-106zM322 334q0 30 20.5 51t50.5 21t51 -21t21 -51q0 -31 -21 -51.5t-51 -20.5t-50.5 20.5t-20.5 51.5z" />
    <glyph glyph-name="ldot" unicode="&#x140;" horiz-adv-x="347" 
d="M48 0v668h120v-668h-120zM210 280q0 30 20.5 51t50.5 21t51 -21t21 -51q0 -31 -21 -51.5t-51 -20.5t-50.5 20.5t-20.5 51.5z" />
    <glyph glyph-name="Lslash" unicode="&#x141;" horiz-adv-x="535" 
d="M31 214l-31 53l82 47v286h121v-216l87 51l31 -53l-118 -69v-207h320v-106h-441v243z" />
    <glyph glyph-name="lslash" unicode="&#x142;" horiz-adv-x="270" 
d="M39 214l-28 47l80 46v361h120v-291l59 34l28 -48l-87 -50v-313h-120v244z" />
    <glyph glyph-name="Nacute" unicode="&#x143;" horiz-adv-x="697" 
d="M465 777l-95 -139h-76v19l33 139h138v-19zM624 599v-599h-29l-402 366v-366h-121v600h30l402 -358v357h120z" />
    <glyph glyph-name="nacute" unicode="&#x144;" horiz-adv-x="461" 
d="M390 558l-95 -139h-76v19l33 139h138v-19zM48 0v346h74l18 -47h6q38 55 118 55q71 0 113 -40t42 -110v-204h-120v187q0 31 -17 49.5t-47 18.5t-47.5 -17t-19.5 -42v-196h-120z" />
    <glyph glyph-name="Ncommaaccent" unicode="&#x145;" horiz-adv-x="697" 
d="M292 -107q0 30 21 50t57 20t58 -22.5t22 -57.5v-2q-1 -32 -29 -81l-28 -50h-79l27 45l20 25v4q-32 3 -50.5 22t-18.5 47zM624 599v-599h-29l-402 366v-366h-121v600h30l402 -358v357h120z" />
    <glyph glyph-name="ncommaaccent" unicode="&#x146;" horiz-adv-x="461" 
d="M154 -107q0 30 21 50t57 20t58 -22.5t22 -57.5v-2q-1 -32 -29 -81l-28 -50h-79l27 45l20 25v4q-32 3 -50.5 22t-18.5 47zM48 0v346h74l18 -47h6q38 55 118 55q71 0 113 -40t42 -110v-204h-120v187q0 31 -17 49.5t-47 18.5t-47.5 -17t-19.5 -42v-196h-120z" />
    <glyph glyph-name="Ncaron" unicode="&#x147;" horiz-adv-x="697" 
d="M339 714l72 82h77v-19l-86 -139h-126l-87 139v19h77zM624 599v-599h-29l-402 366v-366h-121v600h30l402 -358v357h120z" />
    <glyph glyph-name="ncaron" unicode="&#x148;" horiz-adv-x="461" 
d="M242 495l72 82h77v-19l-86 -139h-126l-87 139v19h77zM48 0v346h74l18 -47h6q38 55 118 55q71 0 113 -40t42 -110v-204h-120v187q0 31 -17 49.5t-47 18.5t-47.5 -17t-19.5 -42v-196h-120z" />
    <glyph glyph-name="napostrophe" unicode="&#x149;" horiz-adv-x="461" 
d="M20 584q0 30 21 50t57 20t58 -22.5t22 -57.5v-2q-1 -32 -29 -81l-28 -50h-79l27 45l20 25v4q-32 3 -50.5 22t-18.5 47zM48 0v346h74l18 -47h6q38 55 118 55q71 0 113 -40t42 -110v-204h-120v187q0 31 -17 49.5t-47 18.5t-47.5 -17t-19.5 -42v-196h-120z" />
    <glyph glyph-name="Eng" unicode="&#x14a;" horiz-adv-x="697" 
d="M624 599v-668q0 -61 -31.5 -96.5t-94.5 -35.5q-24 0 -46 5.5t-32 11.5l-10 6l31 89q14 -7 31 -7q32 0 32 36v143l-311 283v-366h-121v600h30l402 -358v357h120z" />
    <glyph glyph-name="eng" unicode="&#x14b;" horiz-adv-x="461" 
d="M48 0v346h74l18 -47h6q38 55 118 55q71 0 113 -40t42 -110v-266q0 -61 -31 -96.5t-94 -35.5q-24 0 -46 6t-32 12l-10 5l31 90q16 -8 32 -8q30 0 30 41v235q0 31 -17 49.5t-47 18.5t-47.5 -17t-19.5 -42v-196h-120z" />
    <glyph glyph-name="Omacron" unicode="&#x14c;" horiz-adv-x="704" 
d="M209 679v72h279v-72h-279zM351 -13q-143 0 -230 90t-87 223t87 223t230 90q144 0 231 -89.5t87 -223.5t-87 -223.5t-231 -89.5zM351 103q85 0 139.5 55.5t54.5 141.5t-54.5 141.5t-139.5 55.5q-84 0 -138 -55.5t-54 -141.5t54 -141.5t138 -55.5z" />
    <glyph glyph-name="omacron" unicode="&#x14d;" horiz-adv-x="445" 
d="M82 440v72h279v-72h-279zM419 171q0 -80 -57 -129.5t-140 -49.5t-139.5 49.5t-56.5 129.5q0 81 56.5 132t139.5 51t140 -51t57 -132zM222 87q36 0 58 23.5t22 62.5q0 38 -22 62t-58 24q-35 0 -57 -24t-22 -62q0 -39 22 -62.5t57 -23.5z" />
    <glyph glyph-name="Obreve" unicode="&#x14e;" horiz-adv-x="704" 
d="M351 -13q-143 0 -230 90t-87 223t87 223t230 90q144 0 231 -89.5t87 -223.5t-87 -223.5t-231 -89.5zM351 103q85 0 139.5 55.5t54.5 141.5t-54.5 141.5t-139.5 55.5q-84 0 -138 -55.5t-54 -141.5t54 -141.5t138 -55.5zM407 804h94q0 -62 -39.5 -106t-112.5 -44
q-74 0 -114 44t-40 106h93q0 -33 16 -50t44 -17q27 0 43 17.5t16 49.5z" />
    <glyph glyph-name="obreve" unicode="&#x14f;" horiz-adv-x="445" 
d="M419 171q0 -80 -57 -129.5t-140 -49.5t-139.5 49.5t-56.5 129.5q0 81 56.5 132t139.5 51t140 -51t57 -132zM222 87q36 0 58 23.5t22 62.5q0 38 -22 62t-58 24q-35 0 -57 -24t-22 -62q0 -39 22 -62.5t57 -23.5zM281 578h94q0 -62 -39.5 -106t-112.5 -44q-74 0 -114 44
t-40 106h93q0 -33 16 -50t44 -17q27 0 43 17.5t16 49.5z" />
    <glyph glyph-name="Ohungarumlaut" unicode="&#x150;" horiz-adv-x="704" 
d="M378 776l-78 -139h-76v19l33 139h121v-19zM551 776l-78 -139h-77v19l33 139h122v-19zM351 -13q-143 0 -230 90t-87 223t87 223t230 90q144 0 231 -89.5t87 -223.5t-87 -223.5t-231 -89.5zM351 103q85 0 139.5 55.5t54.5 141.5t-54.5 141.5t-139.5 55.5q-84 0 -138 -55.5
t-54 -141.5t54 -141.5t138 -55.5z" />
    <glyph glyph-name="ohungarumlaut" unicode="&#x151;" horiz-adv-x="445" 
d="M249 558l-78 -139h-76v19l33 139h121v-19zM422 558l-78 -139h-77v19l33 139h122v-19zM419 171q0 -80 -57 -129.5t-140 -49.5t-139.5 49.5t-56.5 129.5q0 81 56.5 132t139.5 51t140 -51t57 -132zM222 87q36 0 58 23.5t22 62.5q0 38 -22 62t-58 24q-35 0 -57 -24t-22 -62
q0 -39 22 -62.5t57 -23.5z" />
    <glyph glyph-name="OE" unicode="&#x152;" horiz-adv-x="1047" 
d="M350 -13q-143 0 -230 90t-87 223t87 223t230 90q112 0 196 -60v47h466v-106h-345v-146h284v-99h-284v-143h345v-106h-466v47q-82 -60 -196 -60zM350 103q85 0 139.5 55.5t54.5 141.5t-54.5 141.5t-139.5 55.5q-84 0 -138 -55.5t-54 -141.5t54 -141.5t138 -55.5z" />
    <glyph glyph-name="oe" unicode="&#x153;" horiz-adv-x="692" 
d="M602 105l38 -75q-5 -4 -14.5 -11t-43.5 -18t-74 -11q-91 0 -147 50q-54 -48 -138 -48q-83 0 -139.5 49.5t-56.5 129.5q0 81 56.5 132t139.5 51q81 0 137 -48q53 48 132 48q82 0 129.5 -49t47.5 -129l-1 -25h-248q13 -69 93 -69q25 0 47.5 6t31.5 12zM223 87q36 0 58 23.5
t22 62.5q0 38 -22 62t-58 24q-35 0 -57 -24t-22 -62q0 -39 22 -62.5t57 -23.5zM491 267q-57 0 -70 -57h135q-3 25 -20.5 41t-44.5 16z" />
    <glyph glyph-name="Racute" unicode="&#x154;" horiz-adv-x="642" 
d="M424 777l-95 -139h-76v19l33 139h138v-19zM72 0v600h271q115 0 180.5 -54t65.5 -152q0 -129 -113 -183v-9l143 -190v-12h-137l-133 183h-156v-183h-121zM464 389q0 51 -33 78t-92 27h-146v-209h149q58 0 90 26t32 78z" />
    <glyph glyph-name="racute" unicode="&#x155;" horiz-adv-x="323" 
d="M296 558l-95 -139h-76v19l33 139h138v-19zM323 325l-43 -96q-18 14 -47 14q-27 0 -45 -17.5t-20 -45.5v-180h-120v346h74l18 -47h5q35 52 99 52q25 0 44.5 -6.5t27.5 -12.5z" />
    <glyph glyph-name="Rcommaaccent" unicode="&#x156;" horiz-adv-x="642" 
d="M248 -107q0 30 21 50t57 20t58 -22.5t22 -57.5v-2q-1 -32 -29 -81l-28 -50h-79l27 45l20 25v4q-32 3 -50.5 22t-18.5 47zM72 0v600h271q115 0 180.5 -54t65.5 -152q0 -129 -113 -183v-9l143 -190v-12h-137l-133 183h-156v-183h-121zM464 389q0 51 -33 78t-92 27h-146
v-209h149q58 0 90 26t32 78z" />
    <glyph glyph-name="rcommaaccent" unicode="&#x157;" horiz-adv-x="323" 
d="M33 -107q0 30 21 50t57 20t58 -22.5t22 -57.5v-2q-1 -32 -29 -81l-28 -50h-79l27 45l20 25v4q-32 3 -50.5 22t-18.5 47zM323 325l-43 -96q-18 14 -47 14q-27 0 -45 -17.5t-20 -45.5v-180h-120v346h74l18 -47h5q35 52 99 52q25 0 44.5 -6.5t27.5 -12.5z" />
    <glyph glyph-name="Rcaron" unicode="&#x158;" horiz-adv-x="642" 
d="M304 716l72 82h77v-19l-86 -139h-126l-87 139v19h77zM72 0v600h271q115 0 180.5 -54t65.5 -152q0 -129 -113 -183v-9l143 -190v-12h-137l-133 183h-156v-183h-121zM464 389q0 51 -33 78t-92 27h-146v-209h149q58 0 90 26t32 78z" />
    <glyph glyph-name="rcaron" unicode="&#x159;" horiz-adv-x="323" 
d="M177 495l72 82h77v-19l-86 -139h-126l-87 139v19h77zM323 325l-43 -96q-18 14 -47 14q-27 0 -45 -17.5t-20 -45.5v-180h-120v346h74l18 -47h5q35 52 99 52q25 0 44.5 -6.5t27.5 -12.5z" />
    <glyph glyph-name="Sacute" unicode="&#x15a;" horiz-adv-x="546" 
d="M389 777l-95 -139h-76v19l33 139h138v-19zM31 64l66 92l25 -16t62 -26t90 -16q102 0 102 67q0 30 -26.5 48.5t-103.5 39.5q-107 30 -157 71.5t-50 110.5q0 82 60.5 130t173.5 48q72 0 128.5 -15.5t77.5 -31.5l21 -15l-65 -99q-7 6 -20.5 14t-55.5 22t-86 14
q-98 0 -98 -60q0 -26 26 -42t99 -36q112 -30 163 -73.5t51 -114.5q0 -84 -60 -136.5t-177 -52.5q-73 0 -134.5 19.5t-86.5 38.5z" />
    <glyph glyph-name="sacute" unicode="&#x15b;" horiz-adv-x="382" 
d="M311 558l-95 -139h-76v19l33 139h138v-19zM28 28l31 82q57 -33 115 -33q48 0 48 28q0 16 -30 26t-65.5 16.5t-65.5 31t-30 65.5q0 50 38.5 80t117.5 30q48 0 88 -7t56 -15l16 -7l-34 -86q-41 29 -110 29q-44 0 -44 -25q0 -15 30.5 -25t67.5 -17t67.5 -32t30.5 -66
q0 -50 -42 -80.5t-125 -30.5q-48 0 -88 9t-56 18z" />
    <glyph glyph-name="Scircumflex" unicode="&#x15c;" horiz-adv-x="546" 
d="M341 640l-72 82l-73 -82h-77v19l87 139h126l86 -139v-19h-77zM31 64l66 92l25 -16t62 -26t90 -16q102 0 102 67q0 30 -26.5 48.5t-103.5 39.5q-107 30 -157 71.5t-50 110.5q0 82 60.5 130t173.5 48q72 0 128.5 -15.5t77.5 -31.5l21 -15l-65 -99q-7 6 -20.5 14t-55.5 22
t-86 14q-98 0 -98 -60q0 -26 26 -42t99 -36q112 -30 163 -73.5t51 -114.5q0 -84 -60 -136.5t-177 -52.5q-73 0 -134.5 19.5t-86.5 38.5z" />
    <glyph glyph-name="scircumflex" unicode="&#x15d;" horiz-adv-x="382" 
d="M271 419l-72 82l-73 -82h-77v19l87 139h126l86 -139v-19h-77zM28 28l31 82q57 -33 115 -33q48 0 48 28q0 16 -30 26t-65.5 16.5t-65.5 31t-30 65.5q0 50 38.5 80t117.5 30q48 0 88 -7t56 -15l16 -7l-34 -86q-41 29 -110 29q-44 0 -44 -25q0 -15 30.5 -25t67.5 -17
t67.5 -32t30.5 -66q0 -50 -42 -80.5t-125 -30.5q-48 0 -88 9t-56 18z" />
    <glyph glyph-name="Scedilla" unicode="&#x15e;" horiz-adv-x="546" 
d="M243 -74l-21 24l18 38q-39 3 -75 12t-59.5 19.5t-41 20.5t-25.5 17l-8 7l66 92l25 -16t62 -26t90 -16q102 0 102 67q0 30 -26.5 48.5t-103.5 39.5q-107 30 -157 71.5t-50 110.5q0 82 60.5 130t173.5 48q72 0 128.5 -15.5t77.5 -31.5l21 -15l-65 -99q-7 6 -20.5 14
t-55.5 22t-86 14q-98 0 -98 -60q0 -26 26 -42t99 -36q112 -30 163 -73.5t51 -114.5q0 -80 -54.5 -131.5t-161.5 -56.5l-7 -18q29 0 47 -17t18 -47q0 -35 -23 -55.5t-65 -20.5q-27 0 -48.5 9t-29.5 17l-9 9l24 42q23 -23 60 -23q34 0 34 25q0 23 -31 23q-7 0 -13.5 -1.5
t-8.5 -2.5z" />
    <glyph glyph-name="scedilla" unicode="&#x15f;" horiz-adv-x="382" 
d="M159 -74l-21 24l21 43q-40 3 -72.5 11.5t-45.5 15.5l-13 8l31 82q57 -33 115 -33q48 0 48 28q0 16 -30 26t-65.5 16.5t-65.5 31t-30 65.5q0 50 38.5 80t117.5 30q48 0 88 -7t56 -15l16 -7l-34 -86q-41 29 -110 29q-44 0 -44 -25q0 -15 30.5 -25t67.5 -17t67.5 -32
t30.5 -66q0 -46 -34.5 -75t-103.5 -34l-10 -24q29 0 47 -17t18 -47q0 -35 -23 -55.5t-65 -20.5q-27 0 -48.5 9t-29.5 17l-9 9l24 42q23 -23 60 -23q34 0 34 25q0 23 -31 23q-7 0 -13.5 -1.5t-8.5 -2.5z" />
    <glyph glyph-name="Scaron" unicode="&#x160;" horiz-adv-x="546" 
d="M270 714l72 82h77v-19l-86 -139h-126l-87 139v19h77zM31 64l66 92l25 -16t62 -26t90 -16q102 0 102 67q0 30 -26.5 48.5t-103.5 39.5q-107 30 -157 71.5t-50 110.5q0 82 60.5 130t173.5 48q72 0 128.5 -15.5t77.5 -31.5l21 -15l-65 -99q-7 6 -20.5 14t-55.5 22t-86 14
q-98 0 -98 -60q0 -26 26 -42t99 -36q112 -30 163 -73.5t51 -114.5q0 -84 -60 -136.5t-177 -52.5q-73 0 -134.5 19.5t-86.5 38.5z" />
    <glyph glyph-name="scaron" unicode="&#x161;" horiz-adv-x="382" 
d="M191 495l72 82h77v-19l-86 -139h-126l-87 139v19h77zM28 28l31 82q57 -33 115 -33q48 0 48 28q0 16 -30 26t-65.5 16.5t-65.5 31t-30 65.5q0 50 38.5 80t117.5 30q48 0 88 -7t56 -15l16 -7l-34 -86q-41 29 -110 29q-44 0 -44 -25q0 -15 30.5 -25t67.5 -17t67.5 -32
t30.5 -66q0 -50 -42 -80.5t-125 -30.5q-48 0 -88 9t-56 18z" />
    <glyph glyph-name="Tcommaaccent" unicode="&#x162;" horiz-adv-x="539" 
d="M188 -107q0 30 21 50t57 20t58 -22.5t22 -57.5v-2q-1 -32 -29 -81l-28 -50h-79l27 45l20 25v4q-32 3 -50.5 22t-18.5 47zM13 494v106h512v-106h-195v-494h-121v494h-196z" />
    <glyph glyph-name="tcommaaccent" unicode="&#x163;" horiz-adv-x="339" 
d="M100 -107q0 30 21 50t57 20t58 -22.5t22 -57.5v-2q-1 -32 -29 -81l-28 -50h-79l27 45l20 25v4q-32 3 -50.5 22t-18.5 47zM17 346h62v103h120v-103h110v-95h-110v-108q0 -50 45 -50q11 0 21.5 3t15.5 6l5 3l39 -81q-33 -32 -101 -32t-106.5 39t-38.5 108v112h-62v95z" />
    <glyph glyph-name="Tcaron" unicode="&#x164;" horiz-adv-x="539" 
d="M269 716l72 82h77v-19l-86 -139h-126l-87 139v19h77zM13 494v106h512v-106h-195v-494h-121v494h-196z" />
    <glyph glyph-name="tcaron" unicode="&#x165;" horiz-adv-x="339" 
d="M251 584q0 30 21 50t57 20t58 -22.5t22 -57.5v-2q-1 -32 -29 -81l-28 -50h-79l27 45l20 25v4q-32 3 -50.5 22t-18.5 47zM17 346h62v103h120v-103h110v-95h-110v-108q0 -50 45 -50q11 0 21.5 3t15.5 6l5 3l39 -81q-33 -32 -101 -32t-106.5 39t-38.5 108v112h-62v95z" />
    <glyph glyph-name="Tbar" unicode="&#x166;" horiz-adv-x="542" 
d="M15 494v106h512v-106h-195v-158h85v-61h-85v-275h-121v275h-88v61h88v158h-196z" />
    <glyph glyph-name="tbar" unicode="&#x167;" horiz-adv-x="342" 
d="M19 346h62v103h120v-103h110v-95h-110v-39h101v-57h-101v-12q0 -50 45 -50q11 0 21.5 3t15.5 6l5 3l39 -81q-33 -32 -101 -32t-106.5 39t-38.5 108v16h-53v57h53v39h-62v95z" />
    <glyph glyph-name="Utilde" unicode="&#x168;" horiz-adv-x="663" 
d="M332 -13q-123 0 -196 75.5t-73 193.5v344h121v-344q0 -66 38.5 -109.5t109.5 -43.5q72 0 109 43t37 110v344h121v-344q0 -119 -71.5 -194t-195.5 -75zM401 679q-33 0 -72 20t-53 20q-23 0 -32 -28l-4 -15l-84 7l6 33q15 93 99 93q32 0 70.5 -20t53.5 -20q25 0 32 29l4 15
l84 -8l-5 -33q-7 -43 -32 -68t-67 -25z" />
    <glyph glyph-name="utilde" unicode="&#x169;" horiz-adv-x="460" 
d="M413 346v-346h-82l-20 46h-5q-30 -54 -110 -54q-71 0 -112.5 40t-41.5 110v204h121v-187q0 -31 16 -49.5t46 -18.5t48 17t20 42v196h120zM303 428q-33 0 -72 20t-53 20q-23 0 -32 -28l-4 -15l-84 7l6 33q15 93 99 93q32 0 70.5 -20t53.5 -20q25 0 32 29l4 15l84 -8
l-5 -33q-7 -43 -32 -68t-67 -25z" />
    <glyph glyph-name="Umacron" unicode="&#x16a;" horiz-adv-x="663" 
d="M332 -13q-123 0 -196 75.5t-73 193.5v344h121v-344q0 -66 38.5 -109.5t109.5 -43.5q72 0 109 43t37 110v344h121v-344q0 -119 -71.5 -194t-195.5 -75zM190 671v72h279v-72h-279z" />
    <glyph glyph-name="umacron" unicode="&#x16b;" horiz-adv-x="460" 
d="M413 346v-346h-82l-20 46h-5q-30 -54 -110 -54q-71 0 -112.5 40t-41.5 110v204h121v-187q0 -31 16 -49.5t46 -18.5t48 17t20 42v196h120zM90 440v72h279v-72h-279z" />
    <glyph glyph-name="Ubreve" unicode="&#x16c;" horiz-adv-x="663" 
d="M332 -13q-123 0 -196 75.5t-73 193.5v344h121v-344q0 -66 38.5 -109.5t109.5 -43.5q72 0 109 43t37 110v344h121v-344q0 -119 -71.5 -194t-195.5 -75zM391 804h94q0 -62 -39.5 -106t-112.5 -44q-74 0 -114 44t-40 106h93q0 -33 16 -50t44 -17q27 0 43 17.5t16 49.5z" />
    <glyph glyph-name="ubreve" unicode="&#x16d;" horiz-adv-x="460" 
d="M413 346v-346h-82l-20 46h-5q-30 -54 -110 -54q-71 0 -112.5 40t-41.5 110v204h121v-187q0 -31 16 -49.5t46 -18.5t48 17t20 42v196h120zM288 578h94q0 -62 -39.5 -106t-112.5 -44q-74 0 -114 44t-40 106h93q0 -33 16 -50t44 -17q27 0 43 17.5t16 49.5z" />
    <glyph glyph-name="Uring" unicode="&#x16e;" horiz-adv-x="663" 
d="M327 626q-46 0 -77 29.5t-31 73.5t31 73.5t77 29.5q45 0 76 -30t31 -73t-31 -73t-76 -30zM360 729q0 15 -9 24.5t-24 9.5t-24 -9.5t-9 -24.5q0 -14 9 -23.5t24 -9.5t24 9.5t9 23.5zM332 -13q-123 0 -196 75.5t-73 193.5v344h121v-344q0 -66 38.5 -109.5t109.5 -43.5
q72 0 109 43t37 110v344h121v-344q0 -119 -71.5 -194t-195.5 -75z" />
    <glyph glyph-name="uring" unicode="&#x16f;" horiz-adv-x="460" 
d="M230 418q-46 0 -77 29.5t-31 73.5t31 73.5t77 29.5q45 0 76 -30t31 -73t-31 -73t-76 -30zM263 521q0 15 -9 24.5t-24 9.5t-24 -9.5t-9 -24.5q0 -14 9 -23.5t24 -9.5t24 9.5t9 23.5zM413 346v-346h-82l-20 46h-5q-30 -54 -110 -54q-71 0 -112.5 40t-41.5 110v204h121v-187
q0 -31 16 -49.5t46 -18.5t48 17t20 42v196h120z" />
    <glyph glyph-name="Uhungarumlaut" unicode="&#x170;" horiz-adv-x="663" 
d="M332 -13q-123 0 -196 75.5t-73 193.5v344h121v-344q0 -66 38.5 -109.5t109.5 -43.5q72 0 109 43t37 110v344h121v-344q0 -119 -71.5 -194t-195.5 -75zM363 777l-78 -139h-76v19l33 139h121v-19zM536 777l-78 -139h-77v19l33 139h122v-19z" />
    <glyph glyph-name="uhungarumlaut" unicode="&#x171;" horiz-adv-x="460" 
d="M413 346v-346h-82l-20 46h-5q-30 -54 -110 -54q-71 0 -112.5 40t-41.5 110v204h121v-187q0 -31 16 -49.5t46 -18.5t48 17t20 42v196h120zM253 558l-78 -139h-76v19l33 139h121v-19zM426 558l-78 -139h-77v19l33 139h122v-19z" />
    <glyph glyph-name="Uogonek" unicode="&#x172;" horiz-adv-x="663" 
d="M384 -72l34 -43q-25 -33 -77 -33q-41 0 -63.5 21t-22.5 55q0 36 29 63q-102 14 -161.5 86.5t-59.5 178.5v344h121v-344q0 -66 38.5 -109.5t109.5 -43.5q72 0 109 43t37 110v344h121v-344q0 -113 -66 -187t-180 -81q-31 -16 -31 -44q0 -31 32 -31q8 0 15.5 3.5t10.5 7.5z
" />
    <glyph glyph-name="uogonek" unicode="&#x173;" horiz-adv-x="460" 
d="M413 346v-346q-5 -1 -13 -5.5t-18 -16t-10 -26.5q0 -31 32 -31q8 0 15.5 3.5t10.5 7.5l4 4l34 -43q-25 -33 -77 -33q-41 0 -63.5 21t-22.5 55q0 38 31 64h-5l-20 46h-5q-30 -54 -110 -54q-71 0 -112.5 40t-41.5 110v204h121v-187q0 -31 16 -49.5t46 -18.5t48 17t20 42
v196h120z" />
    <glyph glyph-name="Wcircumflex" unicode="&#x174;" horiz-adv-x="827" 
d="M484 640l-72 82l-73 -82h-77v19l87 139h126l86 -139v-19h-77zM290 322l107 278h34l106 -278l22 -73h15l23 80l100 271h132l-245 -600h-38l-108 280l-18 57h-13l-18 -57l-110 -280h-36l-245 600h131l101 -271l22 -80h15z" />
    <glyph glyph-name="wcircumflex" unicode="&#x175;" horiz-adv-x="601" 
d="M373 419l-72 82l-73 -82h-77v19l87 139h126l86 -139v-19h-77zM152 0l-149 346h130l56 -172q7 -23 7 -31h7q0 8 7 31l50 172h83l50 -172q6 -22 6 -31h7q0 12 7 31l56 172h129l-149 -346h-78l-60 159q-8 21 -8 38h-5q0 -17 -8 -38l-60 -159h-78z" />
    <glyph glyph-name="Ycircumflex" unicode="&#x176;" horiz-adv-x="563" 
d="M354 638l-72 82l-73 -82h-77v19l87 139h126l86 -139v-19h-77zM306 391l123 209h140l-227 -371v-229h-121v230l-225 370h140l124 -209l17 -38h11z" />
    <glyph glyph-name="ycircumflex" unicode="&#x177;" horiz-adv-x="415" 
d="M412 346l-244 -538l-127 -1l112 227l-149 312h132l67 -172q7 -17 7 -31h6q0 13 7 31l67 172h122zM287 419l-72 82l-73 -82h-77v19l87 139h126l86 -139v-19h-77z" />
    <glyph glyph-name="Ydieresis" unicode="&#x178;" horiz-adv-x="563" 
d="M129 705q0 24 18 42t41 18q24 0 42 -18t18 -42q0 -23 -18 -41t-42 -18q-23 0 -41 18t-18 41zM315 705q0 24 18.5 42t41.5 18q24 0 42 -18t18 -42q0 -23 -18 -41t-42 -18q-23 0 -41.5 18t-18.5 41zM306 391l123 209h140l-227 -371v-229h-121v230l-225 370h140l124 -209
l17 -38h11z" />
    <glyph glyph-name="Zacute" unicode="&#x179;" horiz-adv-x="554" 
d="M405 777l-95 -139h-76v19l33 139h138v-19zM26 0v32l306 462h-295v106h488v-33l-295 -461h292v-106h-496z" />
    <glyph glyph-name="zacute" unicode="&#x17a;" horiz-adv-x="395" 
d="M325 558l-95 -139h-76v19l33 139h138v-19zM362 0h-331v51l162 198h-160v97h329v-44l-161 -205h161v-97z" />
    <glyph glyph-name="Zdotaccent" unicode="&#x17b;" horiz-adv-x="554" 
d="M26 0v32l306 462h-295v106h488v-33l-295 -461h292v-106h-496zM204 724q0 30 20.5 51t50.5 21t51 -21t21 -51q0 -31 -21 -51.5t-51 -20.5t-50.5 20.5t-20.5 51.5z" />
    <glyph glyph-name="zdotaccent" unicode="&#x17c;" horiz-adv-x="395" 
d="M362 0h-331v51l162 198h-160v97h329v-44l-161 -205h161v-97zM128 500q0 30 20.5 51t50.5 21t51 -21t21 -51q0 -31 -21 -51.5t-51 -20.5t-50.5 20.5t-20.5 51.5z" />
    <glyph glyph-name="Zcaron" unicode="&#x17d;" horiz-adv-x="554" 
d="M280 713l72 82h77v-19l-86 -139h-126l-87 139v19h77zM26 0v32l306 462h-295v106h488v-33l-295 -461h292v-106h-496z" />
    <glyph glyph-name="zcaron" unicode="&#x17e;" horiz-adv-x="395" 
d="M201 495l72 82h77v-19l-86 -139h-126l-87 139v19h77zM362 0h-331v51l162 198h-160v97h329v-44l-161 -205h161v-97z" />
    <glyph glyph-name="florin" unicode="&#x192;" horiz-adv-x="357" 
d="M101 -55v308h-73v93h73v135q0 92 44 138.5t119 46.5q56 0 88 -19l-30 -103q-23 11 -40 11q-61 0 -61 -74v-135h111v-93h-111v-322q0 -61 -31 -96.5t-95 -35.5q-24 0 -46 5.5t-31 11.5l-10 6l31 89q15 -7 31 -7q31 0 31 41z" />
    <glyph glyph-name="Aringacute" unicode="&#x1fa;" horiz-adv-x="620" 
d="M-9 0l281 548q-32 11 -52 37.5t-20 60.5q0 44 31 73.5t77 29.5q45 0 76 -30t31 -73q0 -33 -19 -59t-50 -38l283 -549h-137l-39 82h-287l-38 -82h-137zM404 185l-91 196h-8l-91 -196l-7 -13h204zM436 904l-95 -139h-76v19l33 139h138v-19zM341 646q0 15 -9 24.5t-24 9.5
t-24 -9.5t-9 -24.5q0 -14 9 -23.5t24 -9.5t24 9.5t9 23.5z" />
    <glyph glyph-name="aringacute" unicode="&#x1fb;" horiz-adv-x="425" 
d="M24 99q0 49 38.5 77.5t106.5 28.5q71 0 95 -24h4v15q0 63 -90 63q-24 0 -47.5 -6t-34.5 -12l-12 -6l-36 87q61 32 152 32q93 0 138 -43.5t45 -120.5v-190h-87l-12 36h-6q-26 -44 -115 -44q-63 0 -101 30t-38 77zM138 108q0 -18 15.5 -29.5t44.5 -11.5q31 0 49.5 13
t18.5 29q0 17 -18.5 28t-49.5 11q-29 0 -44.5 -11t-15.5 -29zM352 769l-95 -139h-76v19l33 139h138v-19zM218 402q-46 0 -77 29.5t-31 73.5t31 73.5t77 29.5q45 0 76 -30t31 -73t-31 -73t-76 -30zM251 505q0 15 -9 24.5t-24 9.5t-24 -9.5t-9 -24.5q0 -14 9 -23.5t24 -9.5
t24 9.5t9 23.5z" />
    <glyph glyph-name="AEacute" unicode="&#x1fc;" horiz-adv-x="923" 
d="M755 777l-95 -139h-76v19l33 139h138v-19zM-19 0l423 600h483v-106h-344v-148h284v-99h-284v-141h344v-106h-465v82h-237l-53 -82h-151zM412 418l-168 -246h178v246h-10z" />
    <glyph glyph-name="aeacute" unicode="&#x1fd;" horiz-adv-x="662" 
d="M472 558l-95 -139h-76v19l33 139h138v-19zM265 180h2v14q0 65 -89 65q-24 0 -47.5 -5.5t-35.5 -11.5l-12 -6l-35 87q65 31 152 31q89 0 136 -42q53 42 125 42q81 0 129 -48.5t48 -129.5l-1 -28h-249q14 -66 91 -66q26 0 49 6t34 12l10 6l37 -78q-6 -4 -17 -10.5
t-49.5 -17t-82.5 -10.5q-80 0 -131 45q-51 -43 -140 -43q-84 0 -124.5 30.5t-40.5 79.5q0 47 38 75t104 28q34 0 58.5 -6.5t32.5 -12.5zM137 107q0 -42 62 -42q32 0 51.5 12.5t19.5 30.5q0 17 -20 28.5t-51 11.5q-62 0 -62 -41zM460 271q-59 0 -72 -65h140q-2 29 -20 47
t-48 18z" />
    <glyph glyph-name="Oslashacute" unicode="&#x1fe;" horiz-adv-x="702" 
d="M350 -13q-120 0 -204 66l-61 -59l-46 47l60 59q-66 83 -66 200q0 133 87 223t230 90q122 0 205 -67l53 52l46 -47l-52 -51q66 -83 66 -200q0 -134 -87 -223.5t-231 -89.5zM158 300q0 -63 31 -113l278 273q-51 37 -117 37q-84 0 -138 -55.5t-54 -141.5zM350 103
q85 0 139.5 55.5t54.5 141.5q0 62 -32 112l-278 -273q49 -36 116 -36zM480 777l-95 -139h-76v19l33 139h138v-19z" />
    <glyph glyph-name="oslashacute" unicode="&#x1ff;" horiz-adv-x="445" 
d="M419 171q0 -80 -57 -129.5t-140 -49.5q-65 0 -113 30l-37 -37l-39 39l33 33q-40 48 -40 114q0 81 56.5 132t139.5 51q63 0 110 -29l43 43l39 -39l-39 -39q44 -51 44 -119zM352 558l-95 -139h-76v19l33 139h138v-19zM222 87q36 0 58 23.5t22 62.5q0 21 -8 39l-114 -115
q17 -10 42 -10zM143 173q0 -18 5 -36l113 113q-16 9 -39 9q-35 0 -57 -24t-22 -62z" />
    <glyph glyph-name="Scommaaccent" unicode="&#x218;" horiz-adv-x="546" 
d="M209 -107q0 30 21 50t57 20t58 -22.5t22 -57.5v-2q-1 -32 -29 -81l-28 -50h-79l27 45l20 25v4q-32 3 -50.5 22t-18.5 47zM31 64l66 92l25 -16t62 -26t90 -16q102 0 102 67q0 30 -26.5 48.5t-103.5 39.5q-107 30 -157 71.5t-50 110.5q0 82 60.5 130t173.5 48
q72 0 128.5 -15.5t77.5 -31.5l21 -15l-65 -99q-7 6 -20.5 14t-55.5 22t-86 14q-98 0 -98 -60q0 -26 26 -42t99 -36q112 -30 163 -73.5t51 -114.5q0 -84 -60 -136.5t-177 -52.5q-73 0 -134.5 19.5t-86.5 38.5z" />
    <glyph glyph-name="scommaaccent" unicode="&#x219;" horiz-adv-x="382" 
d="M116 -107q0 30 21 50t57 20t58 -22.5t22 -57.5v-2q-1 -32 -29 -81l-28 -50h-79l27 45l20 25v4q-32 3 -50.5 22t-18.5 47zM28 28l31 82q57 -33 115 -33q48 0 48 28q0 16 -30 26t-65.5 16.5t-65.5 31t-30 65.5q0 50 38.5 80t117.5 30q48 0 88 -7t56 -15l16 -7l-34 -86
q-41 29 -110 29q-44 0 -44 -25q0 -15 30.5 -25t67.5 -17t67.5 -32t30.5 -66q0 -50 -42 -80.5t-125 -30.5q-48 0 -88 9t-56 18z" />
    <glyph glyph-name="uni021A" unicode="&#x21a;" horiz-adv-x="539" 
d="M188 -107q0 30 21 50t57 20t58 -22.5t22 -57.5v-2q-1 -32 -29 -81l-28 -50h-79l27 45l20 25v4q-32 3 -50.5 22t-18.5 47zM13 494v106h512v-106h-195v-494h-121v494h-196z" />
    <glyph glyph-name="uni021B" unicode="&#x21b;" horiz-adv-x="339" 
d="M100 -107q0 30 21 50t57 20t58 -22.5t22 -57.5v-2q-1 -32 -29 -81l-28 -50h-79l27 45l20 25v4q-32 3 -50.5 22t-18.5 47zM17 346h62v103h120v-103h110v-95h-110v-108q0 -50 45 -50q11 0 21.5 3t15.5 6l5 3l39 -81q-33 -32 -101 -32t-106.5 39t-38.5 108v112h-62v95z" />
    <glyph glyph-name="dotlessj" unicode="&#x237;" horiz-adv-x="215" 
d="M-46 -178l31 89q15 -7 32 -7q30 0 30 41v401h121v-415q0 -61 -31.5 -96.5t-94.5 -35.5q-24 0 -46 5.5t-32 11.5z" />
    <glyph glyph-name="schwa" unicode="&#x259;" horiz-adv-x="420" 
d="M90 237l-37 79q6 4 17.5 10.5t51 17t83.5 10.5q85 0 136.5 -52.5t51.5 -130.5q0 -80 -54.5 -130.5t-136.5 -50.5t-130 48t-48 130l2 29h248q-16 65 -91 65q-26 0 -49 -6t-34 -12zM202 71q62 0 73 68h-141q0 -31 18 -49.5t50 -18.5z" />
    <glyph glyph-name="circumflex" unicode="&#x2c6;" horiz-adv-x="329" 
d="M243 419l-72 82l-73 -82h-77v19l87 139h126l86 -139v-19h-77z" />
    <glyph glyph-name="caron" unicode="&#x2c7;" horiz-adv-x="341" 
d="M171 495l72 82h77v-19l-86 -139h-126l-87 139v19h77z" />
    <glyph glyph-name="breve" unicode="&#x2d8;" horiz-adv-x="360" 
d="M231 578h94q0 -62 -39.5 -106t-112.5 -44q-74 0 -114 44t-40 106h93q0 -33 16 -50t44 -17q27 0 43 17.5t16 49.5z" />
    <glyph glyph-name="dotaccent" unicode="&#x2d9;" horiz-adv-x="237" 
d="M46 500q0 30 20.5 51t50.5 21t51 -21t21 -51q0 -31 -21 -51.5t-51 -20.5t-50.5 20.5t-20.5 51.5z" />
    <glyph glyph-name="ring" unicode="&#x2da;" horiz-adv-x="284" 
d="M141 418q-46 0 -77 29.5t-31 73.5t31 73.5t77 29.5q45 0 76 -30t31 -73t-31 -73t-76 -30zM174 521q0 15 -9 24.5t-24 9.5t-24 -9.5t-9 -24.5q0 -14 9 -23.5t24 -9.5t24 9.5t9 23.5z" />
    <glyph glyph-name="ogonek" unicode="&#x2db;" horiz-adv-x="201" 
d="M157 -64l34 -43q-25 -33 -77 -33q-41 0 -63.5 21t-22.5 55q0 21 10 38.5t24 28t28.5 18t24.5 10.5l10 3l11 -34q-5 -2 -11.5 -5t-18 -15.5t-11.5 -27.5q0 -31 32 -31q8 0 15.5 3.5t11.5 7.5z" />
    <glyph glyph-name="tilde" unicode="&#x2dc;" horiz-adv-x="430" 
d="M284 428q-33 0 -72 20t-53 20q-23 0 -32 -28l-4 -15l-84 7l6 33q15 93 99 93q32 0 70.5 -20t53.5 -20q25 0 32 29l4 15l84 -8l-5 -33q-7 -43 -32 -68t-67 -25z" />
    <glyph glyph-name="hungarumlaut" unicode="&#x2dd;" horiz-adv-x="415" 
d="M193 558l-78 -139h-76v19l33 139h121v-19zM366 558l-78 -139h-77v19l33 139h122v-19z" />
    <glyph glyph-name="pi" unicode="&#x3c0;" horiz-adv-x="526" 
d="M24 346h478v-95h-62v-251h-120v251h-114v-251h-120v251h-62v95z" />
    <glyph glyph-name="Wgrave" unicode="&#x1e80;" horiz-adv-x="827" 
d="M373 638l-94 139v19h138l33 -139v-19h-77zM290 322l107 278h34l106 -278l22 -73h15l23 80l100 271h132l-245 -600h-38l-108 280l-18 57h-13l-18 -57l-110 -280h-36l-245 600h131l101 -271l22 -80h15z" />
    <glyph glyph-name="wgrave" unicode="&#x1e81;" horiz-adv-x="601" 
d="M152 0l-149 346h130l56 -172q7 -23 7 -31h7q0 8 7 31l50 172h83l50 -172q6 -22 6 -31h7q0 12 7 31l56 172h129l-149 -346h-78l-60 159q-8 21 -8 38h-5q0 -17 -8 -38l-60 -159h-78zM261 419l-94 139v19h138l33 -139v-19h-77z" />
    <glyph glyph-name="Wacute" unicode="&#x1e82;" horiz-adv-x="827" 
d="M544 777l-95 -139h-76v19l33 139h138v-19zM290 322l107 278h34l106 -278l22 -73h15l23 80l100 271h132l-245 -600h-38l-108 280l-18 57h-13l-18 -57l-110 -280h-36l-245 600h131l101 -271l22 -80h15z" />
    <glyph glyph-name="wacute" unicode="&#x1e83;" horiz-adv-x="601" 
d="M435 558l-95 -139h-76v19l33 139h138v-19zM152 0l-149 346h130l56 -172q7 -23 7 -31h7q0 8 7 31l50 172h83l50 -172q6 -22 6 -31h7q0 12 7 31l56 172h129l-149 -346h-78l-60 159q-8 21 -8 38h-5q0 -17 -8 -38l-60 -159h-78z" />
    <glyph glyph-name="Wdieresis" unicode="&#x1e84;" horiz-adv-x="827" 
d="M259 707q0 24 18 42t41 18q24 0 42 -18t18 -42q0 -23 -18 -41t-42 -18q-23 0 -41 18t-18 41zM445 707q0 24 18.5 42t41.5 18q24 0 42 -18t18 -42q0 -23 -18 -41t-42 -18q-23 0 -41.5 18t-18.5 41zM290 322l107 278h34l106 -278l22 -73h15l23 80l100 271h132l-245 -600
h-38l-108 280l-18 57h-13l-18 -57l-110 -280h-36l-245 600h131l101 -271l22 -80h15z" />
    <glyph glyph-name="wdieresis" unicode="&#x1e85;" horiz-adv-x="601" 
d="M150 483q0 24 18 42t41 18q24 0 42 -18t18 -42q0 -23 -18 -41t-42 -18q-23 0 -41 18t-18 41zM336 483q0 24 18.5 42t41.5 18q24 0 42 -18t18 -42q0 -23 -18 -41t-42 -18q-23 0 -41.5 18t-18.5 41zM152 0l-149 346h130l56 -172q7 -23 7 -31h7q0 8 7 31l50 172h83l50 -172
q6 -22 6 -31h7q0 12 7 31l56 172h129l-149 -346h-78l-60 159q-8 21 -8 38h-5q0 -17 -8 -38l-60 -159h-78z" />
    <glyph glyph-name="Ygrave" unicode="&#x1ef2;" horiz-adv-x="563" 
d="M306 391l123 209h140l-227 -371v-229h-121v230l-225 370h140l124 -209l17 -38h11zM240 639l-94 139v19h138l33 -139v-19h-77z" />
    <glyph glyph-name="ygrave" unicode="&#x1ef3;" horiz-adv-x="415" 
d="M412 346l-244 -538l-127 -1l112 227l-149 312h132l67 -172q7 -17 7 -31h6q0 13 7 31l67 172h122zM170 419l-94 139v19h138l33 -139v-19h-77z" />
    <glyph glyph-name="enspace" unicode="&#x2002;" horiz-adv-x="500" 
 />
    <glyph glyph-name="emspace" unicode="&#x2003;" horiz-adv-x="1000" 
 />
    <glyph glyph-name="threeperemspace" unicode="&#x2004;" horiz-adv-x="333" 
 />
    <glyph glyph-name="fourperemspace" unicode="&#x2005;" horiz-adv-x="250" 
 />
    <glyph glyph-name="figurespace" unicode="&#x2007;" horiz-adv-x="600" 
 />
    <glyph glyph-name="thinspace" unicode="&#x2009;" horiz-adv-x="133" 
 />
    <glyph glyph-name="hairspace" unicode="&#x200a;" horiz-adv-x="75" 
 />
    <glyph glyph-name="endash" unicode="&#x2013;" horiz-adv-x="459" 
d="M43 239v97h373v-97h-373z" />
    <glyph glyph-name="emdash" unicode="&#x2014;" horiz-adv-x="709" 
d="M43 239v97h623v-97h-623z" />
    <glyph glyph-name="quoteleft" unicode="&#x2018;" horiz-adv-x="201" 
d="M167 485q0 -30 -20 -50.5t-50 -20.5q-29 0 -49.5 20.5t-20.5 50.5q0 46 28 96l35 61h77l-34 -59q-4 -8 -9 -14t-8 -9l-2 -2v-6q24 -5 38.5 -23.5t14.5 -43.5z" />
    <glyph glyph-name="quoteright" unicode="&#x2019;" horiz-adv-x="199" 
d="M36 594q0 30 20 50.5t50 20.5q29 0 49.5 -20.5t20.5 -50.5q0 -46 -28 -96l-35 -61h-77l34 59q4 8 8.5 14t7.5 8l3 3v6q-24 5 -38.5 23.5t-14.5 43.5z" />
    <glyph glyph-name="quotesinglbase" unicode="&#x201a;" horiz-adv-x="194" 
d="M26 61q0 30 20 50.5t50 20.5q29 0 49.5 -20.5t20.5 -50.5q0 -46 -28 -96l-35 -61h-77l34 59q4 8 9 14t7 9l3 2v6q-24 5 -38.5 23.5t-14.5 43.5z" />
    <glyph glyph-name="quotedblleft" unicode="&#x201c;" horiz-adv-x="398" 
d="M167 486q0 -30 -20 -50.5t-50 -20.5q-29 0 -49.5 20.5t-20.5 50.5q0 46 28 96l35 61h77l-34 -59q-4 -8 -9 -14t-8 -8l-2 -3v-6q24 -5 38.5 -23.5t14.5 -43.5zM365 486q0 -30 -20 -50.5t-50 -20.5q-29 0 -49.5 20.5t-20.5 50.5q0 46 28 96l35 61h77l-34 -59q-4 -8 -9 -14
t-8 -8l-2 -3v-6q24 -5 38.5 -23.5t14.5 -43.5z" />
    <glyph glyph-name="quotedblright" unicode="&#x201d;" horiz-adv-x="394" 
d="M34 594q0 30 20 50.5t50 20.5q29 0 49.5 -20.5t20.5 -50.5q0 -46 -28 -96l-35 -61h-77l34 59q4 8 8.5 14t7.5 8l3 3v6q-24 5 -38.5 23.5t-14.5 43.5zM228 594q0 30 20 50.5t50 20.5q29 0 49.5 -20.5t20.5 -50.5q0 -46 -28 -96l-35 -61h-77l34 59q4 8 9 14t7 8l3 3v6
q-24 5 -38.5 23.5t-14.5 43.5z" />
    <glyph glyph-name="quotedblbase" unicode="&#x201e;" horiz-adv-x="421" 
d="M26 61q0 30 20 50.5t50 20.5q29 0 49.5 -20.5t20.5 -50.5q0 -46 -28 -96l-35 -61h-77l34 59q4 8 9 14t7 9l3 2v6q-24 5 -38.5 23.5t-14.5 43.5zM253 61q0 30 20 50.5t50 20.5q29 0 49.5 -20.5t20.5 -50.5q0 -46 -28 -96l-35 -61h-77l34 59q4 8 8.5 14t7.5 9l3 2v6
q-24 5 -38.5 23.5t-14.5 43.5z" />
    <glyph glyph-name="dagger" unicode="&#x2020;" horiz-adv-x="459" 
d="M29 272v97h152v231h99v-231h150v-97h-150l-9 -464h-81l-9 464h-152z" />
    <glyph glyph-name="daggerdbl" unicode="&#x2021;" horiz-adv-x="497" 
d="M48 343v98h152v159h99v-159h150v-98h-150v-194h150v-97h-150l-9 -244h-81l-9 244h-152v97h152v194h-152z" />
    <glyph glyph-name="bullet" unicode="&#x2022;" horiz-adv-x="315" 
d="M64 173q0 38 27.5 66t65.5 28q39 0 66.5 -28t27.5 -66q0 -39 -27.5 -66t-66.5 -27q-38 0 -65.5 27t-27.5 66z" />
    <glyph glyph-name="ellipsis" unicode="&#x2026;" horiz-adv-x="668" 
d="M26 65q0 31 21.5 52.5t52.5 21.5q30 0 51.5 -21.5t21.5 -52.5t-21.5 -52t-51.5 -21q-31 0 -52.5 21t-21.5 52zM261 65q0 31 21 52.5t52 21.5t52.5 -21.5t21.5 -52.5t-21.5 -52t-52.5 -21t-52 21t-21 52zM495 65q0 31 21 52.5t52 21.5t52.5 -21.5t21.5 -52.5t-21.5 -52
t-52.5 -21t-52 21t-21 52z" />
    <glyph glyph-name="perthousand" unicode="&#x2030;" horiz-adv-x="992" 
d="M171 613q64 0 101 -43t37 -105t-37.5 -105.5t-100.5 -43.5t-101 44t-38 105q0 62 37.5 105t101.5 43zM171 387q54 0 54 78t-54 78q-55 0 -55 -78t55 -78zM540 610l63 -50l-470 -564l-61 50zM504 289q64 0 101.5 -43.5t37.5 -105.5q0 -61 -38 -104.5t-101 -43.5t-101 43.5
t-38 104.5q0 62 37.5 105.5t101.5 43.5zM504 219q-55 0 -55 -79q0 -77 55 -77q54 0 54 77q0 79 -54 79zM824 219q-54 0 -54 -79q0 -77 54 -77q55 0 55 77q0 79 -55 79zM824 289q64 0 102 -43.5t38 -105.5q0 -61 -38.5 -104.5t-101.5 -43.5t-101 43.5t-38 104.5
q0 62 38 105.5t101 43.5z" />
    <glyph glyph-name="guilsinglleft" unicode="&#x2039;" horiz-adv-x="259" 
d="M27 161v21l106 154h100v-9l-102 -151v-7l102 -153v-9h-100z" />
    <glyph glyph-name="guilsinglright" unicode="&#x203a;" horiz-adv-x="259" 
d="M233 182v-21l-106 -154h-101v9l102 153v7l-102 151v9h101z" />
    <glyph glyph-name="fraction" unicode="&#x2044;" horiz-adv-x="180" 
d="M-116 -3l-58 48l469 564l59 -48z" />
    <glyph glyph-name="zerosuperior" unicode="&#x2070;" horiz-adv-x="365" 
d="M182 677q75 0 117.5 -50t42.5 -122q0 -71 -43 -121t-117 -50q-73 0 -116 50t-43 121q0 72 43 122t116 50zM182 601q-32 0 -49 -27t-17 -69q0 -41 17 -67.5t49 -26.5t49.5 26.5t17.5 67.5q0 42 -17.5 69t-49.5 27z" />
    <glyph glyph-name="foursuperior" unicode="&#x2074;" horiz-adv-x="332" 
d="M15 416v50l188 202l1 -1v1h59v-187h51v-65h-51v-74h-77v74h-171zM111 481v-3l33 3h42v58l1 25h-2l-51 -61z" />
    <glyph glyph-name="fivesuperior" unicode="&#x2075;" horiz-adv-x="312" 
d="M48 668h222v-70h-156l-2 -57q21 3 50 3q131 0 131 -98q0 -48 -36 -80t-104 -32q-34 0 -65.5 11t-44.5 19.5t-20 15.5l40 57q29 -30 83 -30q64 0 64 39q0 40 -76 40q-16 0 -34.5 -3t-29.5 -5l-11 -3l-19 10z" />
    <glyph glyph-name="sixsuperior" unicode="&#x2076;" horiz-adv-x="319" 
d="M163 573q63 0 102 -31t39 -85q0 -57 -39 -90t-102 -33t-101.5 33t-38.5 90q0 53 43 116l63 95h89l-42 -65l-20 -26v-4h7zM163 506q-56 0 -56 -51q0 -24 15 -38t41 -14t41.5 14t15.5 38t-15 37.5t-42 13.5z" />
    <glyph glyph-name="sevensuperior" unicode="&#x2077;" horiz-adv-x="279" 
d="M272 668v-19l-122 -307h-90l106 256h-149v70h255z" />
    <glyph glyph-name="eightsuperior" unicode="&#x2078;" horiz-adv-x="326" 
d="M23 438q0 52 50 77q-38 24 -38 69q0 40 35.5 66.5t92.5 26.5q58 0 93 -26.5t35 -66.5q0 -45 -38 -69q50 -26 50 -77q0 -43 -37 -73.5t-103 -30.5q-65 0 -102.5 30.5t-37.5 73.5zM163 485q-26 0 -40.5 -11.5t-14.5 -30.5q0 -18 15 -30.5t40 -12.5t40.5 12.5t15.5 30.5
t-15 30t-41 12zM163 533q24 0 36 11t12 28q0 16 -12.5 26.5t-35.5 10.5q-22 0 -34.5 -10.5t-12.5 -26.5q0 -17 12.5 -28t34.5 -11z" />
    <glyph glyph-name="ninesuperior" unicode="&#x2079;" horiz-adv-x="323" 
d="M161 438q-63 0 -102 31t-39 85q0 57 39 90t102 33t101.5 -33t38.5 -90q0 -49 -43 -116l-63 -96h-90l43 66l20 26v4h-7zM161 505q25 0 40.5 13t15.5 38q0 24 -15 38t-41 14t-41.5 -14t-15.5 -38t15 -37.5t42 -13.5z" />
    <glyph glyph-name="zeroinferior" unicode="&#x2080;" horiz-adv-x="364" 
d="M182 210q75 0 117.5 -50t42.5 -122q0 -71 -43 -121t-117 -50q-73 0 -116 50t-43 121q0 72 43 122t116 50zM182 134q-32 0 -49 -27t-17 -69q0 -41 17 -67.5t49 -26.5t49.5 26.5t17.5 67.5q0 42 -17.5 69t-49.5 27z" />
    <glyph glyph-name="oneinferior" unicode="&#x2081;" horiz-adv-x="208" 
d="M15 131v70h147v-326h-80v256h-67z" />
    <glyph glyph-name="twoinferior" unicode="&#x2082;" horiz-adv-x="306" 
d="M23 -125v20l130 143q28 31 28 52q0 19 -13 31t-36 12q-31 0 -75 -33l-41 63q5 5 15.5 13t42.5 21t66 13q65 0 96.5 -30.5t31.5 -77.5q0 -46 -41 -90l-62 -68h119v-69h-261z" />
    <glyph glyph-name="threeinferior" unicode="&#x2083;" horiz-adv-x="310" 
d="M32 131v70h241v-19l-62 -107q76 -15 76 -96q0 -48 -36 -80t-104 -32q-34 0 -65.5 11t-44.5 19.5t-20 15.5l41 60q38 -31 86 -31q60 0 60 40q0 38 -54 38h-44v21l52 90h-126z" />
    <glyph glyph-name="fourinferior" unicode="&#x2084;" horiz-adv-x="332" 
d="M15 -51v50l188 202h60v-187h51v-65h-51v-74h-77v74h-171zM110 13v-2l34 3h42v58l1 25h-2l-52 -62q-4 -5 -10 -10.5t-9 -8.5z" />
    <glyph glyph-name="fiveinferior" unicode="&#x2085;" horiz-adv-x="312" 
d="M48 201h222v-70h-156l-2 -57q21 3 50 3q131 0 131 -98q0 -48 -36 -80t-104 -32q-34 0 -65.5 11t-44.5 19.5t-20 15.5l40 57q29 -30 83 -30q64 0 64 39q0 40 -76 40q-16 0 -35 -3t-29 -6l-11 -2l-19 10z" />
    <glyph glyph-name="sixinferior" unicode="&#x2086;" horiz-adv-x="319" 
d="M163 106q63 0 102 -31t39 -85q0 -57 -39 -90t-102 -33t-101.5 33t-38.5 90q0 53 43 116l63 95h89l-42 -65l-20 -26v-4h7zM163 39q-56 0 -56 -51q0 -24 15 -38t41 -14t41.5 14t15.5 38t-15 37.5t-42 13.5z" />
    <glyph glyph-name="seveninferior" unicode="&#x2087;" horiz-adv-x="279" 
d="M272 201v-19l-122 -307h-90l106 256h-149v70h255z" />
    <glyph glyph-name="eightinferior" unicode="&#x2088;" horiz-adv-x="325" 
d="M23 -29q0 52 50 77q-38 24 -38 69q0 40 35.5 66.5t92.5 26.5q58 0 93 -26.5t35 -66.5q0 -45 -38 -69q50 -26 50 -77q0 -43 -37 -73.5t-103 -30.5q-65 0 -102.5 30.5t-37.5 73.5zM163 18q-26 0 -40.5 -12t-14.5 -30t15 -30.5t40 -12.5t40.5 12.5t15.5 30.5t-15 30t-41 12z
M163 66q24 0 36 11t12 28q0 16 -12.5 26.5t-35.5 10.5q-22 0 -34.5 -10.5t-12.5 -26.5q0 -17 12.5 -28t34.5 -11z" />
    <glyph glyph-name="nineinferior" unicode="&#x2089;" horiz-adv-x="320" 
d="M158 -29q-63 0 -102 31t-39 85q0 57 39 90t102 33t101.5 -33t38.5 -90q0 -51 -43 -116l-64 -96h-89l43 66l20 26v4h-7zM158 38q25 0 40.5 13t15.5 38q0 24 -15 38t-41 14t-41.5 -14t-15.5 -38t15 -37.5t42 -13.5z" />
    <glyph glyph-name="colonmonetary" unicode="&#x20a1;" horiz-adv-x="599" 
d="M496 154l69 -93q-7 -8 -22 -20t-69 -33t-118 -21l-15 -89h-61l16 93q-28 5 -54 12l-18 -105h-61l23 130q-72 40 -112 112t-40 160q0 117 68.5 202t184.5 105l16 89h60l-15 -83h5q27 0 51 -3l15 86h61l-17 -99q31 -10 56.5 -24.5t35.5 -24.5l10 -9l-69 -93q-22 17 -54 31
l-66 -374q35 3 65 16t43 24zM263 122q20 -10 53 -17l68 390q-20 2 -29 2q-11 0 -27 -2zM159 300q0 -82 50 -137l55 314q-49 -24 -77 -70.5t-28 -106.5z" />
    <glyph glyph-name="naira" unicode="&#x20a6;" horiz-adv-x="758" 
d="M654 599v-122h58v-58h-58v-230h58v-58h-58v-131h-29l-144 131h-258v-131h-121v131h-60v58h60v230h-60v58h60v123h30l138 -123h264v122h120zM335 419l199 -177v177h-199zM223 366v-177h194z" />
    <glyph glyph-name="rupee" unicode="&#x20a8;" horiz-adv-x="1026" 
d="M665 28l31 82q57 -33 115 -33q48 0 48 28q0 16 -30 26t-65.5 16.5t-65.5 31t-30 65.5q0 50 38.5 80t117.5 30q48 0 88 -7t56 -15l16 -7l-34 -86q-41 29 -110 29q-44 0 -44 -25q0 -15 30.5 -25t67.5 -17t67.5 -32t30.5 -66q0 -50 -42 -80.5t-125 -30.5q-48 0 -88 9t-56 18
zM84 0v600h271q115 0 180.5 -54t65.5 -152q0 -129 -113 -183v-9l143 -190v-12h-137l-133 183h-156v-183h-121zM476 389q0 51 -33 78t-92 27h-146v-209h149q58 0 90 26t32 78z" />
    <glyph glyph-name="won" unicode="&#x20a9;" horiz-adv-x="944" 
d="M896 195v-58h-197l-56 -137h-38l-53 137h-160l-54 -137h-36l-56 137h-199v58h175l-90 221h-85v58h61l-51 126h131l47 -126h172l49 126h34l48 -126h171l47 126h132l-52 -126h60v-58h-83l-91 -221h174zM349 322l36 94h-129l33 -87l22 -80h15zM633 249l23 80l32 87h-128
l36 -94l22 -73h15zM448 280l-34 -85h116l-33 85l-18 57h-13z" />
    <glyph glyph-name="sheqel" unicode="&#x20aa;" horiz-adv-x="526" 
d="M453 346v-346h-143q-105 0 -120 101l-13 102h62l12 -65q8 -37 41 -37h85v245h76zM73 0v346h166q105 0 105 -107v-96h-58l-8 65q-2 37 -40 37h-89v-245h-76z" />
    <glyph glyph-name="Euro" unicode="&#x20ac;" horiz-adv-x="588" 
d="M413 271v-83h-175q38 -83 137 -83q30 0 57.5 12t39.5 24l12 12l69 -92q-2 -3 -6.5 -8t-21 -17.5t-36 -22t-51 -17.5t-65.5 -8q-105 0 -173 54.5t-93 145.5h-71v83h57q-1 13 -1 29l1 26h-57v83h70q25 91 93 146.5t174 55.5q55 0 100 -18t63 -36l18 -18l-70 -92l-13.5 13
t-37 21t-58.5 13q-99 0 -138 -85h176v-83h-195q-1 -10 -1 -26l1 -29h195z" />
    <glyph glyph-name="afii61289" unicode="&#x2113;" horiz-adv-x="451" 
d="M68 165l-32 51l82 63v234q0 65 45 110t117 45t116.5 -45t44.5 -110q0 -60 -21.5 -100t-73.5 -80l-116 -89v-85q0 -32 17 -50t48 -18q18 0 34.5 5.5t24.5 11.5l7 6l35 -82q-46 -40 -117 -40q-78 0 -119.5 38.5t-41.5 108.5v38zM230 513v-148l33 26q66 48 66 115
q0 28 -14 44t-37 16q-22 0 -35 -15t-13 -38z" />
    <glyph glyph-name="uni2117" unicode="&#x2117;" horiz-adv-x="564" 
d="M521 379q0 -99 -65.5 -167t-174.5 -68q-108 0 -173 68t-65 167q0 100 65 168t173 68q109 0 174.5 -68t65.5 -168zM451 379q0 75 -47.5 122.5t-122.5 47.5q-74 0 -121 -45t-47 -125q0 -74 48 -121.5t120 -47.5q75 0 122.5 47t47.5 122zM200 478h98q40 0 64.5 -21t24.5 -55
q0 -36 -26 -56.5t-66 -20.5h-41v-49h-54v202zM296 430h-42v-58h42q36 0 36 29t-36 29z" />
    <glyph glyph-name="servicemark" unicode="&#x2120;" horiz-adv-x="748" 
d="M436 281h-77v319h19l144 -136l146 136h18v-319h-76v170l-81 -78h-13l-80 77v-169zM49 316l39 54q42 -31 92 -31q46 0 46 30q0 14 -14 23t-50 20q-59 17 -84 39t-25 61q0 44 32.5 70t93.5 26q39 0 69 -8t41 -16l11 -9l-38 -60q-36 28 -85 28q-46 0 -46 -26
q0 -12 13.5 -20.5t46.5 -17.5q65 -18 91 -40t26 -63q0 -45 -32 -73.5t-95 -28.5q-39 0 -72 10.5t-47 21.5z" />
    <glyph glyph-name="trademark" unicode="&#x2122;" horiz-adv-x="737" 
d="M423 281h-76v319h18l145 -136l145 136h19v-319h-77v169l-80 -77h-13l-81 78v-170zM293 600v-68h-92v-251h-77v251h-91v68h260z" />
    <glyph glyph-name="Omega" unicode="&#x2126;" horiz-adv-x="737" 
d="M51 0v105h110q-53 36 -81 92.5t-28 119.5q0 125 85.5 210.5t231.5 85.5t232 -85.5t86 -210.5q0 -63 -28.5 -119.5t-81.5 -92.5h110v-105h-282v109q69 9 114.5 65t45.5 131q0 82 -55 136.5t-141 54.5t-140.5 -54.5t-54.5 -136.5q0 -75 45 -131t114 -65v-109h-282z" />
    <glyph glyph-name="estimated" unicode="&#x212e;" horiz-adv-x="710" 
d="M198 258v-74q54 -80 172 -80q37 0 72 10.5t51 21.5l16 10l61 -101q-8 -6 -22.5 -16t-67.5 -26t-114 -16q-155 0 -240.5 88.5t-85.5 224.5q0 133 87.5 223t231.5 90t232 -90t88 -223l-1 -42h-480zM359 496q-106 0 -161 -83v-60h322v62q-55 81 -161 81z" />
    <glyph glyph-name="onethird" unicode="&#x2153;" horiz-adv-x="729" 
d="M106 -3l-58 48l469 564l58 -48zM441 256v70h241v-19l-62 -107q77 -15 77 -96q0 -48 -36 -80t-105 -32q-34 0 -65.5 11t-44.5 19.5t-20 15.5l41 60q38 -31 86 -31q60 0 60 40q0 38 -54 38h-44v20l53 91h-127zM34 530v70h148v-326h-80v256h-68z" />
    <glyph glyph-name="twothirds" unicode="&#x2154;" horiz-adv-x="840" 
d="M217 -3l-58 48l469 564l59 -48zM551 256v70h242v-19l-62 -107q76 -15 76 -96q0 -48 -36 -80t-105 -32q-77 0 -130 46l42 60q37 -31 86 -31q59 0 59 40q0 35 -48 38h-50v21l52 90h-126zM42 279v19l130 143q27 32 27 53q0 42 -49 42q-31 0 -74 -32l-42 63q5 5 15.5 13
t43 21t66.5 13q65 0 96 -30.5t31 -77.5q0 -44 -41 -90l-61 -68h119v-69h-261z" />
    <glyph glyph-name="oneeighth" unicode="&#x215b;" horiz-adv-x="726" 
d="M417 96q0 51 50 77q-38 24 -38 69q0 40 35.5 66.5t92.5 26.5q58 0 93.5 -26.5t35.5 -66.5q0 -44 -38 -69q49 -26 49 -77q0 -43 -37 -73.5t-103 -30.5q-65 0 -102.5 30.5t-37.5 73.5zM107 -3l-58 48l469 564l59 -48zM36 530v70h147v-326h-79v256h-68zM557 143
q-25 0 -40 -12t-15 -30t15 -30.5t40 -12.5t41 12.5t16 30.5t-15.5 30t-41.5 12zM557 191q24 0 36 11t12 28q0 16 -12.5 26.5t-35.5 10.5q-22 0 -34 -10.5t-12 -26.5q0 -17 12 -28t34 -11z" />
    <glyph glyph-name="threeeighths" unicode="&#x215c;" horiz-adv-x="823" 
d="M513 96q0 -43 37.5 -73.5t102.5 -30.5q66 0 103 30.5t37 73.5q0 51 -50 77q38 24 38 69q0 40 -35.5 66.5t-92.5 26.5t-92.5 -26.5t-35.5 -66.5q0 -45 37 -69q-49 -25 -49 -77zM209 -3l-58 48l469 564l59 -48zM48 530v70h241v-19l-62 -107q76 -15 76 -96q0 -48 -36 -80
t-104 -32q-34 0 -65.5 11t-44.5 19.5t-20 15.5l41 60q38 -31 86 -31q60 0 60 40q0 35 -49 38h-49v21l52 90h-126zM653 143q25 0 40.5 -12t15.5 -30t-15.5 -30.5t-40.5 -12.5t-40 12.5t-15 30.5q0 19 14.5 30.5t40.5 11.5zM653 191q-22 0 -34.5 11t-12.5 28q0 16 12.5 26.5
t34.5 10.5q23 0 35.5 -10.5t12.5 -26.5q0 -17 -12.5 -28t-35.5 -11z" />
    <glyph glyph-name="fiveeighths" unicode="&#x215d;" horiz-adv-x="816" 
d="M507 96q0 -43 37.5 -73.5t102.5 -30.5t102.5 30.5t37.5 73.5q0 50 -50 77q38 25 38 69q0 40 -35.5 66.5t-92.5 26.5q-58 0 -93.5 -26.5t-35.5 -66.5q0 -45 38 -69q-49 -25 -49 -77zM57 600h222v-70h-155l-2 -57q21 3 49 3q132 0 132 -98q0 -48 -36 -80t-105 -32
q-77 0 -130 46l40 57q30 -28 84 -28q63 0 63 37q0 38 -76 38q-22 0 -40.5 -2t-26.5 -4l-7 -3l-19 10zM205 -3l-58 48l469 564l59 -48zM647 143q25 0 40.5 -12t15.5 -30t-15.5 -30.5t-40.5 -12.5t-40.5 12.5t-15.5 30.5t15 30t41 12zM647 191q-22 0 -34.5 11t-12.5 28
q0 16 12.5 26.5t34.5 10.5t34.5 -10.5t12.5 -26.5q0 -17 -12 -28t-35 -11z" />
    <glyph glyph-name="seveneighths" unicode="&#x215e;" horiz-adv-x="767" 
d="M457 96q0 -43 37.5 -73.5t102.5 -30.5q66 0 103 30.5t37 73.5q0 51 -50 77q38 25 38 69q0 40 -35.5 66.5t-92.5 26.5q-58 0 -93 -26.5t-35 -66.5q0 -45 37 -69q-49 -25 -49 -77zM147 -3l-57 48l469 564l58 -48zM286 600v-19l-122 -307h-90l106 256h-149v70h255zM597 143
q25 0 40.5 -12t15.5 -30t-15.5 -30.5t-40.5 -12.5t-40.5 12.5t-15.5 30.5t15 30t41 12zM597 191q-22 0 -34.5 11t-12.5 28q0 16 12.5 26.5t34.5 10.5q23 0 35.5 -10.5t12.5 -26.5q0 -17 -12.5 -28t-35.5 -11z" />
    <glyph glyph-name="partialdiff" unicode="&#x2202;" horiz-adv-x="463" 
d="M218 395l-111 191v14h113l160 -266q30 -51 42.5 -85t12.5 -78q0 -82 -56 -131t-148 -49q-90 0 -147 49t-57 131q0 80 57 131t147 51h13v6q-14 14 -26 36zM231 90q37 0 60 23.5t23 59.5q0 37 -22.5 59t-60.5 22q-37 0 -60 -22.5t-23 -58.5t23 -59.5t60 -23.5z" />
    <glyph glyph-name="Delta" unicode="&#x2206;" horiz-adv-x="663" 
d="M24 0v21l297 579h21l297 -579v-21h-615zM464 105l-130 282h-7l-130 -282h267z" />
    <glyph glyph-name="product" unicode="&#x220f;" horiz-adv-x="704" 
d="M621 600v-600h-122v495h-295v-495h-121v600h538z" />
    <glyph glyph-name="summation" unicode="&#x2211;" horiz-adv-x="460" 
d="M46 600h370v-105h-218l134 -166v-61l-130 -163h214v-105h-370v105l158 186v13l-158 191v105z" />
    <glyph glyph-name="minus" unicode="&#x2212;" horiz-adv-x="510" 
d="M50 249v97h409v-97h-409z" />
    <glyph glyph-name="uni2219" unicode="&#x2219;" horiz-adv-x="199" 
d="M26 358q0 31 21 52t52 21t52.5 -21t21.5 -52t-21.5 -52t-52.5 -21t-52 21t-21 52z" />
    <glyph glyph-name="radical" unicode="&#x221a;" horiz-adv-x="638" 
d="M648 600l-411 -792h-24l-212 399h135l49 -105q1 -1 16.5 -41t15.5 -41h17q0 1 15.5 41t16.5 41l244 498h138z" />
    <glyph glyph-name="infinity" unicode="&#x221e;" horiz-adv-x="795" 
d="M224 114q-75 0 -123.5 50.5t-48.5 120.5t48.5 121.5t123.5 51.5q52 0 93 -28.5t81 -78.5q84 107 173 107q70 0 121 -48.5t51 -124.5q0 -69 -48 -120t-124 -51q-91 0 -175 105q-82 -105 -172 -105zM563 364q-54 0 -110 -76q29 -40 54.5 -61t55.5 -21q36 0 58 23.5t22 55.5
q0 34 -23 56.5t-57 22.5zM232 206q52 0 110 78q-31 40 -55.5 60t-54.5 20q-36 0 -58 -24t-22 -55q0 -32 22 -55.5t58 -23.5z" />
    <glyph glyph-name="integral" unicode="&#x222b;" horiz-adv-x="336" 
d="M108 32v485q0 61 31 96.5t95 35.5q24 0 46 -5.5t32 -11.5l9 -6l-31 -89q-15 7 -32 7q-30 0 -30 -41v-485q0 -61 -31 -96.5t-95 -35.5q-24 0 -45.5 6t-31.5 12l-10 5l31 89q15 -7 31 -7q31 0 31 41z" />
    <glyph glyph-name="approxequal" unicode="&#x2248;" horiz-adv-x="540" 
d="M353 155q-39 0 -85.5 19t-62.5 19q-29 0 -38 -27l-4 -15l-104 8l8 44q19 92 120 92q38 0 84.5 -19.5t63.5 -19.5q28 0 37 27l5 15l104 -7l-8 -45q-20 -91 -120 -91zM353 351q-39 0 -85.5 19.5t-62.5 19.5q-29 0 -38 -27l-4 -15l-104 7l8 45q19 91 120 91q38 0 84.5 -19
t63.5 -19q28 0 37 27l5 15l104 -8l-8 -44q-20 -92 -120 -92z" />
    <glyph glyph-name="notequal" unicode="&#x2260;" horiz-adv-x="492" 
d="M50 336v98h204l42 111l81 -28l-32 -83h99v-98h-136l-39 -102h175v-98h-213l-41 -109l-81 28l31 81h-90v98h127l39 102h-166z" />
    <glyph glyph-name="lessequal" unicode="&#x2264;" horiz-adv-x="397" 
d="M323 265l-69 -72l-200 188v21l200 192l70 -72l-140 -131zM354 148v-98h-307v98h307z" />
    <glyph glyph-name="greaterequal" unicode="&#x2265;" horiz-adv-x="397" 
d="M143 193l-69 72l139 126l-140 131l69 72l201 -192v-21zM43 50v98h306v-98h-306z" />
    <glyph glyph-name="lozenge" unicode="&#x25ca;" horiz-adv-x="501" 
d="M292 600l178 -300l-178 -300h-83l-177 300l177 300h83zM165 300l77 -142h16l77 142l-77 142h-16z" />
    <glyph glyph-name="commaaccent" unicode="&#xf6c3;" horiz-adv-x="214" 
d="M31 -107q0 30 21 50t57 20t58 -22.5t22 -57.5v-2q-1 -32 -29 -81l-28 -50h-79l27 45l20 25v4q-32 3 -50.5 22t-18.5 47z" />
    <glyph glyph-name="f_f" unicode="&#xfb00;" horiz-adv-x="687" 
d="M320 253h-108v-253h-120v253h-74v93h74v135q0 92 44 138.5t119 46.5q56 0 88 -19l-30 -103q-23 11 -40 11q-61 0 -61 -74v-135h108v-93zM672 253h-108v-253h-120v253h-74v93h74v135q0 92 44 138.5t119 46.5q56 0 88 -19l-30 -103q-23 11 -40 11q-61 0 -61 -74v-135h108
v-93z" />
    <glyph glyph-name="fi" unicode="&#xfb01;" horiz-adv-x="582" 
d="M474 459q-29 0 -48.5 20t-19.5 49t20 49.5t48 20.5q29 0 49.5 -20.5t20.5 -49.5t-20.5 -49t-49.5 -20zM414 0v346h120v-346h-120zM320 253h-108v-253h-120v253h-74v93h74v135q0 92 44 138.5t119 46.5q56 0 88 -19l-30 -103q-23 11 -40 11q-61 0 -61 -74v-135h108v-93z
" />
    <glyph glyph-name="fl" unicode="&#xfb02;" horiz-adv-x="576" 
d="M408 0v668h120v-668h-120zM320 253h-108v-253h-120v253h-74v93h74v135q0 92 44 138.5t119 46.5q56 0 88 -19l-30 -103q-23 11 -40 11q-61 0 -61 -74v-135h108v-93z" />
    <glyph glyph-name="f_f_i" unicode="&#xfb03;" horiz-adv-x="917" 
d="M809 459q-29 0 -48.5 20t-19.5 49t20 49.5t48 20.5q29 0 49.5 -20.5t20.5 -49.5t-20.5 -49t-49.5 -20zM749 0v346h120v-346h-120zM320 253h-108v-253h-120v253h-74v93h74v135q0 92 44 138.5t119 46.5q56 0 88 -19l-30 -103q-23 11 -40 11q-61 0 -61 -74v-135h108v-93z
M672 253h-108v-253h-120v253h-74v93h74v135q0 92 44 138.5t119 46.5q56 0 88 -19l-30 -103q-23 11 -40 11q-61 0 -61 -74v-135h108v-93z" />
    <glyph glyph-name="f_f_l" unicode="&#xfb04;" horiz-adv-x="914" 
d="M746 0v668h120v-668h-120zM320 253h-108v-253h-120v253h-74v93h74v135q0 92 44 138.5t119 46.5q56 0 88 -19l-30 -103q-23 11 -40 11q-61 0 -61 -74v-135h108v-93zM672 253h-108v-253h-120v253h-74v93h74v135q0 92 44 138.5t119 46.5q56 0 88 -19l-30 -103q-23 11 -40 11
q-61 0 -61 -74v-135h108v-93z" />
    <glyph glyph-name="three.alt" horiz-adv-x="519" 
d="M175 347h75q34 0 53.5 19.5t19.5 50.5q0 38 -25 60.5t-75 22.5q-31 0 -64 -15t-51 -29l-17 -15l-58 87q3 3 8 9t24 20.5t41 26t58.5 20.5t75.5 9q102 0 160 -48.5t58 -123.5q0 -87 -72 -134q95 -31 95 -133q0 -84 -63.5 -135.5t-179.5 -51.5q-60 0 -111 18.5t-72 36.5
l-21 18l59 91q6 -6 18 -14.5t49 -22.5t74 -14q113 0 113 77q0 76 -101 76h-71v94z" />
    <glyph glyph-name="published" horiz-adv-x="712" 
d="M355 610q146 0 233 -89t87 -221t-87 -221.5t-233 -89.5q-144 0 -231 89.5t-87 221.5q0 131 87 220.5t231 89.5zM355 545q-113 0 -181.5 -70.5t-68.5 -174.5t68.5 -174.5t181.5 -70.5q115 0 184 70.5t69 174.5t-69 174.5t-184 70.5zM236 151v298h150q56 0 89.5 -32.5
t33.5 -81.5q0 -48 -33.5 -78t-93.5 -30h-64v-76h-82zM423 335q0 45 -53 45h-52v-91h52q53 0 53 46z" />
    <glyph glyph-name="registered.alt" horiz-adv-x="712" 
d="M355 610q146 0 233 -89t87 -221t-87 -221.5t-233 -89.5q-144 0 -231 89.5t-87 221.5q0 131 87 220.5t231 89.5zM355 545q-113 0 -181.5 -70.5t-68.5 -174.5t68.5 -174.5t181.5 -70.5q115 0 184 70.5t69 174.5t-69 174.5t-184 70.5zM229 151v298h150q56 0 89.5 -32
t33.5 -81q0 -66 -57 -92v-5l54 -77v-11h-86l-50 79h-53v-79h-81zM416 336q0 44 -53 44h-53v-88h53q53 0 53 44z" />
    <glyph glyph-name="baht" horiz-adv-x="642" 
d="M606 175q0 -84 -60.5 -129.5t-168.5 -45.5h-79l-18 -102h-60l18 102h-156v600h260l17 96h61l-17 -97q90 -7 137.5 -48.5t47.5 -113.5q0 -86 -74 -119v-15q43 -15 67.5 -48.5t24.5 -79.5zM380 262h-36l-28 -157h66q42 0 68 21.5t26 56.5t-26.5 57t-69.5 22zM203 495v-150
h95l26 150h-121zM459 420q0 31 -20 50.5t-55 23.5l-26 -149h18q40 2 61.5 22t21.5 53zM203 262v-157h53l27 157h-80z" />
    <glyph glyph-name="peso" horiz-adv-x="699" 
d="M372 600q106 0 171 -48t73 -134h55v-58h-56q-12 -87 -79.5 -133.5t-171.5 -46.5h-143v-180h-121v360h-56v58h56v182h272zM368 283q105 0 122 77h-269v-77h147zM221 494v-76h269q-18 76 -123 76h-146z" />
    <glyph glyph-name="R_p" horiz-adv-x="1082" 
d="M789 31h-5v-223h-120v538h76l19 -47h5q3 6 10.5 15t38 24.5t69.5 15.5q76 0 124.5 -49t48.5 -131q0 -80 -48 -131t-121 -51q-33 0 -57.5 10t-32.5 20zM778 172q0 -37 21.5 -59t56.5 -22t56.5 22.5t21.5 58.5t-21.5 59.5t-56.5 23.5t-56.5 -22.5t-21.5 -60.5zM72 0v600
h271q115 0 180.5 -54t65.5 -152q0 -129 -113 -183v-9l143 -190v-12h-137l-133 183h-156v-183h-121zM464 389q0 51 -33 78t-92 27h-146v-209h149q58 0 90 26t32 78z" />
    <glyph glyph-name="onehalf.alt" horiz-adv-x="775" 
d="M161 -3l-58 48l469 564l58 -48zM484 20v-20h261v69h-119l62 68q41 48 41 90q0 47 -31.5 77.5t-96.5 30.5q-34 0 -65 -11.5t-45 -23.5l-14 -12l41 -63q44 33 75 33q23 0 36 -12t13 -31q0 -23 -27 -52zM43 530v70h148v-256h59v-70h-207v70h68v186h-68z" />
    <glyph glyph-name="onethird.alt" horiz-adv-x="786" 
d="M161 -3l-58 48l469 564l58 -48zM498 256v70h241v-19l-61 -107q76 -15 76 -96q0 -48 -36 -80t-105 -32q-34 0 -65.5 11t-44.5 19.5t-20 15.5l42 60q37 -31 86 -31q59 0 59 40q0 35 -48 38h-50v20l53 91h-127zM43 530v70h148v-256h59v-70h-207v70h68v186h-68z" />
    <glyph glyph-name="onequarter.alt" horiz-adv-x="699" 
d="M161 -3l-58 48l469 564l59 -48zM370 74v50l188 202h60v-187h51v-65h-51v-74h-77v74h-171zM42 530v70h148v-256h59v-70h-207v70h68v186h-68zM465 137v-1l34 3h42v83h-1l-52 -62z" />
    <glyph glyph-name="onefifth" horiz-adv-x="753" 
d="M475 326h223v-70h-156l-2 -57q21 3 49 3q132 0 132 -98q0 -48 -36 -80t-105 -32q-34 0 -65.5 11t-44.5 19.5t-20 15.5l40 57q29 -28 84 -28q63 0 63 37q0 38 -76 38q-22 0 -40.5 -2t-26.5 -4l-7 -3l-19 10zM106 -3l-57 48l469 564l58 -48zM35 600h148v-326h-80v256h-68
v70z" />
    <glyph glyph-name="onefifth.alt" horiz-adv-x="815" 
d="M537 326h222v-70h-155l-3 -57q23 3 50 3q132 0 132 -98q0 -48 -36 -80t-105 -32q-34 0 -65.5 11t-44.5 19.5t-20 15.5l40 57q29 -28 84 -28q63 0 63 37q0 38 -76 38q-22 0 -40.5 -2t-26.5 -4l-7 -3l-19 10zM185 -3l-58 48l469 564l59 -48zM43 530v70h147v-256h60v-70
h-207v70h67v186h-67z" />
    <glyph glyph-name="twofifths" horiz-adv-x="885" 
d="M607 326h223v-70h-156l-2 -57q21 3 49 3q132 0 132 -98q0 -48 -36 -80t-105 -32q-77 0 -130 46l40 57q30 -28 84 -28q64 0 64 37q0 38 -77 38q-22 0 -40.5 -2t-26.5 -4l-7 -3l-19 10zM242 -3l-58 48l469 564l59 -48zM43 279v19l130 143q27 30 27 53q0 19 -13 30.5
t-36 11.5q-31 0 -74 -32l-42 63q5 5 15.5 13t42.5 21t66 13q66 0 97 -30t31 -78q0 -46 -41 -90l-61 -68h119v-69h-261z" />
    <glyph glyph-name="threefifths" horiz-adv-x="824" 
d="M545 326h222v-70h-155l-3 -57q23 3 50 3q132 0 132 -98q0 -48 -36 -80t-105 -32q-34 0 -65.5 11t-44.5 19.5t-20 15.5l40 57q29 -28 84 -28q63 0 63 37q0 38 -76 38q-22 0 -40.5 -2t-26.5 -4l-7 -3l-19 10zM208 -3l-58 48l469 564l59 -48zM48 530v70h241v-19l-62 -107
q76 -15 76 -96q0 -48 -36 -80t-104 -32q-34 0 -65.5 11t-44.5 19.5t-20 15.5l41 60q38 -31 86 -31q60 0 60 40q0 38 -54 38h-44v21l52 90h-126z" />
    <glyph glyph-name="fourfifths" horiz-adv-x="860" 
d="M236 -3l-59 48l469 564l59 -48zM580 326h222v-70h-156l-2 -57q21 3 50 3q131 0 131 -98q0 -48 -36 -80t-104 -32q-34 0 -65.5 11t-44.5 19.5t-20 15.5l40 57q29 -28 83 -28q64 0 64 37q0 38 -77 38q-22 0 -40.5 -2t-26.5 -4l-7 -3l-19 10zM29 348v50l188 202h60v-187h51
v-65h-51v-74h-76v74h-172zM124 411v-1l34 3h43v83h-1l-53 -62z" />
    <glyph glyph-name="onesixth" horiz-adv-x="738" 
d="M569 232q63 0 102 -31t39 -85q0 -57 -39 -90t-102 -33t-101.5 33t-38.5 90q0 52 43 116l63 95h89l-42 -65l-20 -26v-4h7zM129 -3l-58 48l469 564l59 -48zM35 530v70h147v-326h-80v256h-67zM569 165q-26 0 -41 -13t-15 -38q0 -24 15 -38t41 -14t41.5 14t15.5 38t-15 37.5
t-42 13.5z" />
    <glyph glyph-name="onesixth.alt" horiz-adv-x="805" 
d="M636 232q63 0 102 -31t39 -85q0 -57 -39 -90t-102 -33t-101.5 33t-38.5 90q0 52 43 116l63 95h89l-42 -65l-20 -26v-4h7zM197 -3l-58 48l469 564l59 -48zM44 530v70h147v-256h60v-70h-207v70h67v186h-67zM636 165q-26 0 -41 -13t-15 -38q0 -24 15 -38t41 -14t41.5 14
t15.5 38t-15 37.5t-42 13.5z" />
    <glyph glyph-name="fivesixths" horiz-adv-x="813" 
d="M644 232q63 0 101.5 -31t38.5 -85q0 -57 -38.5 -90t-101.5 -33t-101.5 33t-38.5 90q0 52 43 116l62 95h90l-42 -65l-20 -26v-4h7zM59 600h222v-70h-155l-2 -57q21 3 49 3q132 0 132 -98q0 -48 -36 -80t-105 -32q-77 0 -130 46l40 57q30 -28 84 -28q63 0 63 37
q0 38 -76 38q-22 0 -40.5 -2t-26.5 -4l-7 -3l-19 10zM209 -3l-58 48l469 564l59 -48zM644 165q-26 0 -41.5 -13t-15.5 -38q0 -24 15.5 -38t41.5 -14t41.5 14t15.5 38t-15.5 37.5t-41.5 13.5z" />
    <glyph glyph-name="oneeighth.alt" horiz-adv-x="810" 
d="M501 96q0 -43 37.5 -73.5t102.5 -30.5q66 0 103 30.5t37 73.5q0 51 -49 77q37 25 37 69q0 40 -35 66.5t-93 26.5q-57 0 -92.5 -26.5t-35.5 -66.5q0 -45 38 -69q-50 -26 -50 -77zM192 -3l-58 48l469 564l59 -48zM189 600v-256h59v-70h-206v70h67v186h-67v70h147zM641 143
q26 0 41 -12t15 -30t-15.5 -30.5t-40.5 -12.5t-40 12.5t-15 30.5q0 19 14.5 30.5t40.5 11.5zM641 191q-22 0 -34.5 11t-12.5 28q0 16 12.5 26.5t34.5 10.5q23 0 35.5 -10.5t12.5 -26.5q0 -17 -12 -28t-36 -11z" />
    <glyph glyph-name="three.tab_alt" 
d="M191 347h74q34 0 53.5 19.5t19.5 50.5q0 38 -25 60.5t-75 22.5q-30 0 -63 -15t-51 -29l-18 -15l-57 87q3 3 8 9t24 20.5t40.5 26t58 20.5t75.5 9q103 0 160.5 -48.5t57.5 -123.5q0 -86 -71 -133q94 -30 94 -134q0 -84 -63 -135.5t-179 -51.5q-60 0 -111 18.5t-73 36.5
l-21 18l59 91q6 -6 18 -14.5t49 -22.5t74 -14q113 0 113 77q0 76 -101 76h-70v94z" />
    <glyph glyph-name="period.tab" horiz-adv-x="275" 
d="M67 62q0 29 20.5 49.5t49.5 20.5t49.5 -20.5t20.5 -49.5t-20.5 -49.5t-49.5 -20.5t-49.5 20.5t-20.5 49.5z" />
    <glyph glyph-name="comma.tab" horiz-adv-x="275" 
d="M68 61q0 30 20 50.5t50 20.5q29 0 49.5 -20.5t20.5 -50.5q0 -46 -28 -96l-35 -61h-77l34 59q4 8 9 14t7 9l3 2v6q-24 5 -38.5 23.5t-14.5 43.5z" />
    <glyph glyph-name="colon.tab" horiz-adv-x="275" 
d="M67 63q0 29 20.5 49.5t49.5 20.5t49.5 -20.5t20.5 -49.5q0 -30 -20.5 -50t-49.5 -20t-49.5 20t-20.5 50zM67 491q0 29 20.5 49.5t49.5 20.5t49.5 -20.5t20.5 -49.5q0 -30 -20.5 -50t-49.5 -20t-49.5 20t-20.5 50z" />
    <glyph glyph-name="semicolon.tab" horiz-adv-x="275" 
d="M68 62q0 30 20.5 50.5t49.5 20.5t50 -20.5t21 -50.5q-1 -48 -29 -96l-35 -61h-76l33 59q4 8 9 14t8 8l3 3v6q-24 5 -39 23.5t-15 43.5zM69 491q0 29 20.5 49.5t49.5 20.5t49.5 -20.5t20.5 -49.5q0 -30 -20.5 -50t-49.5 -20t-49.5 20t-20.5 50z" />
    <glyph glyph-name="twodotleader.tab" 
d="M51 62q0 29 20.5 49.5t49.5 20.5t49.5 -20.5t20.5 -49.5t-20.5 -49.5t-49.5 -20.5t-49.5 20.5t-20.5 49.5zM358 62q0 29 20.5 49.5t49.5 20.5t49.5 -20.5t20.5 -49.5t-20.5 -49.5t-49.5 -20.5t-49.5 20.5t-20.5 49.5z" />
    <glyph glyph-name="periodcentered.tab" horiz-adv-x="275" 
d="M64 315q0 31 21 52t52 21t52.5 -21t21.5 -52t-21.5 -52t-52.5 -21t-52 21t-21 52z" />
    <glyph glyph-name="slash.tab" 
d="M445 703l-221 -879h-118l221 879h118z" />
    <glyph glyph-name="bar.tab" 
d="M329 673v-825h-110v825h110z" />
    <glyph glyph-name="underscore.tab" 
d="M62 -118v98h425v-98h-425z" />
    <glyph glyph-name="dollar.tab" 
d="M41 63l67 93q8 -6 22.5 -16t58 -26t85.5 -16q94 0 94 67q0 32 -24.5 50t-92.5 38q-104 30 -155.5 70t-51.5 110q0 74 49.5 121.5t142.5 56.5v71h81v-71q56 -4 102.5 -19t64.5 -28l18 -13l-66 -99q-7 6 -20 14.5t-54.5 22.5t-84.5 14q-94 0 -94 -61q0 -29 26 -44t93 -34
q106 -29 156.5 -71t50.5 -115q0 -78 -48 -129.5t-144 -59.5v-71h-81v71q-59 5 -107.5 23.5t-68.5 34.5z" />
    <glyph glyph-name="sterling.tab" 
d="M485 106v-105h-409v105q2 1 6 2.5t13.5 9t17 17t13.5 27.5t6 40q0 11 -3 23h-76v83h47q-18 50 -18 95q0 83 63 145.5t177 62.5q36 0 68 -7t51.5 -17.5t33.5 -21t20 -17.5l6 -7l-67 -90q-4 5 -11.5 12t-34.5 19t-59 12q-55 0 -84 -29.5t-29 -71.5q0 -40 18 -85h178v-83
h-153q0 -3 0.5 -10t0.5 -10q0 -59 -35 -99h260z" />
    <glyph glyph-name="Euro.tab" 
d="M383 271v-81h-163q34 -85 118 -85q30 0 57 12t39 24l12 12l69 -92q-2 -3 -6.5 -8t-20 -17t-34 -21.5t-49.5 -17.5t-65 -8q-104 0 -166.5 54.5t-85.5 146.5h-50v81h39q-1 11 -1 29l1 26h-39v81h50q22 93 84.5 148.5t167.5 55.5q54 0 98 -18.5t60 -36.5l17 -18l-69 -92
q-4 5 -13 13t-37 21.5t-58 13.5q-86 0 -120 -87h165v-81h-181q-1 -10 -1 -26l1 -29h181z" />
    <glyph glyph-name="yen.tab" 
d="M296 417l69 183h143l-134 -276h115v-82h-153v-65h153v-81h-153v-96h-121v96h-155v81h155v65h-155v82h116l-136 276h144l74 -183l19 -63z" />
    <glyph glyph-name="cent.tab" 
d="M258 27v100q-69 14 -109 62t-40 114t40 114t109 62v101h101v-101q22 -4 41.5 -10.5t28.5 -11.5l9 -5l-41 -93q-36 26 -78 26q-40 0 -64.5 -22.5t-24.5 -59.5t24.5 -59.5t64.5 -22.5q19 0 38.5 6t29.5 12l10 6l41 -92q-30 -19 -79 -27v-99h-101z" />
    <glyph glyph-name="numbersign.tab" 
d="M466 583l-34 -149h81l-16 -70h-80l-33 -145h88l-16 -70h-87l-33 -149h-76l33 149h-104l-33 -149h-75l33 149h-77l15 70h78l32 145h-84l15 70h85l34 149h75l-34 -149h104l34 149h75zM237 364l-32 -145h104l32 145h-104z" />
    <glyph glyph-name="paragraph.tab" 
d="M320 -144v251h-29q-109 0 -174.5 52.5t-65.5 149.5q0 93 62 144.5t171 51.5h157v-649h-121z" />
    <glyph glyph-name="section.tab" 
d="M45 0l62 93q8 -6 21.5 -15t55 -24t82.5 -15q93 0 93 52q0 24 -17.5 37.5t-72.5 32.5q-51 17 -82 30.5t-62 35t-45 49.5t-14 66q0 58 36 91q-50 42 -50 104q0 72 56 115t166 43q68 0 121.5 -16t73.5 -32l20 -16l-65 -99q-7 6 -19 14.5t-51.5 23t-79.5 14.5q-78 0 -78 -49
q0 -42 86 -70l59 -20.5t54 -24.5t50 -33t30.5 -42t13.5 -57q0 -58 -32 -101q46 -36 46 -99q0 -69 -54.5 -114t-175.5 -45q-43 0 -82.5 7.5t-65 17.5t-44.5 20.5t-27 17.5zM241 370q-33 9 -43 13q-13 -8 -13 -33q0 -49 104 -85l65 -24q14 14 14 38q0 31 -30.5 50t-96.5 41z
" />
    <glyph glyph-name="degree.tab" horiz-adv-x="275" 
d="M137 672q52 0 85 -31t33 -77t-33 -77t-85 -31t-84.5 31t-32.5 77t32.5 77t84.5 31zM137 613q-23 0 -36.5 -14t-13.5 -35q0 -20 13.5 -33.5t36.5 -13.5t37 13.5t14 33.5q0 22 -14 35.5t-37 13.5z" />
    <glyph glyph-name="percent.tab" 
d="M162 613q62 0 98 -38t36 -92q0 -55 -36 -93.5t-98 -38.5q-63 0 -99 38.5t-36 93.5q0 54 36 92t99 38zM162 543q-26 0 -38.5 -17t-12.5 -43q0 -27 13 -44.5t38 -17.5t37.5 17.5t12.5 44.5q0 26 -12.5 43t-37.5 17zM76 2l-58 54l451 542l60 -53zM387 254q63 0 99 -38
t36 -92q0 -55 -36 -93.5t-99 -38.5q-62 0 -98.5 38.5t-36.5 93.5q0 54 36.5 92t98.5 38zM387 185q-25 0 -37.5 -17.5t-12.5 -43.5q0 -27 12.5 -44.5t37.5 -17.5t37.5 17.5t12.5 44.5q0 26 -12.5 43.5t-37.5 17.5z" />
    <glyph glyph-name="quotedbl.tab" 
d="M260 653l-44 -190h-76v19l20 190h100v-19zM422 653l-44 -190h-76v19l20 190h100v-19z" />
    <glyph glyph-name="quotesingle.tab" horiz-adv-x="275" 
d="M203 653l-44 -190h-76v19l21 190h99v-19z" />
    <glyph glyph-name="plus.tab" 
d="M325 504v-153h154v-98h-154v-146h-99v146h-156v98h156v153h99z" />
    <glyph glyph-name="minus.tab" 
d="M70 249v97h409v-97h-409z" />
    <glyph glyph-name="divide.tab" 
d="M201 120q0 31 21 52.5t52 21.5t52.5 -21.5t21.5 -52.5t-21.5 -52t-52.5 -21t-52 21t-21 52zM201 474q0 31 21 52.5t52 21.5t52.5 -21.5t21.5 -52.5t-21.5 -52t-52.5 -21t-52 21t-21 52zM70 248v97h409v-97h-409z" />
    <glyph glyph-name="equal.tab" 
d="M78 341v97h394v-97h-394zM78 150v98h394v-98h-394z" />
    <glyph glyph-name="multiply.tab" 
d="M131 92l-68 68l143 143l-143 144l68 68l143 -144l144 144l68 -68l-144 -144l144 -143l-68 -68l-144 143z" />
    <glyph glyph-name="less.tab" 
d="M353 44l-240 232v24l240 232l69 -73l-181 -172l181 -171z" />
    <glyph glyph-name="greater.tab" 
d="M438 276l-240 -232l-70 72l181 171l-181 172l70 73l240 -232v-24z" />
    <glyph glyph-name="plusminus.tab" 
d="M326 185h-99v151h-162v97h162v158h99v-158h158v-97h-158v-151zM484 122v-98h-419v98h419z" />
    <glyph glyph-name="space.tab" 
 />
    <glyph glyph-name="latinotype" horiz-adv-x="171" 
 />
    <glyph glyph-name="i.dot" horiz-adv-x="215" 
d="M108 459q-29 0 -48.5 20t-19.5 49t20 49.5t48 20.5q29 0 49.5 -20.5t20.5 -49.5t-20.5 -49t-49.5 -20zM48 0v346h120v-346h-120z" />
    <glyph glyph-name="zero.numr" horiz-adv-x="365" 
d="M182 609q75 0 117.5 -50t42.5 -122q0 -71 -43 -121t-117 -50q-73 0 -116 50t-43 121q0 72 43 122t116 50zM182 533q-32 0 -49 -27t-17 -69q0 -41 17 -67.5t49 -26.5t49.5 26.5t17.5 67.5q0 42 -17.5 69t-49.5 27z" />
    <glyph glyph-name="one.numr" horiz-adv-x="209" 
d="M16 530v70h147v-326h-80v256h-67z" />
    <glyph glyph-name="two.numr" horiz-adv-x="307" 
d="M24 274v20l130 143q27 30 27 52q0 19 -12.5 31t-35.5 12q-31 0 -75 -33l-42 63q5 5 15.5 13t43 21t66.5 13q65 0 96 -30.5t31 -77.5t-40 -90l-62 -68h119v-69h-261z" />
    <glyph glyph-name="three.numr" horiz-adv-x="311" 
d="M32 530v70h241v-19l-62 -107q76 -15 76 -96q0 -48 -36 -80t-104 -32q-34 0 -65.5 11t-44.5 19.5t-20 15.5l41 60q38 -31 86 -31q60 0 60 40q0 38 -54 38h-44v21l52 90h-126z" />
    <glyph glyph-name="four.numr" horiz-adv-x="332" 
d="M15 348v50l188 202h60v-187h51v-65h-51v-74h-77v74h-171zM110 413v-3l32 3h44v52l1 32h-2l-53 -62z" />
    <glyph glyph-name="five.numr" horiz-adv-x="312" 
d="M48 600h222v-70h-156l-2 -57q21 3 50 3q131 0 131 -98q0 -48 -36 -80t-104 -32q-34 0 -65.5 11t-44.5 19.5t-20 15.5l40 57q29 -30 83 -30q64 0 64 39q0 40 -76 40q-16 0 -34.5 -3t-29.5 -5l-11 -3l-19 10z" />
    <glyph glyph-name="six.numr" horiz-adv-x="319" 
d="M163 505q63 0 102 -31t39 -85q0 -57 -39 -90t-102 -33t-101.5 33t-38.5 90q0 52 43 116l63 95h89l-42 -65l-20 -26v-4h7zM163 438q-26 0 -41 -13t-15 -38q0 -24 15 -38t41 -14t41.5 14t15.5 38t-15 37.5t-42 13.5z" />
    <glyph glyph-name="seven.numr" horiz-adv-x="279" 
d="M272 600v-19l-122 -307h-90l106 256h-149v70h255z" />
    <glyph glyph-name="eight.numr" horiz-adv-x="326" 
d="M23 370q0 52 50 77q-38 24 -38 69q0 40 35.5 66.5t92.5 26.5q58 0 93 -26.5t35 -66.5q0 -45 -38 -69q50 -26 50 -77q0 -43 -37 -73.5t-103 -30.5q-65 0 -102.5 30.5t-37.5 73.5zM163 417q-26 0 -40.5 -11.5t-14.5 -30.5q0 -18 15 -30.5t40 -12.5t40.5 12.5t15.5 30.5
t-15 30t-41 12zM163 465q24 0 36 11t12 28q0 16 -12.5 26.5t-35.5 10.5q-22 0 -34.5 -10.5t-12.5 -26.5q0 -17 12.5 -28t34.5 -11z" />
    <glyph glyph-name="nine.numr" horiz-adv-x="323" 
d="M161 370q-63 0 -102 31t-39 85q0 57 39 90t102 33t101.5 -33t38.5 -90q0 -51 -43 -116l-64 -96h-89l43 66l20 26v4h-7zM161 437q25 0 40.5 13t15.5 38q0 24 -15 38t-41 14t-41.5 -14t-15.5 -38t15 -37.5t42 -13.5z" />
    <glyph glyph-name="caron.alt" horiz-adv-x="179" 
d="M142 558l-39 -139h-66v158h105v-19z" />
    <glyph glyph-name="acute.cap" horiz-adv-x="247" 
d="M210 767l-95 -139h-76v19l33 139h138v-19z" />
    <glyph glyph-name="hungarumlaut.cap" horiz-adv-x="415" 
d="M201 767l-78 -139h-76v19l33 139h121v-19zM374 767l-78 -139h-77v19l33 139h122v-19z" />
    <glyph glyph-name="grave.cap" horiz-adv-x="254" 
d="M131 625l-94 139v19h138l33 -139v-19h-77z" />
    <glyph glyph-name="circumflex.cap" horiz-adv-x="329" 
d="M243 628l-72 82l-73 -82h-77v19l87 139h126l86 -139v-19h-77z" />
    <glyph glyph-name="caron.cap" horiz-adv-x="341" 
d="M171 703l72 82h77v-19l-86 -139h-126l-87 139v19h77z" />
    <glyph glyph-name="breve.cap" horiz-adv-x="360" 
d="M238 793h94q0 -62 -39.5 -106t-112.5 -44q-74 0 -114 44t-40 106h93q0 -33 16 -50t44 -17q27 0 43 17.5t16 49.5z" />
    <glyph glyph-name="tilde.cap" horiz-adv-x="430" 
d="M284 628q-33 0 -72 20t-53 20q-23 0 -32 -28l-4 -15l-84 7l6 33q15 93 99 93q32 0 70.5 -20t53.5 -20q25 0 32 29l4 15l84 -8l-5 -33q-7 -43 -32 -68t-67 -25z" />
    <glyph glyph-name="macron.cap" horiz-adv-x="391" 
d="M62 629v72h279v-72h-279z" />
    <glyph glyph-name="dieresis.cap" horiz-adv-x="403" 
d="M51 694q0 24 18 42t41 18q24 0 42 -18t18 -42q0 -23 -18 -41t-42 -18q-23 0 -41 18t-18 41zM237 694q0 24 18.5 42t41.5 18q24 0 42 -18t18 -42q0 -23 -18 -41t-42 -18q-23 0 -41.5 18t-18.5 41z" />
    <glyph glyph-name="dotaccent.cap" horiz-adv-x="237" 
d="M46 699q0 30 20.5 51t50.5 21t51 -21t21 -51q0 -31 -21 -51.5t-51 -20.5t-50.5 20.5t-20.5 51.5z" />
    <glyph glyph-name="ring.cap" horiz-adv-x="284" 
d="M141 628q-46 0 -77 29.5t-31 73.5t31 73.5t77 29.5q45 0 76 -30t31 -73t-31 -73t-76 -30zM174 731q0 15 -9 24.5t-24 9.5t-24 -9.5t-9 -24.5q0 -14 9 -23.5t24 -9.5t24 9.5t9 23.5z" />
    <glyph glyph-name="zero.tab" 
d="M276 -13q-120 0 -182 85t-62 228t62 228t182 85t181 -84.5t61 -228.5t-61 -228.5t-181 -84.5zM276 104q61 0 89 48.5t28 147.5t-28 147.5t-89 48.5q-119 0 -119 -196t119 -196z" />
    <glyph glyph-name="one.tab" 
d="M73 495v105h299v-495h137v-105h-448v105h190v390h-178z" />
    <glyph glyph-name="two.tab" 
d="M51 1v20l240 284q29 35 40 54.5t11 43.5q0 39 -29 65.5t-74 26.5q-33 0 -66 -14.5t-48 -26t-21 -19.5l-64 97q3 3 9 8.5t27 19.5t44 24.5t59.5 19.5t74.5 9q111 0 168.5 -52.5t57.5 -133.5q0 -74 -65 -153l-142 -169h226v-105h-444l1 2z" />
    <glyph glyph-name="three.tab" 
d="M260 277h-78v28l115 189h-226v106h409v-21l-133 -218q76 -11 114.5 -58t38.5 -122q0 -84 -62.5 -139t-179.5 -55q-39 0 -76 8t-61 18.5t-45.5 24t-29 19.5t-11.5 10l60 94q8 -7 22 -17t55.5 -27t81.5 -17q58 0 87 25t29 65t-28.5 63.5t-81.5 23.5z" />
    <glyph glyph-name="four.tab" 
d="M25 130v106l331 364h86v-365h67v-105h-67v-130h-121v130h-296zM160 241v-6h161v180l-138 -155z" />
    <glyph glyph-name="five.tab" 
d="M466 494h-259l-3 -122q33 5 64 5q123 0 179.5 -52t56.5 -142q0 -86 -62.5 -141t-179.5 -55q-61 0 -117 20t-81 40l-25 20l60 94q8 -7 22 -17t55.5 -27t81.5 -17q57 0 86.5 25t29.5 66q0 88 -137 88q-41 0 -74.5 -5.5t-46 -10t-14.5 -6.5l-14 10l9 333h369v-106z" />
    <glyph glyph-name="six.tab" 
d="M286 -13q-106 0 -172 59t-66 156q0 85 56 181l128 217h147l-110 -183l-24 -32v-10q28 10 53 10q101 0 159.5 -50.5t58.5 -138.5q0 -95 -65.5 -152t-164.5 -57zM282 286q-44 0 -73.5 -27.5t-29.5 -67.5q0 -45 27.5 -72t75.5 -27q49 0 76.5 27.5t27.5 70.5q0 41 -27.5 68.5
t-76.5 27.5z" />
    <glyph glyph-name="seven.tab" 
d="M62 494v106h449v-27l-266 -573h-142l240 494h-281z" />
    <glyph glyph-name="eight.tab" 
d="M275 -13q-108 0 -172 52t-64 129q0 101 93 149q-69 44 -69 128q0 72 58 120t154 48t154 -48t58 -120q0 -84 -70 -128q94 -49 94 -149q0 -77 -64 -129t-172 -52zM275 92q47 0 77 25.5t30 62.5q0 38 -30 63t-77 25t-77 -25t-30 -63q0 -37 30.5 -62.5t76.5 -25.5zM363 430
q0 34 -24 55.5t-64 21.5q-39 0 -63 -21.5t-24 -55.5q0 -32 24 -54t63 -22q40 0 64 22t24 54z" />
    <glyph glyph-name="nine.tab" 
d="M502 398q0 -85 -56 -181l-128 -217h-148l110 183l24 32v9q-26 -9 -52 -9q-102 0 -160.5 50.5t-58.5 138.5q0 95 66 152t165 57q106 0 172 -59t66 -156zM268 314q44 0 73.5 27.5t29.5 67.5q0 45 -28 72t-75 27q-49 0 -76.5 -27.5t-27.5 -70.5q0 -41 27.5 -68.5t76.5 -27.5
z" />
    <glyph glyph-name="onesuperior_alt" horiz-adv-x="250" 
d="M27 598v70h148v-256h59v-70h-207v70h68v186h-68z" />
    <glyph glyph-name="one.numr_alt" horiz-adv-x="250" 
d="M27 530v70h148v-256h59v-70h-207v70h68v186h-68z" />
    <glyph glyph-name="oneinferior_alt" horiz-adv-x="249" 
d="M27 131v70h147v-256h59v-70h-206v70h67v186h-67z" />
    <glyph glyph-name="zero.dnom" horiz-adv-x="365" 
d="M182 335q75 0 117.5 -50t42.5 -122q0 -71 -43 -121t-117 -50q-73 0 -116 50t-43 121q0 72 43 122t116 50zM182 259q-32 0 -49 -27t-17 -69q0 -41 17 -67.5t49 -26.5t49.5 26.5t17.5 67.5q0 42 -17.5 69t-49.5 27z" />
    <glyph glyph-name="one.dnom" horiz-adv-x="209" 
d="M16 256v70h147v-326h-80v256h-67z" />
    <glyph glyph-name="one.dnom_alt" horiz-adv-x="250" 
d="M27 256v70h148v-256h59v-70h-207v70h68v186h-68z" />
    <glyph glyph-name="two.dnom" horiz-adv-x="307" 
d="M24 0v20l130 143q27 30 27 52q0 19 -12.5 31t-35.5 12q-31 0 -75 -33l-42 63q5 5 15.5 13t43 21t66.5 13q65 0 96 -30.5t31 -77.5t-40 -90l-62 -68h119v-69h-261z" />
    <glyph glyph-name="three.dnom" horiz-adv-x="310" 
d="M32 256v70h241v-19l-62 -107q76 -15 76 -96q0 -48 -36 -80t-104 -32q-34 0 -65.5 11t-44.5 19.5t-20 15.5l41 60q38 -31 86 -31q60 0 60 40q0 38 -54 38h-44v21l52 90h-126z" />
    <glyph glyph-name="four.dnom" horiz-adv-x="331" 
d="M14 74v50l188 202h60v-187h51v-65h-51v-74h-77v74h-171zM109 138v-2l34 3h42v58l1 25h-2l-52 -62z" />
    <glyph glyph-name="five.dnom" horiz-adv-x="312" 
d="M48 326h222v-70h-156l-2 -57q21 3 50 3q131 0 131 -98q0 -48 -36 -80t-104 -32q-34 0 -65.5 11t-44.5 19.5t-20 15.5l40 57q29 -30 83 -30q64 0 64 39q0 40 -76 40q-16 0 -35 -3t-29 -5l-11 -3l-19 10z" />
    <glyph glyph-name="six.dnom" horiz-adv-x="319" 
d="M163 231q63 0 102 -31t39 -85q0 -57 -39 -90t-102 -33t-101.5 33t-38.5 90q0 53 43 116l63 95h89l-42 -65l-20 -26v-4h7zM163 164q-56 0 -56 -51q0 -24 15 -38t41 -14t41.5 14t15.5 38t-15 37.5t-42 13.5z" />
    <glyph glyph-name="seven.dnom" horiz-adv-x="279" 
d="M272 326v-19l-122 -307h-90l106 256h-149v70h255z" />
    <glyph glyph-name="eight.dnom" horiz-adv-x="326" 
d="M23 96q0 52 50 77q-38 24 -38 69q0 40 35.5 66.5t92.5 26.5q58 0 93 -26.5t35 -66.5q0 -45 -38 -69q50 -26 50 -77q0 -43 -37 -73.5t-103 -30.5q-65 0 -102.5 30.5t-37.5 73.5zM163 143q-26 0 -40.5 -11.5t-14.5 -30.5q0 -18 15 -30.5t40 -12.5t40.5 12.5t15.5 30.5
t-15 30t-41 12zM163 191q24 0 36 11t12 28q0 16 -12.5 26.5t-35.5 10.5q-22 0 -34.5 -10.5t-12.5 -26.5q0 -17 12.5 -28t34.5 -11z" />
    <glyph glyph-name="nine.dnom" horiz-adv-x="321" 
d="M158 96q-63 0 -101.5 31t-38.5 85q0 57 38.5 90t101.5 33t101.5 -33t38.5 -90q0 -51 -43 -116l-63 -96h-89l42 66l20 26v4h-7zM158 163q57 0 57 51q0 24 -15.5 38t-41.5 14t-41.5 -14t-15.5 -38t15.5 -37.5t41.5 -13.5z" />
    <glyph glyph-name="zero.osf" horiz-adv-x="419" 
d="M210 354q82 0 131 -50.5t49 -130.5q0 -81 -49 -131t-131 -50t-131.5 50.5t-49.5 130.5t49.5 130.5t131.5 50.5zM210 260q-34 0 -54 -24t-20 -63t20 -62.5t54 -23.5t53.5 23.5t19.5 62.5t-19.5 63t-53.5 24z" />
    <glyph glyph-name="one.osf" horiz-adv-x="280" 
d="M20 251v95h201v-346h-120v251h-81z" />
    <glyph glyph-name="two.osf" horiz-adv-x="392" 
d="M34 0v37l143 128q29 26 29 51q0 40 -54 40q-21 0 -44 -8.5t-36 -17.5l-13 -8l-34 84q6 5 18 13t54 21.5t91 13.5q76 0 115 -33t39 -81q0 -33 -12 -55.5t-43 -45.5l-65 -47l43 5h97v-97h-328z" />
    <glyph glyph-name="three.osf" horiz-adv-x="397" 
d="M30 251v95h321v-36l-114 -180q67 -8 103 -47t36 -106q0 -82 -53 -130t-148 -48q-51 0 -91 13t-54 26l-15 13l41 82q47 -37 102 -37q48 0 72 22t24 56q0 37 -25 58t-68 21h-69v36l98 162h-160z" />
    <glyph glyph-name="four.osf" horiz-adv-x="453" 
d="M14 3v81l230 262h109v-247h78v-96h-78v-195h-121v195h-218zM129 98v-5l65 6h38v109h-4l-59 -72q-9 -12 -19 -21.5t-16 -12.5z" />
    <glyph glyph-name="five.osf" horiz-adv-x="391" 
d="M61 346h273v-95h-178l-3 -109q4 0 13.5 0.5t14.5 0.5q95 0 143.5 -43.5t48.5 -121.5q0 -79 -52 -129t-151 -50q-46 0 -84 11.5t-53 23.5l-15 11l41 84q41 -30 95 -30q47 0 71.5 21.5t24.5 54.5q0 38 -25.5 59t-76.5 21q-23 0 -43.5 -3.5t-29.5 -7.5l-9 -4l-16 13z" />
    <glyph glyph-name="six.osf" horiz-adv-x="449" 
d="M233 353q88 0 144 -50.5t56 -131.5q0 -82 -55.5 -131t-144.5 -49t-144 49t-55 131q0 42 11.5 76t41.5 87l133 227h123l-93 -163q-6 -11 -12.5 -20.5t-10.5 -13.5l-4 -4v-7h10zM233 254q-36 0 -57 -22t-21 -59t21 -60t57 -23t57.5 23.5t21.5 59.5t-21.5 58.5t-57.5 22.5z
" />
    <glyph glyph-name="seven.osf" horiz-adv-x="367" 
d="M368 346v-28l-205 -495h-127l189 428h-207v95h350z" />
    <glyph glyph-name="eight.osf" horiz-adv-x="447" 
d="M49 422q0 69 49 114t125 45q77 0 126 -45t49 -114q0 -78 -65 -120q80 -46 80 -134q0 -80 -53 -128t-137 -48t-136.5 47.5t-52.5 128.5q0 88 78 134q-63 43 -63 120zM223 247q-35 0 -54.5 -22t-19.5 -57q0 -34 20 -55.5t54 -21.5q35 0 55 21.5t20 55.5q0 35 -20 57t-55 22
zM223 350q30 0 48 19t18 49q0 29 -18 47t-48 18q-29 0 -47 -18t-18 -47q0 -30 18 -49t47 -19z" />
    <glyph glyph-name="nine.osf" horiz-adv-x="436" 
d="M216 -7q-87 0 -143 50.5t-56 131.5q0 82 55.5 131t143.5 49q90 0 144.5 -48.5t54.5 -131.5q0 -43 -11.5 -77t-41.5 -86l-116 -198h-123l76 134q6 11 13 20.5t11 13.5l4 4v7h-11zM216 92q36 0 57 22t21 59t-21 60t-57 23q-35 0 -56.5 -23t-21.5 -60q0 -36 21 -58.5
t57 -22.5z" />
    <glyph glyph-name="three.osf_alt" horiz-adv-x="388" 
d="M84 125h42q39 0 62.5 17t23.5 49q0 28 -17.5 45t-51.5 17q-21 0 -44 -8.5t-35 -16.5l-13 -8l-36 85q6 5 18 13.5t52 22t83 13.5q84 0 127 -39t43 -105q0 -76 -68 -120q46 -14 71 -48t25 -81q0 -69 -55 -115.5t-148 -46.5q-48 0 -87.5 13t-55.5 26l-15 13l40 82
q48 -37 104 -37q41 0 63.5 19t22.5 51q0 35 -25.5 54.5t-68.5 19.5h-57v85z" />
    <glyph glyph-name="ampersand.small" horiz-adv-x="640" 
d="M619 251h-95v-11q0 -43 -14 -84.5t-43 -80t-84.5 -62.5t-128.5 -24q-102 0 -163 53.5t-61 134.5q0 78 50.5 127t128.5 49q71 0 113.5 -39.5t42.5 -98.5l-1 -18l-218 -61q30 -53 110 -53q87 0 126 47t39 117v99h198v-95zM205 268q-31 0 -51 -19.5t-21 -54.5l130 36
q-9 38 -58 38z" />
    <glyph glyph-name="dagger.small" horiz-adv-x="439" 
d="M19 127v97h152v154h99v-154h150v-97h-150l-9 -377h-81l-9 377h-152z" />
    <glyph glyph-name="daggerdbl.small" horiz-adv-x="471" 
d="M35 167v97h152v114h99v-114h150v-97h-150v-100h150v-97h-150l-9 -220h-81l-9 220h-152v97h152v100h-152z" />
    <glyph glyph-name="ampersand.alt" horiz-adv-x="628" 
d="M616 0h-141l-32 40q-71 -53 -170 -53q-110 0 -171.5 54t-61.5 134q0 69 39.5 119t112.5 68l-101 130v108h390v-105h-239l198 -257q7 39 7 71v56h115v-56q-2 -99 -41 -176l95 -124v-9zM281 90q58 0 97 33l-118 151q-40 -4 -65 -29.5t-25 -62.5q0 -40 29 -66t82 -26z" />
    <glyph glyph-name="asterisk.small" horiz-adv-x="359" 
d="M76 351l63 60l-86 13l-27 8l24 76l26 -9l79 -41l-14 85v29h78v-29l-14 -85l78 41l25 8l24 -76l-27 -8l-85 -13l64 -59l17 -24l-65 -45l-16 22l-41 79l-40 -79l-16 -22l-63 45z" />
    <glyph glyph-name="copyright.small" horiz-adv-x="461" 
d="M230 372q93 0 149 -57.5t56 -142.5q0 -84 -56 -141.5t-149 -57.5q-92 0 -148 57.5t-56 141.5q0 85 56 142.5t148 57.5zM230 348q-82 0 -131 -51t-49 -125t49 -124.5t131 -50.5t131.5 50.5t49.5 124.5q0 75 -49.5 125.5t-131.5 50.5zM286 124l31 -42q-26 -29 -81 -29
t-88.5 34.5t-33.5 84.5t33.5 84t88.5 34q25 0 45 -7t28 -13l8 -7l-31 -43q-16 14 -46 14q-27 0 -44.5 -18t-17.5 -44q0 -27 17.5 -44t44.5 -17q12 0 23.5 3.5t16.5 6.5z" />
    <glyph glyph-name="published.small" horiz-adv-x="461" 
d="M230 372q93 0 149 -57.5t56 -142.5q0 -84 -56 -141.5t-149 -57.5q-92 0 -148 57.5t-56 141.5q0 85 56 142.5t148 57.5zM230 348q-82 0 -131 -51t-49 -125t49 -124.5t131 -50.5t131.5 50.5t49.5 124.5q0 75 -49.5 125.5t-131.5 50.5zM251 287q45 0 71.5 -25.5t26.5 -64.5
q0 -37 -26.5 -60t-73.5 -23h-47v-58h-64v231h113zM281 197q0 35 -43 35h-36v-70h37q42 0 42 35z" />
    <glyph glyph-name="registered.small" horiz-adv-x="461" 
d="M230 372q93 0 149 -57.5t56 -142.5q0 -84 -56 -141.5t-149 -57.5q-92 0 -148 57.5t-56 141.5q0 85 56 142.5t148 57.5zM230 348q-82 0 -131 -51t-49 -125t49 -124.5t131 -50.5t131.5 50.5t49.5 124.5q0 75 -49.5 125.5t-131.5 50.5zM131 287h114q43 0 68.5 -25t25.5 -64
q0 -49 -43 -71v-3l40 -57v-11h-66l-39 60h-36v-60h-64v231zM232 232h-37v-67h38q39 0 39 33q0 34 -40 34z" />
    <glyph glyph-name="registered.osf.alt" horiz-adv-x="428" 
d="M37 194q0 86 49.5 132t126.5 46q76 0 127 -49t51 -129q0 -79 -51 -128t-127 -49q-75 0 -125.5 49t-50.5 128zM61 194q0 -69 43.5 -111t108.5 -42q66 0 110 42.5t44 110.5q0 69 -44 111.5t-110 42.5t-109 -40t-43 -114zM132 283h87q35 0 57 -18t22 -48q0 -37 -31 -55
l32 -47v-11h-49l-30 45h-40v-45h-48v179zM218 240h-38v-50h37q32 0 32 25t-31 25z" />
    <glyph glyph-name="trademark.small" horiz-adv-x="707" 
d="M413 173h-76v269h34l117 -112l117 112h34v-269h-76v131l-68 -67h-14l-68 67v-131zM291 442v-68h-92v-201h-76v201h-92v68h260z" />
    <glyph glyph-name="servicemark.small" horiz-adv-x="690" 
d="M407 173h-76v269h34l117 -112l117 112h34v-269h-76v131l-68 -67h-14l-68 67v-131zM46 204l34 47q38 -28 82 -28q41 0 41 21q0 11 -11.5 18t-43.5 16q-52 16 -73.5 35.5t-21.5 52.5q0 36 30 58.5t84 22.5q31 0 58.5 -7.5t39.5 -14.5l12 -7l-32 -52q-32 21 -75 21
q-38 0 -38 -20q0 -17 53 -33q52 -15 74.5 -32t22.5 -50q0 -38 -28.5 -61.5t-85.5 -23.5q-36 0 -66.5 9.5t-43.5 18.5z" />
    <glyph glyph-name="ordfeminine.small" horiz-adv-x="334" 
d="M29 248q0 38 29.5 60t78.5 22t75 -21v16q0 56 -73 56q-40 0 -70 -17l-23 63q53 21 108 21q137 0 137 -127v-148h-60l-10 31h-3q-22 -37 -89 -37q-43 0 -71.5 22.5t-28.5 58.5zM106 253q0 -34 48 -34q25 0 41.5 9.5t16.5 24.5q0 14 -16.5 23.5t-39.5 9.5q-50 0 -50 -33z
" />
    <glyph glyph-name="ordmasculine.small" horiz-adv-x="344" 
d="M30 306q0 65 39.5 103.5t102.5 38.5q62 0 101 -38.5t39 -103.5q0 -62 -39 -100.5t-101 -38.5q-63 0 -102.5 38.5t-39.5 100.5zM234 306q0 33 -16.5 53t-45.5 20q-30 0 -47 -20t-17 -53q0 -31 17 -50.5t47 -19.5q29 0 45.5 19t16.5 51z" />
    <glyph glyph-name="asciicircum.small" horiz-adv-x="460" 
d="M292 376l-62 94l-62 -94h-88v19l118 159h64l119 -159v-19h-89z" />
    <glyph glyph-name="asciitilde.small" horiz-adv-x="475" 
d="M310 476q21 0 39.5 6t26.5 12l9 5l36 -74q-4 -4 -12 -11t-36.5 -18t-60.5 -11q-27 0 -72 12.5t-75 12.5q-21 0 -39.5 -6t-27.5 -12l-8 -5l-36 74q4 4 12 11t36.5 18t60.5 11q27 0 72 -12.5t75 -12.5z" />
    <glyph glyph-name="numbersign.small" horiz-adv-x="497" 
d="M404 346l-16 -72h87l-16 -70h-87l-14 -63h87l-16 -70h-86l-16 -71h-75l15 71h-85l-16 -71h-75l16 71h-83l15 70h84l14 63h-83l15 70h84l16 72h75l-16 -72h84l16 72h76zM212 204l-14 -63h85l14 63h-85z" />
    <glyph glyph-name="percent.small" horiz-adv-x="540" 
d="M165 0h-72v11l274 331h74v-11zM519 93q0 -42 -28 -71.5t-77 -29.5t-76.5 29.5t-27.5 71.5q0 41 27.5 70.5t76.5 29.5t77 -29t28 -71zM371 93q0 -22 11 -36t32 -14t32 14t11 36q0 21 -11 35t-32 14t-32 -14t-11 -35zM230 253q0 -42 -28 -71t-77 -29t-77 29.5t-28 70.5
q0 42 28 71.5t77 29.5t77 -29.5t28 -71.5zM83 253q0 -49 42 -49q21 0 32 14t11 35q0 22 -11 36t-32 14q-42 0 -42 -50z" />
    <glyph glyph-name="perthousand.small" horiz-adv-x="775" 
d="M165 0h-72v11l274 331h74v-11zM519 93q0 -42 -28 -71.5t-77 -29.5t-76.5 29.5t-27.5 71.5q0 41 27.5 70.5t76.5 29.5t77 -29t28 -71zM371 93q0 -22 11 -36t32 -14t32 14t11 36q0 21 -11 35t-32 14t-32 -14t-11 -35zM230 253q0 -42 -28 -71t-77 -29t-77 29.5t-28 70.5
q0 42 28 71.5t77 29.5t77 -29.5t28 -71.5zM83 253q0 -49 42 -49q21 0 32 14t11 35q0 22 -11 36t-32 14q-42 0 -42 -50zM753 93q0 -42 -27.5 -71.5t-76.5 -29.5t-77 29.5t-28 71.5q0 41 28 70.5t77 29.5t76.5 -29.5t27.5 -70.5zM605 93q0 -22 11.5 -36t32.5 -14t31.5 14
t10.5 36q0 21 -10.5 35t-31.5 14t-32.5 -14t-11.5 -35z" />
    <glyph glyph-name="plus.small" horiz-adv-x="372" 
d="M237 326v-108h106v-97h-106v-101h-99v101h-110v97h110v108h99z" />
    <glyph glyph-name="minus.small" horiz-adv-x="392" 
d="M38 121v97h316v-97h-316z" />
    <glyph glyph-name="plusminus.small" horiz-adv-x="340" 
d="M212 346v-70h87v-81h-87v-75h-83v75h-88v81h88v70h83zM41 8v81h258v-81h-258z" />
    <glyph glyph-name="multiply.small" horiz-adv-x="359" 
d="M100 319l79 -80l81 81l68 -68l-81 -81l78 -78l-68 -68l-78 78l-77 -77l-68 68l77 77l-79 80z" />
    <glyph glyph-name="divide.small" horiz-adv-x="385" 
d="M135 50q0 23 16.5 40t40.5 17q23 0 40 -17t17 -40q0 -24 -17 -40.5t-40 -16.5q-24 0 -40.5 16.5t-16.5 40.5zM135 289q0 23 16.5 40t40.5 17q23 0 40 -17t17 -40q0 -24 -16.5 -40t-40.5 -16t-40.5 16t-16.5 40zM29 137v65h327v-65h-327z" />
    <glyph glyph-name="equal.small" horiz-adv-x="464" 
d="M43 217v89h378v-89h-378zM43 39v89h378v-89h-378z" />
    <glyph glyph-name="less.small" horiz-adv-x="289" 
d="M189 0l-167 161v24l167 162l70 -72l-108 -103l108 -100z" />
    <glyph glyph-name="greater.small" horiz-adv-x="289" 
d="M267 161l-167 -161l-70 72l108 100l-108 103l70 72l167 -162v-24z" />
    <glyph glyph-name="quotedbl.small" horiz-adv-x="363" 
d="M164 456l-44 -190h-76v19l21 190h99v-19zM326 456l-43 -190h-77v19l21 190h99v-19z" />
    <glyph glyph-name="quotesingle.small" horiz-adv-x="200" 
d="M164 456l-44 -190h-76v19l21 190h99v-19z" />
    <glyph glyph-name="degree.small" horiz-adv-x="296" 
d="M148 482q52 0 85 -31t33 -77t-33 -77t-85 -31t-84.5 31t-32.5 77t32.5 77t84.5 31zM148 422q-23 0 -36.5 -13.5t-13.5 -34.5q0 -20 13.5 -33.5t36.5 -13.5t37 13.5t14 33.5q0 21 -14 34.5t-37 13.5z" />
    <glyph glyph-name="paragraph.small" horiz-adv-x="471" 
d="M292 -250v198h-29q-109 0 -174.5 52.5t-65.5 149.5q0 93 62 144.5t171 51.5h157v-596h-121z" />
    <glyph glyph-name="section.small" horiz-adv-x="379" 
d="M185 357q48 0 87.5 -7.5t54.5 -14.5l15 -7l-31 -84q-39 26 -109 26q-44 0 -44 -25q0 -4 1 -7t4 -6t6 -5.5t8 -5t9 -4t11.5 -4t11.5 -4t13 -4t13 -3.5q25 -8 39.5 -14t33.5 -17.5t28 -29t9 -40.5q0 -48 -41 -78q46 -27 46 -72q0 -50 -38 -79.5t-117 -29.5q-48 0 -88 7
t-57 15l-16 7l31 84q43 -27 113 -27q43 0 43 25q0 5 -2.5 9t-7.5 8t-10.5 6.5t-14.5 5.5t-15.5 4.5t-18 4.5t-18.5 5q-46 12 -74 33.5t-28 62.5q0 50 43 79q-46 29 -46 75q0 51 39.5 81t116.5 30zM179 71q10 -4 31 -11t28 -9q12 9 12 24q0 31 -60 51l-49 17q-13 -10 -13 -25
q0 -27 51 -47z" />
    <glyph glyph-name="dollar.small" horiz-adv-x="379" 
d="M220 105q0 13 -19.5 21.5t-47.5 14.5t-56 15.5t-47.5 31.5t-19.5 56q0 42 28 70.5t85 36.5v99h91v-98q33 -3 61 -10t39 -12l12 -5l-32 -85q-43 27 -112 27q-43 0 -43 -25q0 -13 20 -20.5t49 -14t58 -16.5t49 -32.5t20 -56.5q0 -42 -30.5 -70.5t-90.5 -36.5v-93h-91v92
q-35 3 -63.5 11t-39.5 14l-11 6l28 83q60 -31 116 -31q47 0 47 28z" />
    <glyph glyph-name="sterling.small" horiz-adv-x="402" 
d="M366 98v-97h-332v85h4q17 2 30 16.5t13 36.5v2h-43v58h32q-3 12 -3 30q0 54 37.5 89.5t118.5 35.5q46 0 83.5 -11.5t51.5 -22.5l15 -12l-41 -75q-40 32 -87 32q-27 0 -40.5 -13.5t-13.5 -32.5q0 -14 1 -20h96v-58h-88q-1 -27 -16 -50z" />
    <glyph glyph-name="Euro.small" horiz-adv-x="392" 
d="M241 -8q-69 0 -115.5 32.5t-63.5 88.5h-40v43h32q-1 8 -1 17l1 16h-32v44h40q17 56 63 88.5t116 32.5q34 0 65 -7t46 -15l14 -7l-33 -74q-32 19 -74 19q-50 0 -71 -37h92v-44h-105q-1 -7 -1 -16l2 -17h104v-43h-93q20 -38 72 -38q19 0 37.5 4.5t27.5 8.5l9 5l31 -72
q-47 -29 -123 -29z" />
    <glyph glyph-name="yen.small" horiz-adv-x="455" 
d="M246 270l53 76h134l-115 -152h75v-44h-106v-32h106v-44h-106v-74h-120v74h-104v44h104v32h-104v44h73l-115 152h134l53 -76l16 -43h6z" />
    <glyph glyph-name="florin.small" horiz-adv-x="359" 
d="M236 221v-14h76v-63h-76v-46q0 -62 -32 -98t-96 -36q-24 0 -47.5 5.5t-34.5 10.5l-12 6l31 73q23 -7 38 -7q33 0 33 43v49h-51v63h51v11q0 61 31.5 97.5t95.5 36.5q24 0 47.5 -5.5t35.5 -10.5l12 -6l-31 -73q-23 7 -39 7q-32 0 -32 -43z" />
    <glyph glyph-name="cent.small" horiz-adv-x="370" 
d="M163 -94v94q-63 16 -99.5 63t-36.5 110q0 62 36.5 109t99.5 64v100h92v-93q26 -3 47.5 -10t29.5 -13l9 -5l-34 -88q-27 18 -69 18q-40 0 -65 -22.5t-25 -59.5t25 -59.5t65 -22.5q19 0 36 4.5t25 8.5l8 5l32 -88q-27 -22 -84 -28v-87h-92z" />
    <glyph glyph-name="at.small" horiz-adv-x="759" 
d="M176 172q0 85 47 133.5t120 48.5q78 0 113 -49l15 41h72v-277q0 -57 53 -57q48 0 78 49.5t30 140.5q0 130 -82.5 218.5t-240.5 88.5q-157 0 -243 -95t-86 -236q0 -142 86 -236t246 -94q47 0 85 8t53 16l15 9l14 -21q-6 -4 -18.5 -10t-55.5 -16t-93 -10q-170 0 -263 100.5
t-93 253.5q0 151 93 253t260 102q170 0 258 -95.5t88 -235.5q0 -104 -36.5 -159.5t-104.5 -55.5q-41 0 -68.5 16t-36 30.5t-8.5 23.5h-8q-6 -13 -15.5 -25t-38.5 -26t-68 -14q-72 0 -119.5 49t-47.5 131zM285 174q0 -38 22.5 -62.5t57.5 -24.5q37 0 58.5 24t21.5 63
t-21.5 62t-58.5 23q-35 0 -57.5 -23.5t-22.5 -61.5z" />
    <glyph glyph-name="hyphen.small" horiz-adv-x="374" 
d="M43 124v98h291v-98h-291z" />
    <glyph glyph-name="endash.small" horiz-adv-x="456" 
d="M43 124v97h373v-97h-373z" />
    <glyph glyph-name="emdash.small" horiz-adv-x="705" 
d="M43 123v98h623v-98h-623z" />
    <glyph glyph-name="slash.small" horiz-adv-x="377" 
d="M102 -103l-87 53l255 489l89 -52z" />
    <glyph glyph-name="colon.case" horiz-adv-x="259" 
d="M59 63q0 29 20.5 49.5t49.5 20.5t49.5 -20.5t20.5 -49.5q0 -30 -20.5 -50t-49.5 -20t-49.5 20t-20.5 50zM59 491q0 29 20.5 49.5t49.5 20.5t49.5 -20.5t20.5 -49.5q0 -30 -20.5 -50t-49.5 -20t-49.5 20t-20.5 50z" />
    <glyph glyph-name="semicolon.case" horiz-adv-x="264" 
d="M62 62q0 30 20.5 50.5t49.5 20.5t50 -20.5t21 -50.5q-1 -48 -29 -96l-35 -61h-76l33 59q4 8 9 14t8 8l3 3v6q-24 5 -39 23.5t-15 43.5zM63 491q0 29 20.5 49.5t49.5 20.5t49.5 -20.5t20.5 -49.5q0 -30 -20.5 -50t-49.5 -20t-49.5 20t-20.5 50z" />
    <glyph glyph-name="slash.case" horiz-adv-x="386" 
d="M362 745l-221 -879h-118l221 879h118z" />
    <glyph glyph-name="bar.case" horiz-adv-x="266" 
d="M188 715v-825h-110v825h110z" />
    <glyph glyph-name="parenleft.case" horiz-adv-x="374" 
d="M354 637q-198 -119 -198 -337q0 -219 198 -338l-61 -84q-27 13 -57.5 34t-68 59.5t-67 83.5t-49.5 109.5t-20 135.5t20 135.5t49.5 109.5t67 83t68 59t57.5 34z" />
    <glyph glyph-name="parenright.case" horiz-adv-x="374" 
d="M19 637l61 84q27 -13 57.5 -34t68 -59t67 -83t49.5 -109.5t20 -135.5t-20 -135.5t-49.5 -109.5t-67 -83.5t-68 -59.5t-57.5 -34l-61 84q198 119 198 338q0 218 -198 337z" />
    <glyph glyph-name="at.case" horiz-adv-x="906" 
d="M455 -202q-104 0 -186.5 34.5t-133 94.5t-76.5 135.5t-26 160.5q0 86 26 161.5t76.5 135t133 94.5t187.5 35t187 -33.5t129 -87.5t70.5 -115t23.5 -124q0 -123 -50.5 -191.5t-139.5 -68.5q-29 0 -53 7t-37 17t-22 19.5t-12 16.5l-3 7h-8q-6 -12 -16.5 -24t-39 -24.5
t-66.5 -12.5q-73 0 -121 49t-48 131q0 85 47.5 133.5t121.5 48.5q77 0 113 -48l15 39h74v-196q0 -65 62 -65q40 0 63 36.5t23 108.5q0 126 -80.5 205t-232.5 79q-149 0 -237.5 -91.5t-88.5 -240.5t88 -241t237 -92q48 0 89.5 8.5t59.5 16.5l17 8l39 -82q-7 -5 -21 -12.5
t-67 -19.5t-117 -12zM521 217q0 39 -21.5 61.5t-58.5 22.5q-36 0 -58 -23t-22 -61t22.5 -62.5t57.5 -24.5q37 0 58.5 24t21.5 63z" />
    <glyph glyph-name="bracketleft.case" horiz-adv-x="367" 
d="M79 -116v832h256v-98h-142v-636h142v-98h-256z" />
    <glyph glyph-name="backslash.case" horiz-adv-x="386" 
d="M245 -134l-221 879h118l221 -879h-118z" />
    <glyph glyph-name="bracketright.case" horiz-adv-x="367" 
d="M33 -116v98h141v636h-141v98h255v-832h-255z" />
    <glyph glyph-name="braceleft.case" horiz-adv-x="326" 
d="M24 345h21q56 0 56 71v182q0 68 42 106t125 42l17 -100q-33 -5 -45 -15t-12 -40v-192q0 -77 -61 -96v-8q29 -8 45 -33t16 -61v-193q0 -29 12.5 -39.5t44.5 -15.5l-17 -100q-83 4 -125 42.5t-42 105.5v183q0 70 -56 70h-21v91z" />
    <glyph glyph-name="braceright.case" horiz-adv-x="326" 
d="M302 254h-21q-56 0 -56 -70v-183q0 -67 -42 -105.5t-126 -42.5l-16 100q32 5 44 15.5t12 39.5v193q0 35 16.5 60.5t45.5 33.5v8q-62 19 -62 96v192q0 30 -12 40t-44 15l16 100q84 -4 126 -42t42 -106v-182q0 -71 56 -71h21v-91z" />
    <glyph glyph-name="guilsinglleft.case" horiz-adv-x="316" 
d="M51 288v21l106 154h100v-9l-102 -151v-7l102 -153v-9h-100z" />
    <glyph glyph-name="guilsinglright.case" horiz-adv-x="316" 
d="M266 309v-21l-106 -154h-101v9l102 153v7l-102 151v9h101z" />
    <glyph glyph-name="guillemotleft.case" horiz-adv-x="513" 
d="M51 288v21l106 154h100v-9l-102 -151v-7l102 -153v-9h-100zM248 288v21l106 154h100v-9l-102 -151v-7l102 -153v-9h-100z" />
    <glyph glyph-name="guillemotright.case" horiz-adv-x="513" 
d="M266 309v-21l-106 -154h-101v9l102 153v7l-102 151v9h101zM463 309v-21l-106 -154h-101v9l102 153v7l-102 151v9h101z" />
    <glyph glyph-name="bullet.case" horiz-adv-x="320" 
d="M66 300q0 38 27.5 66t65.5 28q39 0 66.5 -28t27.5 -66q0 -39 -27.5 -66t-66.5 -27q-38 0 -65.5 27t-27.5 66z" />
    <glyph glyph-name="section.case" horiz-adv-x="544" 
d="M32 -80l66 93q9 -7 24.5 -17t60 -27t84.5 -17q50 0 73.5 19t23.5 48q0 30 -26.5 48.5t-87.5 41.5q-42 15 -67.5 26t-55.5 31t-44.5 48.5t-14.5 65.5q0 56 36 92q-50 40 -50 103q0 82 56.5 131t167.5 49q43 0 80.5 -6.5t61 -15.5t41 -18.5t25.5 -16.5l7 -6l-65 -99
q-7 6 -19 14.5t-51.5 23t-79.5 14.5q-85 0 -85 -62q0 -50 91 -80q37 -12 59 -20t54 -24t49.5 -32.5t31 -42.5t13.5 -57q0 -67 -36 -106q51 -44 51 -102q0 -77 -60 -127.5t-176 -50.5q-45 0 -85.5 8t-67 19.5t-47 23.5t-29.5 20zM243 309q-28 8 -42 13q-14 -8 -14 -34
q0 -48 104 -84q33 -10 66 -24q13 17 13 38q0 31 -30.5 50t-96.5 41z" />
    <glyph glyph-name="brokenbar.case" horiz-adv-x="266" 
d="M188 -110h-110v825h110v-825z" />
    </font>
</defs>
</svg>
