<?xml version="1.0" encoding="utf-8"?>
<!-- Generator: Adobe Illustrator 18.0.0, SVG Export Plug-In . SVG Version: 6.00 Build 0)  -->
<!DOCTYPE svg PUBLIC "-//W3C//DTD SVG 1.1//EN" "http://www.w3.org/Graphics/SVG/1.1/DTD/svg11.dtd">
<svg version="1.1" id="Capa_1" xmlns="http://www.w3.org/2000/svg" xmlns:xlink="http://www.w3.org/1999/xlink" x="0px" y="0px"
	 viewBox="0 0 1024 1024" enable-background="new 0 0 1024 1024" xml:space="preserve">
<g>
	<g>
		<g>
			<path fill="#434A54" d="M30,708.6v-78.1h9.1v69.6h45.5v8.5H30z"/>
			<path fill="#434A54" d="M161.9,674.4h-42.4v25.8h48.1v8.5h-57.2v-78.1h57.2v8.5h-48.1V666h42.4V674.4z"/>
			<path fill="#434A54" d="M187.8,630.6h63.9v8.5h-27.5v69.6h-9.1V639h-27.3V630.6z"/>
			<path fill="#434A54" d="M277.9,630.6h31.9c19.5,0,31.2,9.1,31.2,26c0,12.9-7.3,21.2-18.3,24.5v0.4l20.6,25v2.2h-9.9l-21.5-25.9
				H287v25.9h-9.1V630.6z M309.6,639H287v35.3h23.8c12.1,0,20.8-5.5,20.8-17.4C331.6,644.8,322.9,639,309.6,639z"/>
			<path fill="#434A54" d="M398.9,630.6h2.1l38.5,78.1H429l-6.9-13.5h-44.4l-6.9,13.5h-10.3L398.9,630.6z M400.4,649.1h-1
				l-16.5,36.2l-0.7,1.2h35.5l-0.7-1.2L400.4,649.1z"/>
			<path fill="#434A54" d="M463.8,630.6h32c19.4,0,31.1,9.1,31.1,26c0,17.7-12.4,27.1-31.6,27.1h-22.4v25h-9.1V630.6z M495.5,639
				h-22.6v36.2h22.6c13.4,0,22.1-5.3,22.1-18.3C517.6,644.8,508.8,639,495.5,639z"/>
			<path fill="#434A54" d="M606.5,674.4h-42.4v25.8h48.1v8.5H555v-78.1h57.2v8.5h-48.1V666h42.4V674.4z"/>
			<path fill="#434A54" d="M672.7,666h38.5v5.5c0,23.7-13.7,39-36.6,39c-24.8,0-40.2-18-40.2-40.7c0-23,15.9-40.9,40.7-40.9
				c19.9,0,28.9,10.3,28.9,10.3l-5.3,6.9c0,0-8.3-8.6-23.5-8.6c-19.5,0-31.5,14.6-31.5,32.3c0,17.6,11.4,32.1,31,32.1
				c16.1,0,27.2-10.5,27.5-26.5v-0.9h-29.4V666z"/>
			<path fill="#434A54" d="M766.1,630.6h2.1l38.5,78.1h-10.4l-6.9-13.5h-44.4l-6.9,13.5h-10.3L766.1,630.6z M767.7,649.1h-1
				l-16.5,36.2l-0.7,1.2H785l-0.7-1.2L767.7,649.1z"/>
			<path fill="#434A54" d="M858.1,708.6h-27.1v-78.1h27.1c24.7,0,41.6,15.1,41.6,39S882.9,708.6,858.1,708.6z M840.2,639v61.1h17.4
				c18.6,0,32.9-11.3,32.9-30.6S876.2,639,857.6,639H840.2z"/>
			<path fill="#434A54" d="M954.5,630.6h2.1l38.5,78.1h-10.4l-6.9-13.5h-44.4l-6.9,13.5h-10.3L954.5,630.6z M956.1,649.1h-1
				l-16.5,36.2l-0.7,1.2h35.5l-0.7-1.2L956.1,649.1z"/>
		</g>
	</g>
	<g>
		<g>
			<path fill="#8D99A3" d="M364,814h-18.4v-53.1H364c16.8,0,28.3,10.3,28.3,26.5C392.4,803.8,380.9,814,364,814z M351.8,766.7v41.6
				h11.9c12.7,0,22.4-7.7,22.4-20.8c0-13.1-9.7-20.8-22.4-20.8H351.8z"/>
			<path fill="#8D99A3" d="M419,814h-6.2v-53.1h6.2V814z"/>
			<path fill="#8D99A3" d="M442.8,804.3c0,0,5.5,5.1,16,5.1c9.8,0,14.1-3.7,14.1-9.1c0-5-3.3-7.4-14.9-10.7
				c-12.9-3.7-18.5-7.5-18.5-15.6c0-9,7.5-14.2,19.6-14.2c12.9,0,18.8,5,18.8,5l-3.4,5.1c0,0-5.4-4.3-15.4-4.3
				c-7.6,0-13.4,2.9-13.4,8.4c0,4.3,3.5,6.5,15,9.7c14.2,3.9,18.4,8.6,18.4,16.5c0,8.6-6.1,15-20.3,15c-13.5,0-19.5-6.3-19.5-6.3
				L442.8,804.3z"/>
			<path fill="#8D99A3" d="M534.2,790.8h-28.8v17.5h32.7v5.8h-38.9v-53.1h38.9v5.8h-32.7V785h28.8V790.8z"/>
			<path fill="#8D99A3" d="M604.4,814h-1.9L564.2,774V814H558v-53.1h1.9l38.3,39.9v-39.9h6.2V814z M575.9,751.2
				c-2.3,0-2.9,1.4-3.5,3.1l-0.4,1.2l-4.3-0.4l0.4-2.1c0.7-3.5,2.6-6.5,7.1-6.5c4.8,0,7.9,4.2,11.3,4.2c2.4,0,3.2-1.4,3.5-3.1
				l0.3-1.2l4.3,0.4l-0.4,2c-0.6,3.5-2.7,6.5-7.1,6.5C582.4,755.4,579.3,751.2,575.9,751.2z"/>
			<path fill="#8D99A3" d="M624.7,787.6c0-15.7,10.7-27.8,27.4-27.8c16.8,0,27.5,12.1,27.5,27.8c0,15.5-10.7,27.7-27.5,27.7
				C635.4,815.3,624.7,803.1,624.7,787.6z M673.3,787.6c0-12-8.1-21.9-21.2-21.9c-13,0-21.2,9.9-21.2,21.9
				c0,11.9,8.1,21.8,21.2,21.8C665.2,809.4,673.3,799.5,673.3,787.6z"/>
		</g>
	</g>
	<path fill="#23BEE8" d="M512.6,208.7H340.2v258.5h86.2v86.2h86.2c95.2,0,172.3-77.2,172.3-172.3S607.8,208.7,512.6,208.7z
		 M512.6,518.9h-51.7v-51.7h51.7c47.6,0,86.2-38.6,86.2-86.2s-38.6-86.2-86.2-86.2h-86.2v137.9h-51.7V243.2h137.9
		c76.1,0,137.9,61.7,137.9,137.9S588.7,518.9,512.6,518.9z M460.9,432.7V329.3h51.7c28.6,0,51.7,23.1,51.7,51.7
		c0,28.6-23.1,51.7-51.7,51.7H460.9z"/>
</g>
</svg>
